<svg xmlns="http://www.w3.org/2000/svg" width="1320" height="620" viewBox="0 0 1320 620"><rect width="1320" height="620" fill="#fffdf9"/><title>Day-Hour Heatmap Of Average Load</title><rect x="210" y="70" width="1070" height="460" rx="18" fill="#fff7ed"/><text x="660.0" y="36" text-anchor="middle" fill="#2a2623" font-size="24" font-family="Segoe UI, Arial, sans-serif">Day-Hour Heatmap Of Average Load</text><text x="198" y="112.7" text-anchor="end" fill="#2a2623" font-size="12" font-family="Segoe UI, Arial, sans-serif">Mon</text><rect x="210.0" y="70.0" width="42.6" height="63.7" rx="8" fill="#77a790"/><text x="232.3" y="109.4" text-anchor="middle" fill="#ffffff" font-size="11" font-family="Segoe UI, Arial, sans-serif">1107.78</text><rect x="254.6" y="70.0" width="42.6" height="63.7" rx="8" fill="#7daa94"/><text x="276.9" y="109.4" text-anchor="middle" fill="#ffffff" font-size="11" font-family="Segoe UI, Arial, sans-serif">1099.28</text><rect x="299.2" y="70.0" width="42.6" height="63.7" rx="8" fill="#7fab95"/><text x="321.5" y="109.4" text-anchor="middle" fill="#ffffff" font-size="11" font-family="Segoe UI, Arial, sans-serif">1096.70</text><rect x="343.8" y="70.0" width="42.6" height="63.7" rx="8" fill="#82ad97"/><text x="366.0" y="109.4" text-anchor="middle" fill="#ffffff" font-size="11" font-family="Segoe UI, Arial, sans-serif">1091.74</text><rect x="388.3" y="70.0" width="42.6" height="63.7" rx="8" fill="#80ac95"/><text x="410.6" y="109.4" text-anchor="middle" fill="#ffffff" font-size="11" font-family="Segoe UI, Arial, sans-serif">1095.17</text><rect x="432.9" y="70.0" width="42.6" height="63.7" rx="8" fill="#8ab29b"/><text x="455.2" y="109.4" text-anchor="middle" fill="#ffffff" font-size="11" font-family="Segoe UI, Arial, sans-serif">1079.47</text><rect x="477.5" y="70.0" width="42.6" height="63.7" rx="8" fill="#8fb49e"/><text x="499.8" y="109.4" text-anchor="middle" fill="#ffffff" font-size="11" font-family="Segoe UI, Arial, sans-serif">1072.41</text><rect x="522.1" y="70.0" width="42.6" height="63.7" rx="8" fill="#8bb29c"/><text x="544.4" y="109.4" text-anchor="middle" fill="#ffffff" font-size="11" font-family="Segoe UI, Arial, sans-serif">1078.26</text><rect x="566.7" y="70.0" width="42.6" height="63.7" rx="8" fill="#81ad96"/><text x="589.0" y="109.4" text-anchor="middle" fill="#ffffff" font-size="11" font-family="Segoe UI, Arial, sans-serif">1092.80</text><rect x="611.2" y="70.0" width="42.6" height="63.7" rx="8" fill="#7aa892"/><text x="633.5" y="109.4" text-anchor="middle" fill="#ffffff" font-size="11" font-family="Segoe UI, Arial, sans-serif">1103.91</text><rect x="655.8" y="70.0" width="42.6" height="63.7" rx="8" fill="#6ea28b"/><text x="678.1" y="109.4" text-anchor="middle" fill="#ffffff" font-size="11" font-family="Segoe UI, Arial, sans-serif">1121.41</text><rect x="700.4" y="70.0" width="42.6" height="63.7" rx="8" fill="#689f88"/><text x="722.7" y="109.4" text-anchor="middle" fill="#ffffff" font-size="11" font-family="Segoe UI, Arial, sans-serif">1129.64</text><rect x="745.0" y="70.0" width="42.6" height="63.7" rx="8" fill="#5e9982"/><text x="767.3" y="109.4" text-anchor="middle" fill="#ffffff" font-size="11" font-family="Segoe UI, Arial, sans-serif">1144.88</text><rect x="789.6" y="70.0" width="42.6" height="63.7" rx="8" fill="#619a83"/><text x="811.9" y="109.4" text-anchor="middle" fill="#ffffff" font-size="11" font-family="Segoe UI, Arial, sans-serif">1141.19</text><rect x="834.2" y="70.0" width="42.6" height="63.7" rx="8" fill="#669d86"/><text x="856.5" y="109.4" text-anchor="middle" fill="#ffffff" font-size="11" font-family="Segoe UI, Arial, sans-serif">1133.40</text><rect x="878.8" y="70.0" width="42.6" height="63.7" rx="8" fill="#6ba089"/><text x="901.0" y="109.4" text-anchor="middle" fill="#ffffff" font-size="11" font-family="Segoe UI, Arial, sans-serif">1125.87</text><rect x="923.3" y="70.0" width="42.6" height="63.7" rx="8" fill="#82ad96"/><text x="945.6" y="109.4" text-anchor="middle" fill="#ffffff" font-size="11" font-family="Segoe UI, Arial, sans-serif">1092.13</text><rect x="967.9" y="70.0" width="42.6" height="63.7" rx="8" fill="#84ae98"/><text x="990.2" y="109.4" text-anchor="middle" fill="#ffffff" font-size="11" font-family="Segoe UI, Arial, sans-serif">1088.38</text><rect x="1012.5" y="70.0" width="42.6" height="63.7" rx="8" fill="#90b59f"/><text x="1034.8" y="109.4" text-anchor="middle" fill="#ffffff" font-size="11" font-family="Segoe UI, Arial, sans-serif">1071.35</text><rect x="1057.1" y="70.0" width="42.6" height="63.7" rx="8" fill="#9dbca6"/><text x="1079.4" y="109.4" text-anchor="middle" fill="#ffffff" font-size="11" font-family="Segoe UI, Arial, sans-serif">1051.87</text><rect x="1101.7" y="70.0" width="42.6" height="63.7" rx="8" fill="#a7c2ac"/><text x="1124.0" y="109.4" text-anchor="middle" fill="#ffffff" font-size="11" font-family="Segoe UI, Arial, sans-serif">1037.12</text><rect x="1146.2" y="70.0" width="42.6" height="63.7" rx="8" fill="#b2c8b2"/><text x="1168.5" y="109.4" text-anchor="middle" fill="#ffffff" font-size="11" font-family="Segoe UI, Arial, sans-serif">1021.15</text><rect x="1190.8" y="70.0" width="42.6" height="63.7" rx="8" fill="#bcceb8"/><text x="1213.1" y="109.4" text-anchor="middle" fill="#ffffff" font-size="11" font-family="Segoe UI, Arial, sans-serif">1006.31</text><rect x="1235.4" y="70.0" width="42.6" height="63.7" rx="8" fill="#c7d3be"/><text x="1257.7" y="109.4" text-anchor="middle" fill="#ffffff" font-size="11" font-family="Segoe UI, Arial, sans-serif">990.67</text><text x="198" y="178.4" text-anchor="end" fill="#2a2623" font-size="12" font-family="Segoe UI, Arial, sans-serif">Tue</text><rect x="210.0" y="135.7" width="42.6" height="63.7" rx="8" fill="#cad5c0"/><text x="232.3" y="175.1" text-anchor="middle" fill="#ffffff" font-size="11" font-family="Segoe UI, Arial, sans-serif">985.68</text><rect x="254.6" y="135.7" width="42.6" height="63.7" rx="8" fill="#d1d9c4"/><text x="276.9" y="175.1" text-anchor="middle" fill="#ffffff" font-size="11" font-family="Segoe UI, Arial, sans-serif">975.98</text><rect x="299.2" y="135.7" width="42.6" height="63.7" rx="8" fill="#d5dcc7"/><text x="321.5" y="175.1" text-anchor="middle" fill="#ffffff" font-size="11" font-family="Segoe UI, Arial, sans-serif">968.96</text><rect x="343.8" y="135.7" width="42.6" height="63.7" rx="8" fill="#d9dec9"/><text x="366.0" y="175.1" text-anchor="middle" fill="#ffffff" font-size="11" font-family="Segoe UI, Arial, sans-serif">963.61</text><rect x="388.3" y="135.7" width="42.6" height="63.7" rx="8" fill="#dcdfcb"/><text x="410.6" y="175.1" text-anchor="middle" fill="#ffffff" font-size="11" font-family="Segoe UI, Arial, sans-serif">959.18</text><rect x="432.9" y="135.7" width="42.6" height="63.7" rx="8" fill="#e4e4d0"/><text x="455.2" y="175.1" text-anchor="middle" fill="#ffffff" font-size="11" font-family="Segoe UI, Arial, sans-serif">946.61</text><rect x="477.5" y="135.7" width="42.6" height="63.7" rx="8" fill="#ebe8d4"/><text x="499.8" y="175.1" text-anchor="middle" fill="#ffffff" font-size="11" font-family="Segoe UI, Arial, sans-serif">936.63</text><rect x="522.1" y="135.7" width="42.6" height="63.7" rx="8" fill="#e6e5d1"/><text x="544.4" y="175.1" text-anchor="middle" fill="#ffffff" font-size="11" font-family="Segoe UI, Arial, sans-serif">943.96</text><rect x="566.7" y="135.7" width="42.6" height="63.7" rx="8" fill="#dcdfcb"/><text x="589.0" y="175.1" text-anchor="middle" fill="#ffffff" font-size="11" font-family="Segoe UI, Arial, sans-serif">959.30</text><rect x="611.2" y="135.7" width="42.6" height="63.7" rx="8" fill="#cfd8c3"/><text x="633.5" y="175.1" text-anchor="middle" fill="#ffffff" font-size="11" font-family="Segoe UI, Arial, sans-serif">977.91</text><rect x="655.8" y="135.7" width="42.6" height="63.7" rx="8" fill="#c4d2bd"/><text x="678.1" y="175.1" text-anchor="middle" fill="#ffffff" font-size="11" font-family="Segoe UI, Arial, sans-serif">994.35</text><rect x="700.4" y="135.7" width="42.6" height="63.7" rx="8" fill="#b5c9b4"/><text x="722.7" y="175.1" text-anchor="middle" fill="#ffffff" font-size="11" font-family="Segoe UI, Arial, sans-serif">1016.94</text><rect x="745.0" y="135.7" width="42.6" height="63.7" rx="8" fill="#afc6b0"/><text x="767.3" y="175.1" text-anchor="middle" fill="#ffffff" font-size="11" font-family="Segoe UI, Arial, sans-serif">1025.83</text><rect x="789.6" y="135.7" width="42.6" height="63.7" rx="8" fill="#b1c7b2"/><text x="811.9" y="175.1" text-anchor="middle" fill="#ffffff" font-size="11" font-family="Segoe UI, Arial, sans-serif">1022.43</text><rect x="834.2" y="135.7" width="42.6" height="63.7" rx="8" fill="#b2c8b2"/><text x="856.5" y="175.1" text-anchor="middle" fill="#ffffff" font-size="11" font-family="Segoe UI, Arial, sans-serif">1020.70</text><rect x="878.8" y="135.7" width="42.6" height="63.7" rx="8" fill="#b2c8b3"/><text x="901.0" y="175.1" text-anchor="middle" fill="#ffffff" font-size="11" font-family="Segoe UI, Arial, sans-serif">1020.53</text><rect x="923.3" y="135.7" width="42.6" height="63.7" rx="8" fill="#b1c7b2"/><text x="945.6" y="175.1" text-anchor="middle" fill="#ffffff" font-size="11" font-family="Segoe UI, Arial, sans-serif">1022.70</text><rect x="967.9" y="135.7" width="42.6" height="63.7" rx="8" fill="#b8cbb6"/><text x="990.2" y="175.1" text-anchor="middle" fill="#ffffff" font-size="11" font-family="Segoe UI, Arial, sans-serif">1012.90</text><rect x="1012.5" y="135.7" width="42.6" height="63.7" rx="8" fill="#becfb9"/><text x="1034.8" y="175.1" text-anchor="middle" fill="#ffffff" font-size="11" font-family="Segoe UI, Arial, sans-serif">1003.39</text><rect x="1057.1" y="135.7" width="42.6" height="63.7" rx="8" fill="#cdd7c2"/><text x="1079.4" y="175.1" text-anchor="middle" fill="#ffffff" font-size="11" font-family="Segoe UI, Arial, sans-serif">981.69</text><rect x="1101.7" y="135.7" width="42.6" height="63.7" rx="8" fill="#dcdfcb"/><text x="1124.0" y="175.1" text-anchor="middle" fill="#ffffff" font-size="11" font-family="Segoe UI, Arial, sans-serif">959.34</text><rect x="1146.2" y="135.7" width="42.6" height="63.7" rx="8" fill="#e3e3cf"/><text x="1168.5" y="175.1" text-anchor="middle" fill="#ffffff" font-size="11" font-family="Segoe UI, Arial, sans-serif">948.92</text><rect x="1190.8" y="135.7" width="42.6" height="63.7" rx="8" fill="#ece8d4"/><text x="1213.1" y="175.1" text-anchor="middle" fill="#ffffff" font-size="11" font-family="Segoe UI, Arial, sans-serif">935.85</text><rect x="1235.4" y="135.7" width="42.6" height="63.7" rx="8" fill="#eeead5"/><text x="1257.7" y="175.1" text-anchor="middle" fill="#ffffff" font-size="11" font-family="Segoe UI, Arial, sans-serif">932.04</text><text x="198" y="244.1" text-anchor="end" fill="#2a2623" font-size="12" font-family="Segoe UI, Arial, sans-serif">Wed</text><rect x="210.0" y="201.4" width="42.6" height="63.7" rx="8" fill="#eee9d5"/><text x="232.3" y="240.9" text-anchor="middle" fill="#ffffff" font-size="11" font-family="Segoe UI, Arial, sans-serif">932.69</text><rect x="254.6" y="201.4" width="42.6" height="63.7" rx="8" fill="#f6eeda"/><text x="276.9" y="240.9" text-anchor="middle" fill="#ffffff" font-size="11" font-family="Segoe UI, Arial, sans-serif">920.98</text><rect x="299.2" y="201.4" width="42.6" height="63.7" rx="8" fill="#f6eeda"/><text x="321.5" y="240.9" text-anchor="middle" fill="#ffffff" font-size="11" font-family="Segoe UI, Arial, sans-serif">920.20</text><rect x="343.8" y="201.4" width="42.6" height="63.7" rx="8" fill="#f8efdb"/><text x="366.0" y="240.9" text-anchor="middle" fill="#ffffff" font-size="11" font-family="Segoe UI, Arial, sans-serif">918.17</text><rect x="388.3" y="201.4" width="42.6" height="63.7" rx="8" fill="#f8efdb"/><text x="410.6" y="240.9" text-anchor="middle" fill="#ffffff" font-size="11" font-family="Segoe UI, Arial, sans-serif">917.71</text><rect x="432.9" y="201.4" width="42.6" height="63.7" rx="8" fill="#faf0dc"/><text x="455.2" y="240.9" text-anchor="middle" fill="#ffffff" font-size="11" font-family="Segoe UI, Arial, sans-serif">914.34</text><rect x="477.5" y="201.4" width="42.6" height="63.7" rx="8" fill="#faf0dc"/><text x="499.8" y="240.9" text-anchor="middle" fill="#ffffff" font-size="11" font-family="Segoe UI, Arial, sans-serif">915.12</text><rect x="522.1" y="201.4" width="42.6" height="63.7" rx="8" fill="#f2ecd8"/><text x="544.4" y="240.9" text-anchor="middle" fill="#ffffff" font-size="11" font-family="Segoe UI, Arial, sans-serif">926.39</text><rect x="566.7" y="201.4" width="42.6" height="63.7" rx="8" fill="#e4e4cf"/><text x="589.0" y="240.9" text-anchor="middle" fill="#ffffff" font-size="11" font-family="Segoe UI, Arial, sans-serif">947.20</text><rect x="611.2" y="201.4" width="42.6" height="63.7" rx="8" fill="#dadeca"/><text x="633.5" y="240.9" text-anchor="middle" fill="#ffffff" font-size="11" font-family="Segoe UI, Arial, sans-serif">961.58</text><rect x="655.8" y="201.4" width="42.6" height="63.7" rx="8" fill="#ccd6c1"/><text x="678.1" y="240.9" text-anchor="middle" fill="#ffffff" font-size="11" font-family="Segoe UI, Arial, sans-serif">982.82</text><rect x="700.4" y="201.4" width="42.6" height="63.7" rx="8" fill="#bbcdb8"/><text x="722.7" y="240.9" text-anchor="middle" fill="#ffffff" font-size="11" font-family="Segoe UI, Arial, sans-serif">1007.49</text><rect x="745.0" y="201.4" width="42.6" height="63.7" rx="8" fill="#afc6b1"/><text x="767.3" y="240.9" text-anchor="middle" fill="#ffffff" font-size="11" font-family="Segoe UI, Arial, sans-serif">1025.68</text><rect x="789.6" y="201.4" width="42.6" height="63.7" rx="8" fill="#b8cbb6"/><text x="811.9" y="240.9" text-anchor="middle" fill="#ffffff" font-size="11" font-family="Segoe UI, Arial, sans-serif">1012.58</text><rect x="834.2" y="201.4" width="42.6" height="63.7" rx="8" fill="#b6cab5"/><text x="856.5" y="240.9" text-anchor="middle" fill="#ffffff" font-size="11" font-family="Segoe UI, Arial, sans-serif">1015.22</text><rect x="878.8" y="201.4" width="42.6" height="63.7" rx="8" fill="#b7cbb5"/><text x="901.0" y="240.9" text-anchor="middle" fill="#ffffff" font-size="11" font-family="Segoe UI, Arial, sans-serif">1013.96</text><rect x="923.3" y="201.4" width="42.6" height="63.7" rx="8" fill="#b9ccb6"/><text x="945.6" y="240.9" text-anchor="middle" fill="#ffffff" font-size="11" font-family="Segoe UI, Arial, sans-serif">1010.50</text><rect x="967.9" y="201.4" width="42.6" height="63.7" rx="8" fill="#c4d2bd"/><text x="990.2" y="240.9" text-anchor="middle" fill="#ffffff" font-size="11" font-family="Segoe UI, Arial, sans-serif">993.85</text><rect x="1012.5" y="201.4" width="42.6" height="63.7" rx="8" fill="#cbd6c1"/><text x="1034.8" y="240.9" text-anchor="middle" fill="#ffffff" font-size="11" font-family="Segoe UI, Arial, sans-serif">984.75</text><rect x="1057.1" y="201.4" width="42.6" height="63.7" rx="8" fill="#d1d9c4"/><text x="1079.4" y="240.9" text-anchor="middle" fill="#ffffff" font-size="11" font-family="Segoe UI, Arial, sans-serif">975.66</text><rect x="1101.7" y="201.4" width="42.6" height="63.7" rx="8" fill="#d5dbc6"/><text x="1124.0" y="240.9" text-anchor="middle" fill="#ffffff" font-size="11" font-family="Segoe UI, Arial, sans-serif">969.99</text><rect x="1146.2" y="201.4" width="42.6" height="63.7" rx="8" fill="#dadeca"/><text x="1168.5" y="240.9" text-anchor="middle" fill="#ffffff" font-size="11" font-family="Segoe UI, Arial, sans-serif">961.61</text><rect x="1190.8" y="201.4" width="42.6" height="63.7" rx="8" fill="#e5e5d0"/><text x="1213.1" y="240.9" text-anchor="middle" fill="#ffffff" font-size="11" font-family="Segoe UI, Arial, sans-serif">945.26</text><rect x="1235.4" y="201.4" width="42.6" height="63.7" rx="8" fill="#eae7d3"/><text x="1257.7" y="240.9" text-anchor="middle" fill="#ffffff" font-size="11" font-family="Segoe UI, Arial, sans-serif">938.51</text><text x="198" y="309.9" text-anchor="end" fill="#2a2623" font-size="12" font-family="Segoe UI, Arial, sans-serif">Thu</text><rect x="210.0" y="267.1" width="42.6" height="63.7" rx="8" fill="#eae7d3"/><text x="232.3" y="306.6" text-anchor="middle" fill="#ffffff" font-size="11" font-family="Segoe UI, Arial, sans-serif">938.94</text><rect x="254.6" y="267.1" width="42.6" height="63.7" rx="8" fill="#f0ead6"/><text x="276.9" y="306.6" text-anchor="middle" fill="#ffffff" font-size="11" font-family="Segoe UI, Arial, sans-serif">930.26</text><rect x="299.2" y="267.1" width="42.6" height="63.7" rx="8" fill="#f5eed9"/><text x="321.5" y="306.6" text-anchor="middle" fill="#ffffff" font-size="11" font-family="Segoe UI, Arial, sans-serif">921.54</text><rect x="343.8" y="267.1" width="42.6" height="63.7" rx="8" fill="#f7eeda"/><text x="366.0" y="306.6" text-anchor="middle" fill="#ffffff" font-size="11" font-family="Segoe UI, Arial, sans-serif">919.36</text><rect x="388.3" y="267.1" width="42.6" height="63.7" rx="8" fill="#f7eeda"/><text x="410.6" y="306.6" text-anchor="middle" fill="#ffffff" font-size="11" font-family="Segoe UI, Arial, sans-serif">919.52</text><rect x="432.9" y="267.1" width="42.6" height="63.7" rx="8" fill="#fbf1dc"/><text x="455.2" y="306.6" text-anchor="middle" fill="#ffffff" font-size="11" font-family="Segoe UI, Arial, sans-serif">914.07</text><rect x="477.5" y="267.1" width="42.6" height="63.7" rx="8" fill="#fff3df"/><text x="499.8" y="306.6" text-anchor="middle" fill="#ffffff" font-size="11" font-family="Segoe UI, Arial, sans-serif">907.50</text><rect x="522.1" y="267.1" width="42.6" height="63.7" rx="8" fill="#f5edd9"/><text x="544.4" y="306.6" text-anchor="middle" fill="#ffffff" font-size="11" font-family="Segoe UI, Arial, sans-serif">922.43</text><rect x="566.7" y="267.1" width="42.6" height="63.7" rx="8" fill="#dfe1cc"/><text x="589.0" y="306.6" text-anchor="middle" fill="#ffffff" font-size="11" font-family="Segoe UI, Arial, sans-serif">954.79</text><rect x="611.2" y="267.1" width="42.6" height="63.7" rx="8" fill="#d5dbc7"/><text x="633.5" y="306.6" text-anchor="middle" fill="#ffffff" font-size="11" font-family="Segoe UI, Arial, sans-serif">969.63</text><rect x="655.8" y="267.1" width="42.6" height="63.7" rx="8" fill="#becfb9"/><text x="678.1" y="306.6" text-anchor="middle" fill="#ffffff" font-size="11" font-family="Segoe UI, Arial, sans-serif">1003.20</text><rect x="700.4" y="267.1" width="42.6" height="63.7" rx="8" fill="#a8c3ad"/><text x="722.7" y="306.6" text-anchor="middle" fill="#ffffff" font-size="11" font-family="Segoe UI, Arial, sans-serif">1035.28</text><rect x="745.0" y="267.1" width="42.6" height="63.7" rx="8" fill="#97b9a2"/><text x="767.3" y="306.6" text-anchor="middle" fill="#ffffff" font-size="11" font-family="Segoe UI, Arial, sans-serif">1061.31</text><rect x="789.6" y="267.1" width="42.6" height="63.7" rx="8" fill="#91b69f"/><text x="811.9" y="306.6" text-anchor="middle" fill="#ffffff" font-size="11" font-family="Segoe UI, Arial, sans-serif">1069.27</text><rect x="834.2" y="267.1" width="42.6" height="63.7" rx="8" fill="#91b59f"/><text x="856.5" y="306.6" text-anchor="middle" fill="#ffffff" font-size="11" font-family="Segoe UI, Arial, sans-serif">1070.17</text><rect x="878.8" y="267.1" width="42.6" height="63.7" rx="8" fill="#8eb49e"/><text x="901.0" y="306.6" text-anchor="middle" fill="#ffffff" font-size="11" font-family="Segoe UI, Arial, sans-serif">1073.53</text><rect x="923.3" y="267.1" width="42.6" height="63.7" rx="8" fill="#8db39d"/><text x="945.6" y="306.6" text-anchor="middle" fill="#ffffff" font-size="11" font-family="Segoe UI, Arial, sans-serif">1076.32</text><rect x="967.9" y="267.1" width="42.6" height="63.7" rx="8" fill="#95b8a1"/><text x="990.2" y="306.6" text-anchor="middle" fill="#ffffff" font-size="11" font-family="Segoe UI, Arial, sans-serif">1064.17</text><rect x="1012.5" y="267.1" width="42.6" height="63.7" rx="8" fill="#95b8a2"/><text x="1034.8" y="306.6" text-anchor="middle" fill="#ffffff" font-size="11" font-family="Segoe UI, Arial, sans-serif">1063.35</text><rect x="1057.1" y="267.1" width="42.6" height="63.7" rx="8" fill="#9ebda7"/><text x="1079.4" y="306.6" text-anchor="middle" fill="#ffffff" font-size="11" font-family="Segoe UI, Arial, sans-serif">1050.53</text><rect x="1101.7" y="267.1" width="42.6" height="63.7" rx="8" fill="#a3bfaa"/><text x="1124.0" y="306.6" text-anchor="middle" fill="#ffffff" font-size="11" font-family="Segoe UI, Arial, sans-serif">1043.33</text><rect x="1146.2" y="267.1" width="42.6" height="63.7" rx="8" fill="#a8c3ad"/><text x="1168.5" y="306.6" text-anchor="middle" fill="#ffffff" font-size="11" font-family="Segoe UI, Arial, sans-serif">1035.28</text><rect x="1190.8" y="267.1" width="42.6" height="63.7" rx="8" fill="#b2c8b2"/><text x="1213.1" y="306.6" text-anchor="middle" fill="#ffffff" font-size="11" font-family="Segoe UI, Arial, sans-serif">1020.99</text><rect x="1235.4" y="267.1" width="42.6" height="63.7" rx="8" fill="#afc6b1"/><text x="1257.7" y="306.6" text-anchor="middle" fill="#ffffff" font-size="11" font-family="Segoe UI, Arial, sans-serif">1024.78</text><text x="198" y="375.6" text-anchor="end" fill="#2a2623" font-size="12" font-family="Segoe UI, Arial, sans-serif">Fri</text><rect x="210.0" y="332.9" width="42.6" height="63.7" rx="8" fill="#aec5b0"/><text x="232.3" y="372.3" text-anchor="middle" fill="#ffffff" font-size="11" font-family="Segoe UI, Arial, sans-serif">1027.53</text><rect x="254.6" y="332.9" width="42.6" height="63.7" rx="8" fill="#adc5b0"/><text x="276.9" y="372.3" text-anchor="middle" fill="#ffffff" font-size="11" font-family="Segoe UI, Arial, sans-serif">1028.04</text><rect x="299.2" y="332.9" width="42.6" height="63.7" rx="8" fill="#aec6b0"/><text x="321.5" y="372.3" text-anchor="middle" fill="#ffffff" font-size="11" font-family="Segoe UI, Arial, sans-serif">1026.69</text><rect x="343.8" y="332.9" width="42.6" height="63.7" rx="8" fill="#b1c8b2"/><text x="366.0" y="372.3" text-anchor="middle" fill="#ffffff" font-size="11" font-family="Segoe UI, Arial, sans-serif">1021.91</text><rect x="388.3" y="332.9" width="42.6" height="63.7" rx="8" fill="#b2c8b3"/><text x="410.6" y="372.3" text-anchor="middle" fill="#ffffff" font-size="11" font-family="Segoe UI, Arial, sans-serif">1020.50</text><rect x="432.9" y="332.9" width="42.6" height="63.7" rx="8" fill="#b5cab4"/><text x="455.2" y="372.3" text-anchor="middle" fill="#ffffff" font-size="11" font-family="Segoe UI, Arial, sans-serif">1016.00</text><rect x="477.5" y="332.9" width="42.6" height="63.7" rx="8" fill="#b9ccb6"/><text x="499.8" y="372.3" text-anchor="middle" fill="#ffffff" font-size="11" font-family="Segoe UI, Arial, sans-serif">1010.78</text><rect x="522.1" y="332.9" width="42.6" height="63.7" rx="8" fill="#aac4ae"/><text x="544.4" y="372.3" text-anchor="middle" fill="#ffffff" font-size="11" font-family="Segoe UI, Arial, sans-serif">1032.60</text><rect x="566.7" y="332.9" width="42.6" height="63.7" rx="8" fill="#95b8a2"/><text x="589.0" y="372.3" text-anchor="middle" fill="#ffffff" font-size="11" font-family="Segoe UI, Arial, sans-serif">1063.70</text><rect x="611.2" y="332.9" width="42.6" height="63.7" rx="8" fill="#82ad96"/><text x="633.5" y="372.3" text-anchor="middle" fill="#ffffff" font-size="11" font-family="Segoe UI, Arial, sans-serif">1091.94</text><rect x="655.8" y="332.9" width="42.6" height="63.7" rx="8" fill="#75a68f"/><text x="678.1" y="372.3" text-anchor="middle" fill="#ffffff" font-size="11" font-family="Segoe UI, Arial, sans-serif">1110.81</text><rect x="700.4" y="332.9" width="42.6" height="63.7" rx="8" fill="#5a977f"/><text x="722.7" y="372.3" text-anchor="middle" fill="#ffffff" font-size="11" font-family="Segoe UI, Arial, sans-serif">1150.60</text><rect x="745.0" y="332.9" width="42.6" height="63.7" rx="8" fill="#478c74"/><text x="767.3" y="372.3" text-anchor="middle" fill="#ffffff" font-size="11" font-family="Segoe UI, Arial, sans-serif">1178.41</text><rect x="789.6" y="332.9" width="42.6" height="63.7" rx="8" fill="#458b73"/><text x="811.9" y="372.3" text-anchor="middle" fill="#ffffff" font-size="11" font-family="Segoe UI, Arial, sans-serif">1181.27</text><rect x="834.2" y="332.9" width="42.6" height="63.7" rx="8" fill="#448a72"/><text x="856.5" y="372.3" text-anchor="middle" fill="#ffffff" font-size="11" font-family="Segoe UI, Arial, sans-serif">1183.86</text><rect x="878.8" y="332.9" width="42.6" height="63.7" rx="8" fill="#428971"/><text x="901.0" y="372.3" text-anchor="middle" fill="#ffffff" font-size="11" font-family="Segoe UI, Arial, sans-serif">1186.92</text><rect x="923.3" y="332.9" width="42.6" height="63.7" rx="8" fill="#408870"/><text x="945.6" y="372.3" text-anchor="middle" fill="#ffffff" font-size="11" font-family="Segoe UI, Arial, sans-serif">1189.91</text><rect x="967.9" y="332.9" width="42.6" height="63.7" rx="8" fill="#418971"/><text x="990.2" y="372.3" text-anchor="middle" fill="#ffffff" font-size="11" font-family="Segoe UI, Arial, sans-serif">1187.04</text><rect x="1012.5" y="332.9" width="42.6" height="63.7" rx="8" fill="#4c8f77"/><text x="1034.8" y="372.3" text-anchor="middle" fill="#ffffff" font-size="11" font-family="Segoe UI, Arial, sans-serif">1171.72</text><rect x="1057.1" y="332.9" width="42.6" height="63.7" rx="8" fill="#57957e"/><text x="1079.4" y="372.3" text-anchor="middle" fill="#ffffff" font-size="11" font-family="Segoe UI, Arial, sans-serif">1155.25</text><rect x="1101.7" y="332.9" width="42.6" height="63.7" rx="8" fill="#619b83"/><text x="1124.0" y="372.3" text-anchor="middle" fill="#ffffff" font-size="11" font-family="Segoe UI, Arial, sans-serif">1140.35</text><rect x="1146.2" y="332.9" width="42.6" height="63.7" rx="8" fill="#669d86"/><text x="1168.5" y="372.3" text-anchor="middle" fill="#ffffff" font-size="11" font-family="Segoe UI, Arial, sans-serif">1133.50</text><rect x="1190.8" y="332.9" width="42.6" height="63.7" rx="8" fill="#72a48d"/><text x="1213.1" y="372.3" text-anchor="middle" fill="#ffffff" font-size="11" font-family="Segoe UI, Arial, sans-serif">1114.78</text><rect x="1235.4" y="332.9" width="42.6" height="63.7" rx="8" fill="#7aa892"/><text x="1257.7" y="372.3" text-anchor="middle" fill="#ffffff" font-size="11" font-family="Segoe UI, Arial, sans-serif">1104.14</text><text x="198" y="441.3" text-anchor="end" fill="#2a2623" font-size="12" font-family="Segoe UI, Arial, sans-serif">Sat</text><rect x="210.0" y="398.6" width="42.6" height="63.7" rx="8" fill="#7aa992"/><text x="232.3" y="438.0" text-anchor="middle" fill="#ffffff" font-size="11" font-family="Segoe UI, Arial, sans-serif">1103.30</text><rect x="254.6" y="398.6" width="42.6" height="63.7" rx="8" fill="#7ba992"/><text x="276.9" y="438.0" text-anchor="middle" fill="#ffffff" font-size="11" font-family="Segoe UI, Arial, sans-serif">1102.63</text><rect x="299.2" y="398.6" width="42.6" height="63.7" rx="8" fill="#80ac95"/><text x="321.5" y="438.0" text-anchor="middle" fill="#ffffff" font-size="11" font-family="Segoe UI, Arial, sans-serif">1095.13</text><rect x="343.8" y="398.6" width="42.6" height="63.7" rx="8" fill="#80ac95"/><text x="366.0" y="438.0" text-anchor="middle" fill="#ffffff" font-size="11" font-family="Segoe UI, Arial, sans-serif">1095.20</text><rect x="388.3" y="398.6" width="42.6" height="63.7" rx="8" fill="#83ae97"/><text x="410.6" y="438.0" text-anchor="middle" fill="#ffffff" font-size="11" font-family="Segoe UI, Arial, sans-serif">1090.51</text><rect x="432.9" y="398.6" width="42.6" height="63.7" rx="8" fill="#7fab95"/><text x="455.2" y="438.0" text-anchor="middle" fill="#ffffff" font-size="11" font-family="Segoe UI, Arial, sans-serif">1096.28</text><rect x="477.5" y="398.6" width="42.6" height="63.7" rx="8" fill="#7aa892"/><text x="499.8" y="438.0" text-anchor="middle" fill="#ffffff" font-size="11" font-family="Segoe UI, Arial, sans-serif">1104.09</text><rect x="522.1" y="398.6" width="42.6" height="63.7" rx="8" fill="#679e87"/><text x="544.4" y="438.0" text-anchor="middle" fill="#ffffff" font-size="11" font-family="Segoe UI, Arial, sans-serif">1131.42</text><rect x="566.7" y="398.6" width="42.6" height="63.7" rx="8" fill="#59967f"/><text x="589.0" y="438.0" text-anchor="middle" fill="#ffffff" font-size="11" font-family="Segoe UI, Arial, sans-serif">1152.35</text><rect x="611.2" y="398.6" width="42.6" height="63.7" rx="8" fill="#448b73"/><text x="633.5" y="438.0" text-anchor="middle" fill="#ffffff" font-size="11" font-family="Segoe UI, Arial, sans-serif">1182.78</text><rect x="655.8" y="398.6" width="42.6" height="63.7" rx="8" fill="#2f7f66"/><text x="678.1" y="438.0" text-anchor="middle" fill="#ffffff" font-size="11" font-family="Segoe UI, Arial, sans-serif">1214.37</text><rect x="700.4" y="398.6" width="42.6" height="63.7" rx="8" fill="#1e755c"/><text x="722.7" y="438.0" text-anchor="middle" fill="#ffffff" font-size="11" font-family="Segoe UI, Arial, sans-serif">1239.24</text><rect x="745.0" y="398.6" width="42.6" height="63.7" rx="8" fill="#19735a"/><text x="767.3" y="438.0" text-anchor="middle" fill="#ffffff" font-size="11" font-family="Segoe UI, Arial, sans-serif">1246.03</text><rect x="789.6" y="398.6" width="42.6" height="63.7" rx="8" fill="#136f56"/><text x="811.9" y="438.0" text-anchor="middle" fill="#ffffff" font-size="11" font-family="Segoe UI, Arial, sans-serif">1255.50</text><rect x="834.2" y="398.6" width="42.6" height="63.7" rx="8" fill="#0c6b52"/><text x="856.5" y="438.0" text-anchor="middle" fill="#ffffff" font-size="11" font-family="Segoe UI, Arial, sans-serif">1265.90</text><rect x="878.8" y="398.6" width="42.6" height="63.7" rx="8" fill="#126e55"/><text x="901.0" y="438.0" text-anchor="middle" fill="#ffffff" font-size="11" font-family="Segoe UI, Arial, sans-serif">1257.73</text><rect x="923.3" y="398.6" width="42.6" height="63.7" rx="8" fill="#1b745b"/><text x="945.6" y="438.0" text-anchor="middle" fill="#ffffff" font-size="11" font-family="Segoe UI, Arial, sans-serif">1243.27</text><rect x="967.9" y="398.6" width="42.6" height="63.7" rx="8" fill="#2a7c64"/><text x="990.2" y="438.0" text-anchor="middle" fill="#ffffff" font-size="11" font-family="Segoe UI, Arial, sans-serif">1221.06</text><rect x="1012.5" y="398.6" width="42.6" height="63.7" rx="8" fill="#38846c"/><text x="1034.8" y="438.0" text-anchor="middle" fill="#ffffff" font-size="11" font-family="Segoe UI, Arial, sans-serif">1200.31</text><rect x="1057.1" y="398.6" width="42.6" height="63.7" rx="8" fill="#468b74"/><text x="1079.4" y="438.0" text-anchor="middle" fill="#ffffff" font-size="11" font-family="Segoe UI, Arial, sans-serif">1180.59</text><rect x="1101.7" y="398.6" width="42.6" height="63.7" rx="8" fill="#4b8e77"/><text x="1124.0" y="438.0" text-anchor="middle" fill="#ffffff" font-size="11" font-family="Segoe UI, Arial, sans-serif">1172.43</text><rect x="1146.2" y="398.6" width="42.6" height="63.7" rx="8" fill="#51917a"/><text x="1168.5" y="438.0" text-anchor="middle" fill="#ffffff" font-size="11" font-family="Segoe UI, Arial, sans-serif">1164.79</text><rect x="1190.8" y="398.6" width="42.6" height="63.7" rx="8" fill="#56947d"/><text x="1213.1" y="438.0" text-anchor="middle" fill="#ffffff" font-size="11" font-family="Segoe UI, Arial, sans-serif">1157.15</text><rect x="1235.4" y="398.6" width="42.6" height="63.7" rx="8" fill="#5e9981"/><text x="1257.7" y="438.0" text-anchor="middle" fill="#ffffff" font-size="11" font-family="Segoe UI, Arial, sans-serif">1145.43</text><text x="198" y="507.0" text-anchor="end" fill="#2a2623" font-size="12" font-family="Segoe UI, Arial, sans-serif">Sun</text><rect x="210.0" y="464.3" width="42.6" height="63.7" rx="8" fill="#639c84"/><text x="232.3" y="503.7" text-anchor="middle" fill="#ffffff" font-size="11" font-family="Segoe UI, Arial, sans-serif">1138.06</text><rect x="254.6" y="464.3" width="42.6" height="63.7" rx="8" fill="#689e87"/><text x="276.9" y="503.7" text-anchor="middle" fill="#ffffff" font-size="11" font-family="Segoe UI, Arial, sans-serif">1130.45</text><rect x="299.2" y="464.3" width="42.6" height="63.7" rx="8" fill="#6ba089"/><text x="321.5" y="503.7" text-anchor="middle" fill="#ffffff" font-size="11" font-family="Segoe UI, Arial, sans-serif">1125.11</text><rect x="343.8" y="464.3" width="42.6" height="63.7" rx="8" fill="#6ca18a"/><text x="366.0" y="503.7" text-anchor="middle" fill="#ffffff" font-size="11" font-family="Segoe UI, Arial, sans-serif">1124.31</text><rect x="388.3" y="464.3" width="42.6" height="63.7" rx="8" fill="#6fa38c"/><text x="410.6" y="503.7" text-anchor="middle" fill="#ffffff" font-size="11" font-family="Segoe UI, Arial, sans-serif">1119.48</text><rect x="432.9" y="464.3" width="42.6" height="63.7" rx="8" fill="#71a38c"/><text x="455.2" y="503.7" text-anchor="middle" fill="#ffffff" font-size="11" font-family="Segoe UI, Arial, sans-serif">1117.33</text><rect x="477.5" y="464.3" width="42.6" height="63.7" rx="8" fill="#6da18a"/><text x="499.8" y="503.7" text-anchor="middle" fill="#ffffff" font-size="11" font-family="Segoe UI, Arial, sans-serif">1123.24</text><rect x="522.1" y="464.3" width="42.6" height="63.7" rx="8" fill="#689e87"/><text x="544.4" y="503.7" text-anchor="middle" fill="#ffffff" font-size="11" font-family="Segoe UI, Arial, sans-serif">1130.58</text><rect x="566.7" y="464.3" width="42.6" height="63.7" rx="8" fill="#609a83"/><text x="589.0" y="503.7" text-anchor="middle" fill="#ffffff" font-size="11" font-family="Segoe UI, Arial, sans-serif">1142.00</text><rect x="611.2" y="464.3" width="42.6" height="63.7" rx="8" fill="#4c8f77"/><text x="633.5" y="503.7" text-anchor="middle" fill="#ffffff" font-size="11" font-family="Segoe UI, Arial, sans-serif">1170.84</text><rect x="655.8" y="464.3" width="42.6" height="63.7" rx="8" fill="#3a856c"/><text x="678.1" y="503.7" text-anchor="middle" fill="#ffffff" font-size="11" font-family="Segoe UI, Arial, sans-serif">1198.66</text><rect x="700.4" y="464.3" width="42.6" height="63.7" rx="8" fill="#2e7e66"/><text x="722.7" y="503.7" text-anchor="middle" fill="#ffffff" font-size="11" font-family="Segoe UI, Arial, sans-serif">1216.12</text><rect x="745.0" y="464.3" width="42.6" height="63.7" rx="8" fill="#247960"/><text x="767.3" y="503.7" text-anchor="middle" fill="#ffffff" font-size="11" font-family="Segoe UI, Arial, sans-serif">1230.13</text><rect x="789.6" y="464.3" width="42.6" height="63.7" rx="8" fill="#1d755c"/><text x="811.9" y="503.7" text-anchor="middle" fill="#ffffff" font-size="11" font-family="Segoe UI, Arial, sans-serif">1240.42</text><rect x="834.2" y="464.3" width="42.6" height="63.7" rx="8" fill="#1a735a"/><text x="856.5" y="503.7" text-anchor="middle" fill="#ffffff" font-size="11" font-family="Segoe UI, Arial, sans-serif">1245.96</text><rect x="878.8" y="464.3" width="42.6" height="63.7" rx="8" fill="#1d755c"/><text x="901.0" y="503.7" text-anchor="middle" fill="#ffffff" font-size="11" font-family="Segoe UI, Arial, sans-serif">1240.15</text><rect x="923.3" y="464.3" width="42.6" height="63.7" rx="8" fill="#267a61"/><text x="945.6" y="503.7" text-anchor="middle" fill="#ffffff" font-size="11" font-family="Segoe UI, Arial, sans-serif">1227.11</text><rect x="967.9" y="464.3" width="42.6" height="63.7" rx="8" fill="#38846c"/><text x="990.2" y="503.7" text-anchor="middle" fill="#ffffff" font-size="11" font-family="Segoe UI, Arial, sans-serif">1200.58</text><rect x="1012.5" y="464.3" width="42.6" height="63.7" rx="8" fill="#4b8e77"/><text x="1034.8" y="503.7" text-anchor="middle" fill="#ffffff" font-size="11" font-family="Segoe UI, Arial, sans-serif">1172.77</text><rect x="1057.1" y="464.3" width="42.6" height="63.7" rx="8" fill="#5c9881"/><text x="1079.4" y="503.7" text-anchor="middle" fill="#ffffff" font-size="11" font-family="Segoe UI, Arial, sans-serif">1147.22</text><rect x="1101.7" y="464.3" width="42.6" height="63.7" rx="8" fill="#689e87"/><text x="1124.0" y="503.7" text-anchor="middle" fill="#ffffff" font-size="11" font-family="Segoe UI, Arial, sans-serif">1130.78</text><rect x="1146.2" y="464.3" width="42.6" height="63.7" rx="8" fill="#6ea28b"/><text x="1168.5" y="503.7" text-anchor="middle" fill="#ffffff" font-size="11" font-family="Segoe UI, Arial, sans-serif">1121.58</text><rect x="1190.8" y="464.3" width="42.6" height="63.7" rx="8" fill="#71a48d"/><text x="1213.1" y="503.7" text-anchor="middle" fill="#ffffff" font-size="11" font-family="Segoe UI, Arial, sans-serif">1116.68</text><rect x="1235.4" y="464.3" width="42.6" height="63.7" rx="8" fill="#73a58e"/><text x="1257.7" y="503.7" text-anchor="middle" fill="#ffffff" font-size="11" font-family="Segoe UI, Arial, sans-serif">1113.85</text><text x="232.3" y="546.0" text-anchor="end" fill="#2a2623" font-size="12" font-family="Segoe UI, Arial, sans-serif" transform="rotate(-40 232.3 546.0)">00</text><text x="276.9" y="546.0" text-anchor="end" fill="#2a2623" font-size="12" font-family="Segoe UI, Arial, sans-serif" transform="rotate(-40 276.9 546.0)">01</text><text x="321.5" y="546.0" text-anchor="end" fill="#2a2623" font-size="12" font-family="Segoe UI, Arial, sans-serif" transform="rotate(-40 321.5 546.0)">02</text><text x="366.0" y="546.0" text-anchor="end" fill="#2a2623" font-size="12" font-family="Segoe UI, Arial, sans-serif" transform="rotate(-40 366.0 546.0)">03</text><text x="410.6" y="546.0" text-anchor="end" fill="#2a2623" font-size="12" font-family="Segoe UI, Arial, sans-serif" transform="rotate(-40 410.6 546.0)">04</text><text x="455.2" y="546.0" text-anchor="end" fill="#2a2623" font-size="12" font-family="Segoe UI, Arial, sans-serif" transform="rotate(-40 455.2 546.0)">05</text><text x="499.8" y="546.0" text-anchor="end" fill="#2a2623" font-size="12" font-family="Segoe UI, Arial, sans-serif" transform="rotate(-40 499.8 546.0)">06</text><text x="544.4" y="546.0" text-anchor="end" fill="#2a2623" font-size="12" font-family="Segoe UI, Arial, sans-serif" transform="rotate(-40 544.4 546.0)">07</text><text x="589.0" y="546.0" text-anchor="end" fill="#2a2623" font-size="12" font-family="Segoe UI, Arial, sans-serif" transform="rotate(-40 589.0 546.0)">08</text><text x="633.5" y="546.0" text-anchor="end" fill="#2a2623" font-size="12" font-family="Segoe UI, Arial, sans-serif" transform="rotate(-40 633.5 546.0)">09</text><text x="678.1" y="546.0" text-anchor="end" fill="#2a2623" font-size="12" font-family="Segoe UI, Arial, sans-serif" transform="rotate(-40 678.1 546.0)">10</text><text x="722.7" y="546.0" text-anchor="end" fill="#2a2623" font-size="12" font-family="Segoe UI, Arial, sans-serif" transform="rotate(-40 722.7 546.0)">11</text><text x="767.3" y="546.0" text-anchor="end" fill="#2a2623" font-size="12" font-family="Segoe UI, Arial, sans-serif" transform="rotate(-40 767.3 546.0)">12</text><text x="811.9" y="546.0" text-anchor="end" fill="#2a2623" font-size="12" font-family="Segoe UI, Arial, sans-serif" transform="rotate(-40 811.9 546.0)">13</text><text x="856.5" y="546.0" text-anchor="end" fill="#2a2623" font-size="12" font-family="Segoe UI, Arial, sans-serif" transform="rotate(-40 856.5 546.0)">14</text><text x="901.0" y="546.0" text-anchor="end" fill="#2a2623" font-size="12" font-family="Segoe UI, Arial, sans-serif" transform="rotate(-40 901.0 546.0)">15</text><text x="945.6" y="546.0" text-anchor="end" fill="#2a2623" font-size="12" font-family="Segoe UI, Arial, sans-serif" transform="rotate(-40 945.6 546.0)">16</text><text x="990.2" y="546.0" text-anchor="end" fill="#2a2623" font-size="12" font-family="Segoe UI, Arial, sans-serif" transform="rotate(-40 990.2 546.0)">17</text><text x="1034.8" y="546.0" text-anchor="end" fill="#2a2623" font-size="12" font-family="Segoe UI, Arial, sans-serif" transform="rotate(-40 1034.8 546.0)">18</text><text x="1079.4" y="546.0" text-anchor="end" fill="#2a2623" font-size="12" font-family="Segoe UI, Arial, sans-serif" transform="rotate(-40 1079.4 546.0)">19</text><text x="1124.0" y="546.0" text-anchor="end" fill="#2a2623" font-size="12" font-family="Segoe UI, Arial, sans-serif" transform="rotate(-40 1124.0 546.0)">20</text><text x="1168.5" y="546.0" text-anchor="end" fill="#2a2623" font-size="12" font-family="Segoe UI, Arial, sans-serif" transform="rotate(-40 1168.5 546.0)">21</text><text x="1213.1" y="546.0" text-anchor="end" fill="#2a2623" font-size="12" font-family="Segoe UI, Arial, sans-serif" transform="rotate(-40 1213.1 546.0)">22</text><text x="1257.7" y="546.0" text-anchor="end" fill="#2a2623" font-size="12" font-family="Segoe UI, Arial, sans-serif" transform="rotate(-40 1257.7 546.0)">23</text></svg>