<svg xmlns="http://www.w3.org/2000/svg" width="1250" height="680" viewBox="0 0 1250 680"><rect width="1250" height="680" fill="#fffdf9"/><title>Permutation Importance On Holdout</title><rect x="300" y="65" width="910" height="545" rx="18" fill="#fff7ed"/><text x="625.0" y="34" text-anchor="middle" fill="#2a2623" font-size="24" font-family="Segoe UI, Arial, sans-serif">Permutation Importance On Holdout</text><text x="625.0" y="664.0" text-anchor="middle" fill="#77685c" font-size="14" font-family="Segoe UI, Arial, sans-serif">MAE increase after shuffling feature (kW)</text><line x1="300.0" x2="300.0" y1="65" y2="610" stroke="#dfcfbb" stroke-width="1"/><text x="300.0" y="634.0" text-anchor="middle" fill="#77685c" font-size="12" font-family="Segoe UI, Arial, sans-serif">0.00</text><line x1="527.5" x2="527.5" y1="65" y2="610" stroke="#dfcfbb" stroke-width="1"/><text x="527.5" y="634.0" text-anchor="middle" fill="#77685c" font-size="12" font-family="Segoe UI, Arial, sans-serif">62.16</text><line x1="755.0" x2="755.0" y1="65" y2="610" stroke="#dfcfbb" stroke-width="1"/><text x="755.0" y="634.0" text-anchor="middle" fill="#77685c" font-size="12" font-family="Segoe UI, Arial, sans-serif">124.3</text><line x1="982.5" x2="982.5" y1="65" y2="610" stroke="#dfcfbb" stroke-width="1"/><text x="982.5" y="634.0" text-anchor="middle" fill="#77685c" font-size="12" font-family="Segoe UI, Arial, sans-serif">186.5</text><line x1="1210.0" x2="1210.0" y1="65" y2="610" stroke="#dfcfbb" stroke-width="1"/><text x="1210.0" y="634.0" text-anchor="middle" fill="#77685c" font-size="12" font-family="Segoe UI, Arial, sans-serif">248.6</text><line x1="300.0" x2="300.0" y1="65" y2="610" stroke="#2a2623" stroke-width="1.5"/><rect x="300.0" y="70.5" width="791.3" height="32.7" rx="8" fill="#0c6b52"/><text x="288" y="92.2" text-anchor="end" fill="#2a2623" font-size="12" font-family="Segoe UI, Arial, sans-serif">active_container_count</text><text x="1099.3" y="92.2" text-anchor="start" fill="#77685c" font-size="12" font-family="Segoe UI, Arial, sans-serif">216.2</text><rect x="300.0" y="115.9" width="501.9" height="32.7" rx="8" fill="#0c6b52"/><text x="288" y="137.7" text-anchor="end" fill="#2a2623" font-size="12" font-family="Segoe UI, Arial, sans-serif">day_of_year</text><text x="809.9" y="137.7" text-anchor="start" fill="#77685c" font-size="12" font-family="Segoe UI, Arial, sans-serif">137.1</text><rect x="300.0" y="161.3" width="386.9" height="32.7" rx="8" fill="#0c6b52"/><text x="288" y="183.1" text-anchor="end" fill="#2a2623" font-size="12" font-family="Segoe UI, Arial, sans-serif">mean_temperature_setpoint_c</text><text x="694.9" y="183.1" text-anchor="start" fill="#77685c" font-size="12" font-family="Segoe UI, Arial, sans-serif">105.7</text><rect x="300.0" y="206.7" width="333.6" height="32.7" rx="8" fill="#0c6b52"/><text x="288" y="228.5" text-anchor="end" fill="#2a2623" font-size="12" font-family="Segoe UI, Arial, sans-serif">month</text><text x="641.6" y="228.5" text-anchor="start" fill="#77685c" font-size="12" font-family="Segoe UI, Arial, sans-serif">91.14</text><rect x="300.0" y="252.1" width="162.2" height="32.7" rx="8" fill="#0c6b52"/><text x="288" y="273.9" text-anchor="end" fill="#2a2623" font-size="12" font-family="Segoe UI, Arial, sans-serif">mean_temperature_return_c</text><text x="470.2" y="273.9" text-anchor="start" fill="#77685c" font-size="12" font-family="Segoe UI, Arial, sans-serif">44.32</text><rect x="300.0" y="297.5" width="120.2" height="32.7" rx="8" fill="#0c6b52"/><text x="288" y="319.3" text-anchor="end" fill="#2a2623" font-size="12" font-family="Segoe UI, Arial, sans-serif">mean_temperature_supply_c</text><text x="428.2" y="319.3" text-anchor="start" fill="#77685c" font-size="12" font-family="Segoe UI, Arial, sans-serif">32.83</text><rect x="300.0" y="342.9" width="104.4" height="32.7" rx="8" fill="#0c6b52"/><text x="288" y="364.8" text-anchor="end" fill="#2a2623" font-size="12" font-family="Segoe UI, Arial, sans-serif">mean_stack_tier</text><text x="412.4" y="364.8" text-anchor="start" fill="#77685c" font-size="12" font-family="Segoe UI, Arial, sans-serif">28.52</text><rect x="300.0" y="388.4" width="47.2" height="32.7" rx="8" fill="#0c6b52"/><text x="288" y="410.2" text-anchor="end" fill="#2a2623" font-size="12" font-family="Segoe UI, Arial, sans-serif">mean_ambient_minus_setpoint_c</text><text x="355.2" y="410.2" text-anchor="start" fill="#77685c" font-size="12" font-family="Segoe UI, Arial, sans-serif">12.90</text><rect x="300.0" y="433.8" width="23.4" height="32.7" rx="8" fill="#0c6b52"/><text x="288" y="455.6" text-anchor="end" fill="#2a2623" font-size="12" font-family="Segoe UI, Arial, sans-serif">share_stack_tier_2</text><text x="331.4" y="455.6" text-anchor="start" fill="#77685c" font-size="12" font-family="Segoe UI, Arial, sans-serif">6.39</text><rect x="300.0" y="479.2" width="15.1" height="32.7" rx="8" fill="#0c6b52"/><text x="288" y="501.0" text-anchor="end" fill="#2a2623" font-size="12" font-family="Segoe UI, Arial, sans-serif">share_hardware_decosiiie</text><text x="323.1" y="501.0" text-anchor="start" fill="#77685c" font-size="12" font-family="Segoe UI, Arial, sans-serif">4.13</text><rect x="300.0" y="524.6" width="12.9" height="32.7" rx="8" fill="#0c6b52"/><text x="288" y="546.4" text-anchor="end" fill="#2a2623" font-size="12" font-family="Segoe UI, Arial, sans-serif">share_hardware_scc6</text><text x="320.9" y="546.4" text-anchor="start" fill="#77685c" font-size="12" font-family="Segoe UI, Arial, sans-serif">3.52</text><rect x="300.0" y="570.0" width="12.2" height="32.7" rx="8" fill="#0c6b52"/><text x="288" y="591.8" text-anchor="end" fill="#2a2623" font-size="12" font-family="Segoe UI, Arial, sans-serif">mean_return_minus_supply_c</text><text x="320.2" y="591.8" text-anchor="start" fill="#77685c" font-size="12" font-family="Segoe UI, Arial, sans-serif">3.33</text></svg>