<svg xmlns="http://www.w3.org/2000/svg" width="1240" height="620" viewBox="0 0 1240 620"><rect width="1240" height="620" fill="#fffdf9"/><title>Past Weather Window Usefulness For Predicting The Next 24 Hours</title><rect x="95" y="70" width="925" height="465" rx="18" fill="#fff7ed"/><text x="620.0" y="36" text-anchor="middle" fill="#2a2623" font-size="24" font-family="Segoe UI, Arial, sans-serif">Past Weather Window Usefulness For Predicting The Next 24 Hours</text><text x="620.0" y="602.0" text-anchor="middle" fill="#77685c" font-size="14" font-family="Segoe UI, Arial, sans-serif">History window size available at forecast time (hours)</text><text x="24" y="310.0" text-anchor="middle" fill="#77685c" font-size="14" font-family="Segoe UI, Arial, sans-serif" transform="rotate(-90 24 310.0)">Mean absolute correlation to future 1-24h power</text><line x1="95" x2="1020" y1="535.0" y2="535.0" stroke="#dfcfbb" stroke-width="1"/><text x="85" y="539.0" text-anchor="end" fill="#77685c" font-size="12" font-family="Segoe UI, Arial, sans-serif">-0.01</text><line x1="95" x2="1020" y1="442.0" y2="442.0" stroke="#dfcfbb" stroke-width="1"/><text x="85" y="446.0" text-anchor="end" fill="#77685c" font-size="12" font-family="Segoe UI, Arial, sans-serif">0.12</text><line x1="95" x2="1020" y1="349.0" y2="349.0" stroke="#dfcfbb" stroke-width="1"/><text x="85" y="353.0" text-anchor="end" fill="#77685c" font-size="12" font-family="Segoe UI, Arial, sans-serif">0.26</text><line x1="95" x2="1020" y1="256.0" y2="256.0" stroke="#dfcfbb" stroke-width="1"/><text x="85" y="260.0" text-anchor="end" fill="#77685c" font-size="12" font-family="Segoe UI, Arial, sans-serif">0.40</text><line x1="95" x2="1020" y1="163.0" y2="163.0" stroke="#dfcfbb" stroke-width="1"/><text x="85" y="167.0" text-anchor="end" fill="#77685c" font-size="12" font-family="Segoe UI, Arial, sans-serif">0.53</text><line x1="95" x2="1020" y1="70.0" y2="70.0" stroke="#dfcfbb" stroke-width="1"/><text x="85" y="74.0" text-anchor="end" fill="#77685c" font-size="12" font-family="Segoe UI, Arial, sans-serif">0.67</text><line x1="95.0" x2="95.0" y1="70" y2="535" stroke="#dfcfbb" stroke-width="1"/><text x="95.0" y="559.0" text-anchor="middle" fill="#77685c" font-size="12" font-family="Segoe UI, Arial, sans-serif">1</text><line x1="249.2" x2="249.2" y1="70" y2="535" stroke="#dfcfbb" stroke-width="1"/><text x="249.2" y="559.0" text-anchor="middle" fill="#77685c" font-size="12" font-family="Segoe UI, Arial, sans-serif">13</text><line x1="403.3" x2="403.3" y1="70" y2="535" stroke="#dfcfbb" stroke-width="1"/><text x="403.3" y="559.0" text-anchor="middle" fill="#77685c" font-size="12" font-family="Segoe UI, Arial, sans-serif">25</text><line x1="557.5" x2="557.5" y1="70" y2="535" stroke="#dfcfbb" stroke-width="1"/><text x="557.5" y="559.0" text-anchor="middle" fill="#77685c" font-size="12" font-family="Segoe UI, Arial, sans-serif">36</text><line x1="711.7" x2="711.7" y1="70" y2="535" stroke="#dfcfbb" stroke-width="1"/><text x="711.7" y="559.0" text-anchor="middle" fill="#77685c" font-size="12" font-family="Segoe UI, Arial, sans-serif">48</text><line x1="865.8" x2="865.8" y1="70" y2="535" stroke="#dfcfbb" stroke-width="1"/><text x="865.8" y="559.0" text-anchor="middle" fill="#77685c" font-size="12" font-family="Segoe UI, Arial, sans-serif">60</text><line x1="1020.0" x2="1020.0" y1="70" y2="535" stroke="#dfcfbb" stroke-width="1"/><text x="1020.0" y="559.0" text-anchor="middle" fill="#77685c" font-size="12" font-family="Segoe UI, Arial, sans-serif">72</text><polyline fill="none" stroke="#0c6b52" stroke-width="3" stroke-linecap="round" stroke-linejoin="round" points="95.0,263.0 108.0,253.4 121.1,246.5 134.1,240.5 147.1,234.6 160.1,228.6 173.2,222.1 186.2,216.0 199.2,210.3 212.3,204.9 225.3,200.0 238.3,195.3 251.3,191.1 264.4,187.1 277.4,183.4 290.4,179.9 303.5,176.7 316.5,173.7 329.5,170.8 342.5,168.2 355.6,165.7 368.6,163.3 381.6,161.1 394.6,158.9 407.7,156.9 420.7,154.9 433.7,152.9 446.8,151.0 459.8,149.1 472.8,147.3 485.8,145.5 498.9,143.7 511.9,142.0 524.9,140.3 538.0,138.6 551.0,136.9 564.0,135.3 577.0,133.7 590.1,132.0 603.1,130.4 616.1,128.9 629.2,127.3 642.2,125.8 655.2,124.3 668.2,122.9 681.3,121.4 694.3,120.0 707.3,118.6 720.4,117.4 733.4,116.2 746.4,115.1 759.4,114.1 772.5,113.1 785.5,112.3 798.5,111.5 811.5,110.7 824.6,110.0 837.6,109.4 850.6,108.8 863.7,108.3 876.7,107.8 889.7,107.3 902.7,106.9 915.8,106.5 928.8,106.2 941.8,105.8 954.9,105.5 967.9,105.2 980.9,105.0 993.9,104.7 1007.0,104.4 1020.0,104.2"/><line x1="1044" x2="1072" y1="88" y2="88" stroke="#0c6b52" stroke-width="4" stroke-linecap="round"/><text x="1080" y="92.0" text-anchor="start" fill="#2a2623" font-size="12" font-family="Segoe UI, Arial, sans-serif">temperature mean (C)</text><polyline fill="none" stroke="#a44a3f" stroke-width="3" stroke-linecap="round" stroke-linejoin="round" points="95.0,502.9 108.0,501.0 121.1,499.0 134.1,496.8 147.1,494.3 160.1,491.7 173.2,489.1 186.2,486.6 199.2,484.2 212.3,481.8 225.3,479.6 238.3,477.5 251.3,475.5 264.4,473.6 277.4,471.8 290.4,470.1 303.5,468.5 316.5,467.0 329.5,465.5 342.5,464.0 355.6,462.6 368.6,461.2 381.6,459.9 394.6,458.5 407.7,457.2 420.7,455.8 433.7,454.4 446.8,453.0 459.8,451.5 472.8,450.1 485.8,448.7 498.9,447.3 511.9,445.9 524.9,444.6 538.0,443.3 551.0,442.1 564.0,440.9 577.0,439.7 590.1,438.6 603.1,437.4 616.1,436.3 629.2,435.3 642.2,434.3 655.2,433.5 668.2,432.7 681.3,432.2 694.3,431.8 707.3,431.6 720.4,431.6 733.4,431.8 746.4,432.2 759.4,432.8 772.5,433.6 785.5,434.5 798.5,435.6 811.5,436.8 824.6,438.1 837.6,439.6 850.6,441.1 863.7,442.8 876.7,444.5 889.7,446.3 902.7,448.2 915.8,450.2 928.8,452.2 941.8,454.3 954.9,456.4 967.9,458.5 980.9,460.7 993.9,462.8 1007.0,464.9 1020.0,467.0"/><line x1="1044" x2="1072" y1="114" y2="114" stroke="#a44a3f" stroke-width="4" stroke-linecap="round"/><text x="1080" y="118.0" text-anchor="start" fill="#2a2623" font-size="12" font-family="Segoe UI, Arial, sans-serif">wind speed mean</text><polyline fill="none" stroke="#2d6a9f" stroke-width="3" stroke-linecap="round" stroke-linejoin="round" points="95.0,483.3 108.0,480.7 121.1,478.7 134.1,477.0 147.1,475.4 160.1,474.0 173.2,472.7 186.2,471.5 199.2,470.4 212.3,469.5 225.3,468.5 238.3,467.7 251.3,466.9 264.4,466.1 277.4,465.5 290.4,464.9 303.5,464.4 316.5,463.9 329.5,463.3 342.5,462.8 355.6,462.2 368.6,461.6 381.6,461.1 394.6,460.6 407.7,460.1 420.7,459.6 433.7,459.2 446.8,458.7 459.8,458.4 472.8,458.0 485.8,457.8 498.9,457.5 511.9,457.3 524.9,457.1 538.0,457.0 551.0,457.0 564.0,457.0 577.0,457.0 590.1,457.1 603.1,457.2 616.1,457.4 629.2,457.7 642.2,458.1 655.2,458.6 668.2,459.3 681.3,457.8 694.3,456.7 707.3,456.0 720.4,455.5 733.4,455.1 746.4,454.9 759.4,454.8 772.5,454.8 785.5,454.9 798.5,455.3 811.5,455.8 824.6,456.6 837.6,457.5 850.6,458.7 863.7,460.1 876.7,461.6 889.7,463.3 902.7,465.2 915.8,467.2 928.8,469.4 941.8,471.8 954.9,474.2 967.9,476.8 980.9,479.3 993.9,481.7 1007.0,483.9 1020.0,486.0"/><line x1="1044" x2="1072" y1="140" y2="140" stroke="#2d6a9f" stroke-width="4" stroke-linecap="round"/><text x="1080" y="144.0" text-anchor="start" fill="#2a2623" font-size="12" font-family="Segoe UI, Arial, sans-serif">wind direction mean</text><text x="1080" y="157.0" text-anchor="start" fill="#2a2623" font-size="12" font-family="Segoe UI, Arial, sans-serif">(C)onsistency</text><polyline fill="none" stroke="#8c6d1f" stroke-width="3" stroke-linecap="round" stroke-linejoin="round" points="95.0,167.1 108.0,167.1 121.1,167.0 134.1,166.6 147.1,166.1 160.1,165.5 173.2,164.8 186.2,164.2 199.2,163.6 212.3,162.9 225.3,162.1 238.3,161.3 251.3,160.5 264.4,159.6 277.4,158.7 290.4,157.8 303.5,156.9 316.5,155.9 329.5,155.0 342.5,154.0 355.6,153.1 368.6,152.2 381.6,151.3 394.6,150.4 407.7,149.5 420.7,148.6 433.7,147.8 446.8,146.9 459.8,146.0 472.8,145.1 485.8,144.2 498.9,143.3 511.9,142.4 524.9,141.4 538.0,140.5 551.0,139.5 564.0,138.5 577.0,137.4 590.1,136.3 603.1,135.2 616.1,134.1 629.2,133.0 642.2,132.0 655.2,130.9 668.2,129.9 681.3,128.7 694.3,127.6 707.3,126.4 720.4,125.3 733.4,124.2 746.4,123.0 759.4,122.0 772.5,120.9 785.5,119.8 798.5,118.8 811.5,117.7 824.6,116.7 837.6,115.6 850.6,114.6 863.7,113.6 876.7,112.6 889.7,111.6 902.7,110.6 915.8,109.7 928.8,108.7 941.8,107.7 954.9,106.8 967.9,105.8 980.9,104.9 993.9,103.9 1007.0,103.0 1020.0,102.1"/><line x1="1044" x2="1072" y1="166" y2="166" stroke="#8c6d1f" stroke-width="4" stroke-linecap="round"/><text x="1080" y="170.0" text-anchor="start" fill="#2a2623" font-size="12" font-family="Segoe UI, Arial, sans-serif">temperature VC Halle</text><text x="1080" y="183.0" text-anchor="start" fill="#2a2623" font-size="12" font-family="Segoe UI, Arial, sans-serif">3 c</text></svg>