<?xml version="1.0" encoding="utf-8" standalone="no"?>
<!DOCTYPE svg PUBLIC "-//W3C//DTD SVG 1.1//EN"
  "http://www.w3.org/Graphics/SVG/1.1/DTD/svg11.dtd">
<svg xmlns:xlink="http://www.w3.org/1999/xlink" width="908.39952pt" height="425.99952pt" viewBox="0 0 908.39952 425.99952" xmlns="http://www.w3.org/2000/svg" version="1.1">
 <metadata>
  <rdf:RDF xmlns:dc="http://purl.org/dc/elements/1.1/" xmlns:cc="http://creativecommons.org/ns#" xmlns:rdf="http://www.w3.org/1999/02/22-rdf-syntax-ns#">
   <cc:Work>
    <dc:type rdf:resource="http://purl.org/dc/dcmitype/StillImage"/>
    <dc:date>2026-04-10T09:41:07.123165</dc:date>
    <dc:format>image/svg+xml</dc:format>
    <dc:creator>
     <cc:Agent>
      <dc:title>Matplotlib v3.10.7, https://matplotlib.org/</dc:title>
     </cc:Agent>
    </dc:creator>
   </cc:Work>
  </rdf:RDF>
 </metadata>
 <defs>
  <style type="text/css">*{stroke-linejoin: round; stroke-linecap: butt}</style>
 </defs>
 <g id="figure_1">
  <g id="patch_1">
   <path d="M 0 425.99952 
L 908.39952 425.99952 
L 908.39952 0 
L 0 0 
L 0 425.99952 
z
" style="fill: none"/>
  </g>
  <g id="axes_1">
   <g id="patch_2">
    <path d="M 81.07875 401.153582 
L 901.19952 401.153582 
L 901.19952 34.117344 
L 81.07875 34.117344 
L 81.07875 401.153582 
z
" style="fill: none"/>
   </g>
   <g id="FillBetweenPolyCollection_1">
    <defs>
     <path id="m6b57686d9d" d="M 118.356967 -276.354552 
L 118.356967 -181.495957 
L 121.715365 -172.958812 
L 125.073763 -173.431255 
L 128.432161 -160.212639 
L 131.790558 -180.474662 
L 135.148956 -192.887949 
L 138.507354 -133.986737 
L 141.865752 -174.889283 
L 145.22415 -215.482344 
L 148.582548 -226.10087 
L 151.940946 -271.997862 
L 155.299344 -280.776662 
L 158.657742 -286.610428 
L 162.01614 -293.973118 
L 165.374538 -308.855207 
L 168.732935 -281.628362 
L 172.091333 -298.190666 
L 175.449731 -288.879825 
L 178.808129 -295.814419 
L 182.166527 -285.331764 
L 185.524925 -292.406889 
L 188.883323 -284.949537 
L 192.241721 -279.559631 
L 195.600119 -270.809329 
L 198.958517 -286.643926 
L 202.316915 -273.171265 
L 205.675313 -267.715551 
L 209.03371 -266.484719 
L 212.392108 -268.224146 
L 215.750506 -268.593441 
L 219.108904 -264.336207 
L 222.467302 -282.388524 
L 225.8257 -284.594857 
L 229.184098 -283.160187 
L 232.542496 -278.88492 
L 235.900894 -288.188486 
L 239.259292 -287.933069 
L 242.61769 -289.989024 
L 245.976087 -294.298347 
L 249.334485 -281.515715 
L 252.692883 -287.924976 
L 256.051281 -291.407135 
L 259.409679 -291.518249 
L 262.768077 -288.217918 
L 266.126475 -295.702886 
L 269.484873 -294.789538 
L 272.843271 -279.132359 
L 276.201669 -280.453786 
L 279.560067 -265.746795 
L 282.918464 -274.270346 
L 286.276862 -278.220088 
L 289.63526 -272.024164 
L 292.993658 -266.662102 
L 296.352056 -253.516532 
L 299.710454 -236.912138 
L 303.068852 -230.654687 
L 306.42725 -256.647656 
L 309.785648 -233.698128 
L 313.144046 -268.696561 
L 316.502444 -251.568044 
L 319.860842 -169.865228 
L 323.219239 -261.386542 
L 326.577637 -172.103291 
L 329.936035 -164.209487 
L 333.294433 -152.968472 
L 336.652831 -229.102278 
L 340.011229 -262.485741 
L 343.369627 -275.539161 
L 346.728025 -278.290003 
L 350.086423 -271.970613 
L 353.444821 -248.395062 
L 356.803219 -173.719856 
L 360.161616 -127.422921 
L 363.520014 -132.796275 
L 366.878412 -130.02185 
L 370.23681 -120.373327 
L 373.595208 -119.833614 
L 376.953606 -124.84034 
L 380.312004 -134.315194 
L 383.670402 -128.576234 
L 387.0288 -128.616528 
L 390.387198 -132.451916 
L 393.745596 -123.21363 
L 397.103993 -132.767063 
L 400.462391 -157.242935 
L 403.820789 -149.234947 
L 407.179187 -147.67964 
L 410.537585 -126.166438 
L 413.895983 -124.377496 
L 417.254381 -107.712779 
L 420.612779 -117.543691 
L 423.971177 -133.603734 
L 427.329575 -134.778827 
L 430.687973 -134.323466 
L 434.046371 -119.628516 
L 437.404768 -118.179812 
L 440.763166 -115.50402 
L 444.121564 -102.798098 
L 447.479962 -96.451917 
L 450.83836 -112.001716 
L 454.196758 -116.485063 
L 457.555156 -112.445313 
L 460.913554 -112.812422 
L 464.271952 -122.791253 
L 467.63035 -125.064891 
L 470.988748 -117.512928 
L 474.347145 -119.752019 
L 477.705543 -108.302719 
L 481.063941 -108.124 
L 484.422339 -130.687837 
L 487.780737 -130.676833 
L 491.139135 -114.938346 
L 494.497533 -121.465188 
L 497.855931 -109.94133 
L 501.214329 -113.342171 
L 504.572727 -118.886726 
L 507.931125 -132.113997 
L 511.289522 -131.952509 
L 514.64792 -130.146347 
L 518.006318 -122.920459 
L 521.364716 -106.867256 
L 524.723114 -114.634901 
L 528.081512 -115.955478 
L 531.43991 -101.515164 
L 534.798308 -104.575983 
L 538.156706 -91.848956 
L 541.515104 -85.686328 
L 544.873502 -90.990458 
L 548.231899 -97.384059 
L 551.590297 -91.254422 
L 554.948695 -94.613026 
L 558.307093 -96.199835 
L 561.665491 -109.415673 
L 565.023889 -108.175793 
L 568.382287 -113.507142 
L 571.740685 -85.979916 
L 575.099083 -86.004886 
L 578.457481 -85.400076 
L 581.815879 -89.505659 
L 585.174277 -111.18195 
L 588.532674 -116.483171 
L 591.891072 -104.583079 
L 595.24947 -107.617447 
L 598.607868 -168.064312 
L 601.966266 -117.29459 
L 605.324664 -112.429008 
L 608.683062 -102.679327 
L 612.04146 -115.488326 
L 615.399858 -92.725856 
L 618.758256 -87.010542 
L 622.116654 -110.186677 
L 625.475051 -92.050851 
L 628.833449 -98.792028 
L 632.191847 -113.509196 
L 635.550245 -110.439257 
L 638.908643 -84.905002 
L 642.267041 -117.876416 
L 645.625439 -169.611385 
L 648.983837 -114.70619 
L 652.342235 -98.505349 
L 655.700633 -110.953149 
L 659.059031 -88.705549 
L 662.417428 -102.682232 
L 665.775826 -118.572947 
L 669.134224 -138.109091 
L 672.492622 -112.407691 
L 675.85102 -116.224857 
L 679.209418 -119.510247 
L 682.567816 -174.533869 
L 685.926214 -169.60784 
L 689.284612 -160.411197 
L 692.64301 -121.424085 
L 696.001408 -142.717347 
L 699.359806 -115.100238 
L 702.718203 -123.961045 
L 706.076601 -123.301225 
L 709.434999 -131.681083 
L 712.793397 -117.684907 
L 716.151795 -135.084792 
L 719.510193 -127.670098 
L 722.868591 -162.907568 
L 726.226989 -173.910928 
L 729.585387 -181.108326 
L 732.943785 -152.011237 
L 736.302183 -185.544351 
L 739.66058 -186.566856 
L 743.018978 -199.183774 
L 746.377376 -220.809133 
L 749.735774 -213.162223 
L 753.094172 -229.993222 
L 756.45257 -194.45711 
L 759.810968 -212.026909 
L 763.169366 -222.995449 
L 766.527764 -215.30913 
L 769.886162 -204.31371 
L 773.24456 -179.6965 
L 776.602957 -173.218055 
L 779.961355 -181.309982 
L 783.319753 -170.068572 
L 786.678151 -173.798709 
L 790.036549 -147.563622 
L 793.394947 -208.564324 
L 796.753345 -200.186605 
L 800.111743 -137.717375 
L 803.470141 -228.878439 
L 806.828539 -238.76312 
L 810.186937 -227.446386 
L 813.545335 -221.871823 
L 816.903732 -233.246101 
L 820.26213 -224.756567 
L 823.620528 -235.824723 
L 826.978926 -246.690738 
L 830.337324 -303.553884 
L 833.695722 -286.391747 
L 837.05412 -311.854027 
L 840.412518 -287.030832 
L 843.770916 -321.955643 
L 847.129314 -319.092522 
L 850.487712 -281.598849 
L 853.846109 -277.256544 
L 857.204507 -263.205273 
L 860.562905 -275.831074 
L 863.921303 -265.443374 
L 863.921303 -313.527659 
L 863.921303 -313.527659 
L 860.562905 -325.787149 
L 857.204507 -315.681218 
L 853.846109 -331.315816 
L 850.487712 -333.787479 
L 847.129314 -370.968418 
L 843.770916 -375.198711 
L 840.412518 -336.461217 
L 837.05412 -357.715283 
L 833.695722 -328.760709 
L 830.337324 -344.57097 
L 826.978926 -280.657965 
L 823.620528 -277.838322 
L 820.26213 -284.192125 
L 816.903732 -272.576657 
L 813.545335 -277.087589 
L 810.186937 -267.779229 
L 806.828539 -288.58459 
L 803.470141 -275.08461 
L 800.111743 -175.095278 
L 796.753345 -279.314328 
L 793.394947 -283.463218 
L 790.036549 -185.49551 
L 786.678151 -251.042701 
L 783.319753 -259.776484 
L 779.961355 -273.124817 
L 776.602957 -264.408684 
L 773.24456 -271.919474 
L 769.886162 -282.6846 
L 766.527764 -285.856926 
L 763.169366 -273.584332 
L 759.810968 -282.367052 
L 756.45257 -257.877809 
L 753.094172 -293.300436 
L 749.735774 -271.596432 
L 746.377376 -278.186032 
L 743.018978 -292.512897 
L 739.66058 -292.649979 
L 736.302183 -278.837336 
L 732.943785 -251.95726 
L 729.585387 -266.120028 
L 726.226989 -268.399106 
L 722.868591 -260.754945 
L 719.510193 -250.677835 
L 716.151795 -264.915885 
L 712.793397 -173.438087 
L 709.434999 -190.097186 
L 706.076601 -256.60161 
L 702.718203 -184.110295 
L 699.359806 -257.18269 
L 696.001408 -287.744468 
L 692.64301 -262.622837 
L 689.284612 -291.215827 
L 685.926214 -288.402487 
L 682.567816 -289.21091 
L 679.209418 -179.608789 
L 675.85102 -253.017637 
L 672.492622 -253.010336 
L 669.134224 -281.366008 
L 665.775826 -251.181788 
L 662.417428 -160.723512 
L 659.059031 -151.600486 
L 655.700633 -173.584933 
L 652.342235 -163.923482 
L 648.983837 -267.489478 
L 645.625439 -266.12219 
L 642.267041 -282.124863 
L 638.908643 -264.172843 
L 635.550245 -183.92777 
L 632.191847 -184.682154 
L 628.833449 -167.11373 
L 625.475051 -158.722746 
L 622.116654 -182.257237 
L 618.758256 -266.262006 
L 615.399858 -268.030213 
L 612.04146 -186.374427 
L 608.683062 -261.815005 
L 605.324664 -260.568707 
L 601.966266 -181.643786 
L 598.607868 -264.425284 
L 595.24947 -259.188671 
L 591.891072 -167.451609 
L 588.532674 -181.094828 
L 585.174277 -175.722715 
L 581.815879 -153.86817 
L 578.457481 -155.058343 
L 575.099083 -152.673544 
L 571.740685 -155.105411 
L 568.382287 -178.961345 
L 565.023889 -176.487843 
L 561.665491 -177.884381 
L 558.307093 -170.544679 
L 554.948695 -168.842808 
L 551.590297 -162.842197 
L 548.231899 -168.622124 
L 544.873502 -160.46267 
L 541.515104 -156.936161 
L 538.156706 -164.713056 
L 534.798308 -178.872973 
L 531.43991 -174.760737 
L 528.081512 -186.865882 
L 524.723114 -182.40944 
L 521.364716 -175.863874 
L 518.006318 -178.952352 
L 514.64792 -184.977715 
L 511.289522 -187.92464 
L 507.931125 -188.371372 
L 504.572727 -174.817801 
L 501.214329 -171.692804 
L 497.855931 -173.3936 
L 494.497533 -182.660886 
L 491.139135 -177.371959 
L 487.780737 -187.158723 
L 484.422339 -189.374658 
L 481.063941 -163.608815 
L 477.705543 -169.841077 
L 474.347145 -181.19734 
L 470.988748 -175.631091 
L 467.63035 -182.169463 
L 464.271952 -179.115888 
L 460.913554 -171.210718 
L 457.555156 -171.790525 
L 454.196758 -176.88132 
L 450.83836 -172.51807 
L 447.479962 -152.687061 
L 444.121564 -157.399031 
L 440.763166 -173.774407 
L 437.404768 -173.639474 
L 434.046371 -173.428746 
L 430.687973 -190.022209 
L 427.329575 -261.290284 
L 423.971177 -189.953076 
L 420.612779 -251.832183 
L 417.254381 -257.002031 
L 413.895983 -266.65569 
L 410.537585 -274.118082 
L 407.179187 -277.254854 
L 403.820789 -285.838907 
L 400.462391 -290.195947 
L 397.103993 -280.793294 
L 393.745596 -267.119862 
L 390.387198 -191.322397 
L 387.0288 -259.176671 
L 383.670402 -257.38598 
L 380.312004 -272.216103 
L 376.953606 -264.290854 
L 373.595208 -260.880207 
L 370.23681 -262.579109 
L 366.878412 -263.730936 
L 363.520014 -260.439736 
L 360.161616 -185.980648 
L 356.803219 -188.191615 
L 353.444821 -251.516529 
L 350.086423 -276.867338 
L 346.728025 -282.158397 
L 343.369627 -279.128781 
L 340.011229 -274.956149 
L 336.652831 -254.051845 
L 333.294433 -167.035586 
L 329.936035 -179.823187 
L 326.577637 -181.878892 
L 323.219239 -261.386542 
L 319.860842 -181.365006 
L 316.502444 -269.648481 
L 313.144046 -288.975025 
L 309.785648 -257.693332 
L 306.42725 -279.678762 
L 303.068852 -254.911204 
L 299.710454 -268.449481 
L 296.352056 -289.196443 
L 292.993658 -304.824408 
L 289.63526 -311.136854 
L 286.276862 -312.809561 
L 282.918464 -304.692656 
L 279.560067 -298.356627 
L 276.201669 -312.370308 
L 272.843271 -305.027927 
L 269.484873 -319.256727 
L 266.126475 -317.312946 
L 262.768077 -308.428343 
L 259.409679 -314.430474 
L 256.051281 -320.573802 
L 252.692883 -312.86095 
L 249.334485 -310.116739 
L 245.976087 -315.41196 
L 242.61769 -316.304965 
L 239.259292 -316.009474 
L 235.900894 -326.932983 
L 232.542496 -320.303503 
L 229.184098 -325.4335 
L 225.8257 -328.373428 
L 222.467302 -327.877403 
L 219.108904 -313.993114 
L 215.750506 -317.927815 
L 212.392108 -317.903127 
L 209.03371 -314.691608 
L 205.675313 -308.800051 
L 202.316915 -309.194297 
L 198.958517 -322.729206 
L 195.600119 -329.413326 
L 192.241721 -332.313487 
L 188.883323 -335.353883 
L 185.524925 -338.485542 
L 182.166527 -331.840435 
L 178.808129 -346.227054 
L 175.449731 -346.031169 
L 172.091333 -351.683 
L 168.732935 -342.534531 
L 165.374538 -363.505456 
L 162.01614 -355.0829 
L 158.657742 -352.330861 
L 155.299344 -364.399279 
L 151.940946 -357.685495 
L 148.582548 -310.489946 
L 145.22415 -296.573252 
L 141.865752 -255.390669 
L 138.507354 -280.685407 
L 135.148956 -277.818824 
L 131.790558 -259.586036 
L 128.432161 -285.498797 
L 125.073763 -278.657819 
L 121.715365 -265.74859 
L 118.356967 -276.354552 
z
" style="stroke: #f2d8a7; stroke-opacity: 0.55"/>
    </defs>
    <g clip-path="url(#pd21a2b45af)">
     <use xlink:href="#m6b57686d9d" x="0" y="425.99952" style="fill: #f2d8a7; fill-opacity: 0.55; stroke: #f2d8a7; stroke-opacity: 0.55"/>
    </g>
   </g>
   <g id="matplotlib.axis_1">
    <g id="xtick_1">
     <g id="line2d_1">
      <defs>
       <path id="mfabb08ca87" d="M 0 0 
L 0 3.5 
" style="stroke: #5f6f86; stroke-width: 0.8"/>
      </defs>
      <g>
       <use xlink:href="#mfabb08ca87" x="118.356967" y="401.153582" style="fill: #5f6f86; stroke: #5f6f86; stroke-width: 0.8"/>
      </g>
     </g>
     <g id="text_1">
      <!-- Jan 01 -->
      <g style="fill: #5f6f86" transform="translate(101.131654 416.511864) scale(0.11 -0.11)">
       <defs>
        <path id="DejaVuSans-4a" d="M 628 4666 
L 1259 4666 
L 1259 325 
Q 1259 -519 939 -900 
Q 619 -1281 -91 -1281 
L -331 -1281 
L -331 -750 
L -134 -750 
Q 284 -750 456 -515 
Q 628 -281 628 325 
L 628 4666 
z
" transform="scale(0.015625)"/>
        <path id="DejaVuSans-61" d="M 2194 1759 
Q 1497 1759 1228 1600 
Q 959 1441 959 1056 
Q 959 750 1161 570 
Q 1363 391 1709 391 
Q 2188 391 2477 730 
Q 2766 1069 2766 1631 
L 2766 1759 
L 2194 1759 
z
M 3341 1997 
L 3341 0 
L 2766 0 
L 2766 531 
Q 2569 213 2275 61 
Q 1981 -91 1556 -91 
Q 1019 -91 701 211 
Q 384 513 384 1019 
Q 384 1609 779 1909 
Q 1175 2209 1959 2209 
L 2766 2209 
L 2766 2266 
Q 2766 2663 2505 2880 
Q 2244 3097 1772 3097 
Q 1472 3097 1187 3025 
Q 903 2953 641 2809 
L 641 3341 
Q 956 3463 1253 3523 
Q 1550 3584 1831 3584 
Q 2591 3584 2966 3190 
Q 3341 2797 3341 1997 
z
" transform="scale(0.015625)"/>
        <path id="DejaVuSans-6e" d="M 3513 2113 
L 3513 0 
L 2938 0 
L 2938 2094 
Q 2938 2591 2744 2837 
Q 2550 3084 2163 3084 
Q 1697 3084 1428 2787 
Q 1159 2491 1159 1978 
L 1159 0 
L 581 0 
L 581 3500 
L 1159 3500 
L 1159 2956 
Q 1366 3272 1645 3428 
Q 1925 3584 2291 3584 
Q 2894 3584 3203 3211 
Q 3513 2838 3513 2113 
z
" transform="scale(0.015625)"/>
        <path id="DejaVuSans-20" transform="scale(0.015625)"/>
        <path id="DejaVuSans-30" d="M 2034 4250 
Q 1547 4250 1301 3770 
Q 1056 3291 1056 2328 
Q 1056 1369 1301 889 
Q 1547 409 2034 409 
Q 2525 409 2770 889 
Q 3016 1369 3016 2328 
Q 3016 3291 2770 3770 
Q 2525 4250 2034 4250 
z
M 2034 4750 
Q 2819 4750 3233 4129 
Q 3647 3509 3647 2328 
Q 3647 1150 3233 529 
Q 2819 -91 2034 -91 
Q 1250 -91 836 529 
Q 422 1150 422 2328 
Q 422 3509 836 4129 
Q 1250 4750 2034 4750 
z
" transform="scale(0.015625)"/>
        <path id="DejaVuSans-31" d="M 794 531 
L 1825 531 
L 1825 4091 
L 703 3866 
L 703 4441 
L 1819 4666 
L 2450 4666 
L 2450 531 
L 3481 531 
L 3481 0 
L 794 0 
L 794 531 
z
" transform="scale(0.015625)"/>
       </defs>
       <use xlink:href="#DejaVuSans-4a"/>
       <use xlink:href="#DejaVuSans-61" transform="translate(29.492188 0)"/>
       <use xlink:href="#DejaVuSans-6e" transform="translate(90.771484 0)"/>
       <use xlink:href="#DejaVuSans-20" transform="translate(154.150391 0)"/>
       <use xlink:href="#DejaVuSans-30" transform="translate(185.9375 0)"/>
       <use xlink:href="#DejaVuSans-31" transform="translate(249.560547 0)"/>
      </g>
     </g>
    </g>
    <g id="xtick_2">
     <g id="line2d_2">
      <g>
       <use xlink:href="#mfabb08ca87" x="198.958517" y="401.153582" style="fill: #5f6f86; stroke: #5f6f86; stroke-width: 0.8"/>
      </g>
     </g>
     <g id="text_2">
      <!-- Jan 02 -->
      <g style="fill: #5f6f86" transform="translate(181.733204 416.511864) scale(0.11 -0.11)">
       <defs>
        <path id="DejaVuSans-32" d="M 1228 531 
L 3431 531 
L 3431 0 
L 469 0 
L 469 531 
Q 828 903 1448 1529 
Q 2069 2156 2228 2338 
Q 2531 2678 2651 2914 
Q 2772 3150 2772 3378 
Q 2772 3750 2511 3984 
Q 2250 4219 1831 4219 
Q 1534 4219 1204 4116 
Q 875 4013 500 3803 
L 500 4441 
Q 881 4594 1212 4672 
Q 1544 4750 1819 4750 
Q 2544 4750 2975 4387 
Q 3406 4025 3406 3419 
Q 3406 3131 3298 2873 
Q 3191 2616 2906 2266 
Q 2828 2175 2409 1742 
Q 1991 1309 1228 531 
z
" transform="scale(0.015625)"/>
       </defs>
       <use xlink:href="#DejaVuSans-4a"/>
       <use xlink:href="#DejaVuSans-61" transform="translate(29.492188 0)"/>
       <use xlink:href="#DejaVuSans-6e" transform="translate(90.771484 0)"/>
       <use xlink:href="#DejaVuSans-20" transform="translate(154.150391 0)"/>
       <use xlink:href="#DejaVuSans-30" transform="translate(185.9375 0)"/>
       <use xlink:href="#DejaVuSans-32" transform="translate(249.560547 0)"/>
      </g>
     </g>
    </g>
    <g id="xtick_3">
     <g id="line2d_3">
      <g>
       <use xlink:href="#mfabb08ca87" x="279.560067" y="401.153582" style="fill: #5f6f86; stroke: #5f6f86; stroke-width: 0.8"/>
      </g>
     </g>
     <g id="text_3">
      <!-- Jan 03 -->
      <g style="fill: #5f6f86" transform="translate(262.334754 416.511864) scale(0.11 -0.11)">
       <defs>
        <path id="DejaVuSans-33" d="M 2597 2516 
Q 3050 2419 3304 2112 
Q 3559 1806 3559 1356 
Q 3559 666 3084 287 
Q 2609 -91 1734 -91 
Q 1441 -91 1130 -33 
Q 819 25 488 141 
L 488 750 
Q 750 597 1062 519 
Q 1375 441 1716 441 
Q 2309 441 2620 675 
Q 2931 909 2931 1356 
Q 2931 1769 2642 2001 
Q 2353 2234 1838 2234 
L 1294 2234 
L 1294 2753 
L 1863 2753 
Q 2328 2753 2575 2939 
Q 2822 3125 2822 3475 
Q 2822 3834 2567 4026 
Q 2313 4219 1838 4219 
Q 1578 4219 1281 4162 
Q 984 4106 628 3988 
L 628 4550 
Q 988 4650 1302 4700 
Q 1616 4750 1894 4750 
Q 2613 4750 3031 4423 
Q 3450 4097 3450 3541 
Q 3450 3153 3228 2886 
Q 3006 2619 2597 2516 
z
" transform="scale(0.015625)"/>
       </defs>
       <use xlink:href="#DejaVuSans-4a"/>
       <use xlink:href="#DejaVuSans-61" transform="translate(29.492188 0)"/>
       <use xlink:href="#DejaVuSans-6e" transform="translate(90.771484 0)"/>
       <use xlink:href="#DejaVuSans-20" transform="translate(154.150391 0)"/>
       <use xlink:href="#DejaVuSans-30" transform="translate(185.9375 0)"/>
       <use xlink:href="#DejaVuSans-33" transform="translate(249.560547 0)"/>
      </g>
     </g>
    </g>
    <g id="xtick_4">
     <g id="line2d_4">
      <g>
       <use xlink:href="#mfabb08ca87" x="360.161616" y="401.153582" style="fill: #5f6f86; stroke: #5f6f86; stroke-width: 0.8"/>
      </g>
     </g>
     <g id="text_4">
      <!-- Jan 04 -->
      <g style="fill: #5f6f86" transform="translate(342.936304 416.511864) scale(0.11 -0.11)">
       <defs>
        <path id="DejaVuSans-34" d="M 2419 4116 
L 825 1625 
L 2419 1625 
L 2419 4116 
z
M 2253 4666 
L 3047 4666 
L 3047 1625 
L 3713 1625 
L 3713 1100 
L 3047 1100 
L 3047 0 
L 2419 0 
L 2419 1100 
L 313 1100 
L 313 1709 
L 2253 4666 
z
" transform="scale(0.015625)"/>
       </defs>
       <use xlink:href="#DejaVuSans-4a"/>
       <use xlink:href="#DejaVuSans-61" transform="translate(29.492188 0)"/>
       <use xlink:href="#DejaVuSans-6e" transform="translate(90.771484 0)"/>
       <use xlink:href="#DejaVuSans-20" transform="translate(154.150391 0)"/>
       <use xlink:href="#DejaVuSans-30" transform="translate(185.9375 0)"/>
       <use xlink:href="#DejaVuSans-34" transform="translate(249.560547 0)"/>
      </g>
     </g>
    </g>
    <g id="xtick_5">
     <g id="line2d_5">
      <g>
       <use xlink:href="#mfabb08ca87" x="440.763166" y="401.153582" style="fill: #5f6f86; stroke: #5f6f86; stroke-width: 0.8"/>
      </g>
     </g>
     <g id="text_5">
      <!-- Jan 05 -->
      <g style="fill: #5f6f86" transform="translate(423.537854 416.511864) scale(0.11 -0.11)">
       <defs>
        <path id="DejaVuSans-35" d="M 691 4666 
L 3169 4666 
L 3169 4134 
L 1269 4134 
L 1269 2991 
Q 1406 3038 1543 3061 
Q 1681 3084 1819 3084 
Q 2600 3084 3056 2656 
Q 3513 2228 3513 1497 
Q 3513 744 3044 326 
Q 2575 -91 1722 -91 
Q 1428 -91 1123 -41 
Q 819 9 494 109 
L 494 744 
Q 775 591 1075 516 
Q 1375 441 1709 441 
Q 2250 441 2565 725 
Q 2881 1009 2881 1497 
Q 2881 1984 2565 2268 
Q 2250 2553 1709 2553 
Q 1456 2553 1204 2497 
Q 953 2441 691 2322 
L 691 4666 
z
" transform="scale(0.015625)"/>
       </defs>
       <use xlink:href="#DejaVuSans-4a"/>
       <use xlink:href="#DejaVuSans-61" transform="translate(29.492188 0)"/>
       <use xlink:href="#DejaVuSans-6e" transform="translate(90.771484 0)"/>
       <use xlink:href="#DejaVuSans-20" transform="translate(154.150391 0)"/>
       <use xlink:href="#DejaVuSans-30" transform="translate(185.9375 0)"/>
       <use xlink:href="#DejaVuSans-35" transform="translate(249.560547 0)"/>
      </g>
     </g>
    </g>
    <g id="xtick_6">
     <g id="line2d_6">
      <g>
       <use xlink:href="#mfabb08ca87" x="521.364716" y="401.153582" style="fill: #5f6f86; stroke: #5f6f86; stroke-width: 0.8"/>
      </g>
     </g>
     <g id="text_6">
      <!-- Jan 06 -->
      <g style="fill: #5f6f86" transform="translate(504.139404 416.511864) scale(0.11 -0.11)">
       <defs>
        <path id="DejaVuSans-36" d="M 2113 2584 
Q 1688 2584 1439 2293 
Q 1191 2003 1191 1497 
Q 1191 994 1439 701 
Q 1688 409 2113 409 
Q 2538 409 2786 701 
Q 3034 994 3034 1497 
Q 3034 2003 2786 2293 
Q 2538 2584 2113 2584 
z
M 3366 4563 
L 3366 3988 
Q 3128 4100 2886 4159 
Q 2644 4219 2406 4219 
Q 1781 4219 1451 3797 
Q 1122 3375 1075 2522 
Q 1259 2794 1537 2939 
Q 1816 3084 2150 3084 
Q 2853 3084 3261 2657 
Q 3669 2231 3669 1497 
Q 3669 778 3244 343 
Q 2819 -91 2113 -91 
Q 1303 -91 875 529 
Q 447 1150 447 2328 
Q 447 3434 972 4092 
Q 1497 4750 2381 4750 
Q 2619 4750 2861 4703 
Q 3103 4656 3366 4563 
z
" transform="scale(0.015625)"/>
       </defs>
       <use xlink:href="#DejaVuSans-4a"/>
       <use xlink:href="#DejaVuSans-61" transform="translate(29.492188 0)"/>
       <use xlink:href="#DejaVuSans-6e" transform="translate(90.771484 0)"/>
       <use xlink:href="#DejaVuSans-20" transform="translate(154.150391 0)"/>
       <use xlink:href="#DejaVuSans-30" transform="translate(185.9375 0)"/>
       <use xlink:href="#DejaVuSans-36" transform="translate(249.560547 0)"/>
      </g>
     </g>
    </g>
    <g id="xtick_7">
     <g id="line2d_7">
      <g>
       <use xlink:href="#mfabb08ca87" x="601.966266" y="401.153582" style="fill: #5f6f86; stroke: #5f6f86; stroke-width: 0.8"/>
      </g>
     </g>
     <g id="text_7">
      <!-- Jan 07 -->
      <g style="fill: #5f6f86" transform="translate(584.740954 416.511864) scale(0.11 -0.11)">
       <defs>
        <path id="DejaVuSans-37" d="M 525 4666 
L 3525 4666 
L 3525 4397 
L 1831 0 
L 1172 0 
L 2766 4134 
L 525 4134 
L 525 4666 
z
" transform="scale(0.015625)"/>
       </defs>
       <use xlink:href="#DejaVuSans-4a"/>
       <use xlink:href="#DejaVuSans-61" transform="translate(29.492188 0)"/>
       <use xlink:href="#DejaVuSans-6e" transform="translate(90.771484 0)"/>
       <use xlink:href="#DejaVuSans-20" transform="translate(154.150391 0)"/>
       <use xlink:href="#DejaVuSans-30" transform="translate(185.9375 0)"/>
       <use xlink:href="#DejaVuSans-37" transform="translate(249.560547 0)"/>
      </g>
     </g>
    </g>
    <g id="xtick_8">
     <g id="line2d_8">
      <g>
       <use xlink:href="#mfabb08ca87" x="682.567816" y="401.153582" style="fill: #5f6f86; stroke: #5f6f86; stroke-width: 0.8"/>
      </g>
     </g>
     <g id="text_8">
      <!-- Jan 08 -->
      <g style="fill: #5f6f86" transform="translate(665.342503 416.511864) scale(0.11 -0.11)">
       <defs>
        <path id="DejaVuSans-38" d="M 2034 2216 
Q 1584 2216 1326 1975 
Q 1069 1734 1069 1313 
Q 1069 891 1326 650 
Q 1584 409 2034 409 
Q 2484 409 2743 651 
Q 3003 894 3003 1313 
Q 3003 1734 2745 1975 
Q 2488 2216 2034 2216 
z
M 1403 2484 
Q 997 2584 770 2862 
Q 544 3141 544 3541 
Q 544 4100 942 4425 
Q 1341 4750 2034 4750 
Q 2731 4750 3128 4425 
Q 3525 4100 3525 3541 
Q 3525 3141 3298 2862 
Q 3072 2584 2669 2484 
Q 3125 2378 3379 2068 
Q 3634 1759 3634 1313 
Q 3634 634 3220 271 
Q 2806 -91 2034 -91 
Q 1263 -91 848 271 
Q 434 634 434 1313 
Q 434 1759 690 2068 
Q 947 2378 1403 2484 
z
M 1172 3481 
Q 1172 3119 1398 2916 
Q 1625 2713 2034 2713 
Q 2441 2713 2670 2916 
Q 2900 3119 2900 3481 
Q 2900 3844 2670 4047 
Q 2441 4250 2034 4250 
Q 1625 4250 1398 4047 
Q 1172 3844 1172 3481 
z
" transform="scale(0.015625)"/>
       </defs>
       <use xlink:href="#DejaVuSans-4a"/>
       <use xlink:href="#DejaVuSans-61" transform="translate(29.492188 0)"/>
       <use xlink:href="#DejaVuSans-6e" transform="translate(90.771484 0)"/>
       <use xlink:href="#DejaVuSans-20" transform="translate(154.150391 0)"/>
       <use xlink:href="#DejaVuSans-30" transform="translate(185.9375 0)"/>
       <use xlink:href="#DejaVuSans-38" transform="translate(249.560547 0)"/>
      </g>
     </g>
    </g>
    <g id="xtick_9">
     <g id="line2d_9">
      <g>
       <use xlink:href="#mfabb08ca87" x="763.169366" y="401.153582" style="fill: #5f6f86; stroke: #5f6f86; stroke-width: 0.8"/>
      </g>
     </g>
     <g id="text_9">
      <!-- Jan 09 -->
      <g style="fill: #5f6f86" transform="translate(745.944053 416.511864) scale(0.11 -0.11)">
       <defs>
        <path id="DejaVuSans-39" d="M 703 97 
L 703 672 
Q 941 559 1184 500 
Q 1428 441 1663 441 
Q 2288 441 2617 861 
Q 2947 1281 2994 2138 
Q 2813 1869 2534 1725 
Q 2256 1581 1919 1581 
Q 1219 1581 811 2004 
Q 403 2428 403 3163 
Q 403 3881 828 4315 
Q 1253 4750 1959 4750 
Q 2769 4750 3195 4129 
Q 3622 3509 3622 2328 
Q 3622 1225 3098 567 
Q 2575 -91 1691 -91 
Q 1453 -91 1209 -44 
Q 966 3 703 97 
z
M 1959 2075 
Q 2384 2075 2632 2365 
Q 2881 2656 2881 3163 
Q 2881 3666 2632 3958 
Q 2384 4250 1959 4250 
Q 1534 4250 1286 3958 
Q 1038 3666 1038 3163 
Q 1038 2656 1286 2365 
Q 1534 2075 1959 2075 
z
" transform="scale(0.015625)"/>
       </defs>
       <use xlink:href="#DejaVuSans-4a"/>
       <use xlink:href="#DejaVuSans-61" transform="translate(29.492188 0)"/>
       <use xlink:href="#DejaVuSans-6e" transform="translate(90.771484 0)"/>
       <use xlink:href="#DejaVuSans-20" transform="translate(154.150391 0)"/>
       <use xlink:href="#DejaVuSans-30" transform="translate(185.9375 0)"/>
       <use xlink:href="#DejaVuSans-39" transform="translate(249.560547 0)"/>
      </g>
     </g>
    </g>
    <g id="xtick_10">
     <g id="line2d_10">
      <g>
       <use xlink:href="#mfabb08ca87" x="843.770916" y="401.153582" style="fill: #5f6f86; stroke: #5f6f86; stroke-width: 0.8"/>
      </g>
     </g>
     <g id="text_10">
      <!-- Jan 10 -->
      <g style="fill: #5f6f86" transform="translate(826.545603 416.511864) scale(0.11 -0.11)">
       <use xlink:href="#DejaVuSans-4a"/>
       <use xlink:href="#DejaVuSans-61" transform="translate(29.492188 0)"/>
       <use xlink:href="#DejaVuSans-6e" transform="translate(90.771484 0)"/>
       <use xlink:href="#DejaVuSans-20" transform="translate(154.150391 0)"/>
       <use xlink:href="#DejaVuSans-31" transform="translate(185.9375 0)"/>
       <use xlink:href="#DejaVuSans-30" transform="translate(249.560547 0)"/>
      </g>
     </g>
    </g>
   </g>
   <g id="matplotlib.axis_2">
    <g id="ytick_1">
     <g id="line2d_11">
      <path d="M 81.07875 355.425665 
L 901.19952 355.425665 
" clip-path="url(#pd21a2b45af)" style="fill: none; stroke: #d8deea; stroke-opacity: 0.7; stroke-width: 0.8; stroke-linecap: square"/>
     </g>
     <g id="line2d_12">
      <defs>
       <path id="m3eb660d93d" d="M 0 0 
L -3.5 0 
" style="stroke: #5f6f86; stroke-width: 0.8"/>
      </defs>
      <g>
       <use xlink:href="#m3eb660d93d" x="81.07875" y="355.425665" style="fill: #5f6f86; stroke: #5f6f86; stroke-width: 0.8"/>
      </g>
     </g>
     <g id="text_11">
      <!-- 750 kW -->
      <g style="fill: #5f6f86" transform="translate(32.340625 359.604806) scale(0.11 -0.11)">
       <defs>
        <path id="DejaVuSans-6b" d="M 581 4863 
L 1159 4863 
L 1159 1991 
L 2875 3500 
L 3609 3500 
L 1753 1863 
L 3688 0 
L 2938 0 
L 1159 1709 
L 1159 0 
L 581 0 
L 581 4863 
z
" transform="scale(0.015625)"/>
        <path id="DejaVuSans-57" d="M 213 4666 
L 850 4666 
L 1831 722 
L 2809 4666 
L 3519 4666 
L 4500 722 
L 5478 4666 
L 6119 4666 
L 4947 0 
L 4153 0 
L 3169 4050 
L 2175 0 
L 1381 0 
L 213 4666 
z
" transform="scale(0.015625)"/>
       </defs>
       <use xlink:href="#DejaVuSans-37"/>
       <use xlink:href="#DejaVuSans-35" transform="translate(63.623047 0)"/>
       <use xlink:href="#DejaVuSans-30" transform="translate(127.246094 0)"/>
       <use xlink:href="#DejaVuSans-20" transform="translate(190.869141 0)"/>
       <use xlink:href="#DejaVuSans-6b" transform="translate(222.65625 0)"/>
       <use xlink:href="#DejaVuSans-57" transform="translate(280.566406 0)"/>
      </g>
     </g>
    </g>
    <g id="ytick_2">
     <g id="line2d_13">
      <path d="M 81.07875 309.327998 
L 901.19952 309.327998 
" clip-path="url(#pd21a2b45af)" style="fill: none; stroke: #d8deea; stroke-opacity: 0.7; stroke-width: 0.8; stroke-linecap: square"/>
     </g>
     <g id="line2d_14">
      <g>
       <use xlink:href="#m3eb660d93d" x="81.07875" y="309.327998" style="fill: #5f6f86; stroke: #5f6f86; stroke-width: 0.8"/>
      </g>
     </g>
     <g id="text_12">
      <!-- 800 kW -->
      <g style="fill: #5f6f86" transform="translate(32.340625 313.507139) scale(0.11 -0.11)">
       <use xlink:href="#DejaVuSans-38"/>
       <use xlink:href="#DejaVuSans-30" transform="translate(63.623047 0)"/>
       <use xlink:href="#DejaVuSans-30" transform="translate(127.246094 0)"/>
       <use xlink:href="#DejaVuSans-20" transform="translate(190.869141 0)"/>
       <use xlink:href="#DejaVuSans-6b" transform="translate(222.65625 0)"/>
       <use xlink:href="#DejaVuSans-57" transform="translate(280.566406 0)"/>
      </g>
     </g>
    </g>
    <g id="ytick_3">
     <g id="line2d_15">
      <path d="M 81.07875 263.230331 
L 901.19952 263.230331 
" clip-path="url(#pd21a2b45af)" style="fill: none; stroke: #d8deea; stroke-opacity: 0.7; stroke-width: 0.8; stroke-linecap: square"/>
     </g>
     <g id="line2d_16">
      <g>
       <use xlink:href="#m3eb660d93d" x="81.07875" y="263.230331" style="fill: #5f6f86; stroke: #5f6f86; stroke-width: 0.8"/>
      </g>
     </g>
     <g id="text_13">
      <!-- 850 kW -->
      <g style="fill: #5f6f86" transform="translate(32.340625 267.409472) scale(0.11 -0.11)">
       <use xlink:href="#DejaVuSans-38"/>
       <use xlink:href="#DejaVuSans-35" transform="translate(63.623047 0)"/>
       <use xlink:href="#DejaVuSans-30" transform="translate(127.246094 0)"/>
       <use xlink:href="#DejaVuSans-20" transform="translate(190.869141 0)"/>
       <use xlink:href="#DejaVuSans-6b" transform="translate(222.65625 0)"/>
       <use xlink:href="#DejaVuSans-57" transform="translate(280.566406 0)"/>
      </g>
     </g>
    </g>
    <g id="ytick_4">
     <g id="line2d_17">
      <path d="M 81.07875 217.132664 
L 901.19952 217.132664 
" clip-path="url(#pd21a2b45af)" style="fill: none; stroke: #d8deea; stroke-opacity: 0.7; stroke-width: 0.8; stroke-linecap: square"/>
     </g>
     <g id="line2d_18">
      <g>
       <use xlink:href="#m3eb660d93d" x="81.07875" y="217.132664" style="fill: #5f6f86; stroke: #5f6f86; stroke-width: 0.8"/>
      </g>
     </g>
     <g id="text_14">
      <!-- 900 kW -->
      <g style="fill: #5f6f86" transform="translate(32.340625 221.311805) scale(0.11 -0.11)">
       <use xlink:href="#DejaVuSans-39"/>
       <use xlink:href="#DejaVuSans-30" transform="translate(63.623047 0)"/>
       <use xlink:href="#DejaVuSans-30" transform="translate(127.246094 0)"/>
       <use xlink:href="#DejaVuSans-20" transform="translate(190.869141 0)"/>
       <use xlink:href="#DejaVuSans-6b" transform="translate(222.65625 0)"/>
       <use xlink:href="#DejaVuSans-57" transform="translate(280.566406 0)"/>
      </g>
     </g>
    </g>
    <g id="ytick_5">
     <g id="line2d_19">
      <path d="M 81.07875 171.034997 
L 901.19952 171.034997 
" clip-path="url(#pd21a2b45af)" style="fill: none; stroke: #d8deea; stroke-opacity: 0.7; stroke-width: 0.8; stroke-linecap: square"/>
     </g>
     <g id="line2d_20">
      <g>
       <use xlink:href="#m3eb660d93d" x="81.07875" y="171.034997" style="fill: #5f6f86; stroke: #5f6f86; stroke-width: 0.8"/>
      </g>
     </g>
     <g id="text_15">
      <!-- 950 kW -->
      <g style="fill: #5f6f86" transform="translate(32.340625 175.214138) scale(0.11 -0.11)">
       <use xlink:href="#DejaVuSans-39"/>
       <use xlink:href="#DejaVuSans-35" transform="translate(63.623047 0)"/>
       <use xlink:href="#DejaVuSans-30" transform="translate(127.246094 0)"/>
       <use xlink:href="#DejaVuSans-20" transform="translate(190.869141 0)"/>
       <use xlink:href="#DejaVuSans-6b" transform="translate(222.65625 0)"/>
       <use xlink:href="#DejaVuSans-57" transform="translate(280.566406 0)"/>
      </g>
     </g>
    </g>
    <g id="ytick_6">
     <g id="line2d_21">
      <path d="M 81.07875 124.93733 
L 901.19952 124.93733 
" clip-path="url(#pd21a2b45af)" style="fill: none; stroke: #d8deea; stroke-opacity: 0.7; stroke-width: 0.8; stroke-linecap: square"/>
     </g>
     <g id="line2d_22">
      <g>
       <use xlink:href="#m3eb660d93d" x="81.07875" y="124.93733" style="fill: #5f6f86; stroke: #5f6f86; stroke-width: 0.8"/>
      </g>
     </g>
     <g id="text_16">
      <!-- 1,000 kW -->
      <g style="fill: #5f6f86" transform="translate(21.845937 129.116471) scale(0.11 -0.11)">
       <defs>
        <path id="DejaVuSans-2c" d="M 750 794 
L 1409 794 
L 1409 256 
L 897 -744 
L 494 -744 
L 750 256 
L 750 794 
z
" transform="scale(0.015625)"/>
       </defs>
       <use xlink:href="#DejaVuSans-31"/>
       <use xlink:href="#DejaVuSans-2c" transform="translate(63.623047 0)"/>
       <use xlink:href="#DejaVuSans-30" transform="translate(95.410156 0)"/>
       <use xlink:href="#DejaVuSans-30" transform="translate(159.033203 0)"/>
       <use xlink:href="#DejaVuSans-30" transform="translate(222.65625 0)"/>
       <use xlink:href="#DejaVuSans-20" transform="translate(286.279297 0)"/>
       <use xlink:href="#DejaVuSans-6b" transform="translate(318.066406 0)"/>
       <use xlink:href="#DejaVuSans-57" transform="translate(375.976562 0)"/>
      </g>
     </g>
    </g>
    <g id="ytick_7">
     <g id="line2d_23">
      <path d="M 81.07875 78.839663 
L 901.19952 78.839663 
" clip-path="url(#pd21a2b45af)" style="fill: none; stroke: #d8deea; stroke-opacity: 0.7; stroke-width: 0.8; stroke-linecap: square"/>
     </g>
     <g id="line2d_24">
      <g>
       <use xlink:href="#m3eb660d93d" x="81.07875" y="78.839663" style="fill: #5f6f86; stroke: #5f6f86; stroke-width: 0.8"/>
      </g>
     </g>
     <g id="text_17">
      <!-- 1,050 kW -->
      <g style="fill: #5f6f86" transform="translate(21.845937 83.018804) scale(0.11 -0.11)">
       <use xlink:href="#DejaVuSans-31"/>
       <use xlink:href="#DejaVuSans-2c" transform="translate(63.623047 0)"/>
       <use xlink:href="#DejaVuSans-30" transform="translate(95.410156 0)"/>
       <use xlink:href="#DejaVuSans-35" transform="translate(159.033203 0)"/>
       <use xlink:href="#DejaVuSans-30" transform="translate(222.65625 0)"/>
       <use xlink:href="#DejaVuSans-20" transform="translate(286.279297 0)"/>
       <use xlink:href="#DejaVuSans-6b" transform="translate(318.066406 0)"/>
       <use xlink:href="#DejaVuSans-57" transform="translate(375.976562 0)"/>
      </g>
     </g>
    </g>
    <g id="text_18">
     <!-- Aggregate reefer load -->
     <g style="fill: #10243f" transform="translate(15.558281 278.04351) rotate(-90) scale(0.11 -0.11)">
      <defs>
       <path id="DejaVuSans-41" d="M 2188 4044 
L 1331 1722 
L 3047 1722 
L 2188 4044 
z
M 1831 4666 
L 2547 4666 
L 4325 0 
L 3669 0 
L 3244 1197 
L 1141 1197 
L 716 0 
L 50 0 
L 1831 4666 
z
" transform="scale(0.015625)"/>
       <path id="DejaVuSans-67" d="M 2906 1791 
Q 2906 2416 2648 2759 
Q 2391 3103 1925 3103 
Q 1463 3103 1205 2759 
Q 947 2416 947 1791 
Q 947 1169 1205 825 
Q 1463 481 1925 481 
Q 2391 481 2648 825 
Q 2906 1169 2906 1791 
z
M 3481 434 
Q 3481 -459 3084 -895 
Q 2688 -1331 1869 -1331 
Q 1566 -1331 1297 -1286 
Q 1028 -1241 775 -1147 
L 775 -588 
Q 1028 -725 1275 -790 
Q 1522 -856 1778 -856 
Q 2344 -856 2625 -561 
Q 2906 -266 2906 331 
L 2906 616 
Q 2728 306 2450 153 
Q 2172 0 1784 0 
Q 1141 0 747 490 
Q 353 981 353 1791 
Q 353 2603 747 3093 
Q 1141 3584 1784 3584 
Q 2172 3584 2450 3431 
Q 2728 3278 2906 2969 
L 2906 3500 
L 3481 3500 
L 3481 434 
z
" transform="scale(0.015625)"/>
       <path id="DejaVuSans-72" d="M 2631 2963 
Q 2534 3019 2420 3045 
Q 2306 3072 2169 3072 
Q 1681 3072 1420 2755 
Q 1159 2438 1159 1844 
L 1159 0 
L 581 0 
L 581 3500 
L 1159 3500 
L 1159 2956 
Q 1341 3275 1631 3429 
Q 1922 3584 2338 3584 
Q 2397 3584 2469 3576 
Q 2541 3569 2628 3553 
L 2631 2963 
z
" transform="scale(0.015625)"/>
       <path id="DejaVuSans-65" d="M 3597 1894 
L 3597 1613 
L 953 1613 
Q 991 1019 1311 708 
Q 1631 397 2203 397 
Q 2534 397 2845 478 
Q 3156 559 3463 722 
L 3463 178 
Q 3153 47 2828 -22 
Q 2503 -91 2169 -91 
Q 1331 -91 842 396 
Q 353 884 353 1716 
Q 353 2575 817 3079 
Q 1281 3584 2069 3584 
Q 2775 3584 3186 3129 
Q 3597 2675 3597 1894 
z
M 3022 2063 
Q 3016 2534 2758 2815 
Q 2500 3097 2075 3097 
Q 1594 3097 1305 2825 
Q 1016 2553 972 2059 
L 3022 2063 
z
" transform="scale(0.015625)"/>
       <path id="DejaVuSans-74" d="M 1172 4494 
L 1172 3500 
L 2356 3500 
L 2356 3053 
L 1172 3053 
L 1172 1153 
Q 1172 725 1289 603 
Q 1406 481 1766 481 
L 2356 481 
L 2356 0 
L 1766 0 
Q 1100 0 847 248 
Q 594 497 594 1153 
L 594 3053 
L 172 3053 
L 172 3500 
L 594 3500 
L 594 4494 
L 1172 4494 
z
" transform="scale(0.015625)"/>
       <path id="DejaVuSans-66" d="M 2375 4863 
L 2375 4384 
L 1825 4384 
Q 1516 4384 1395 4259 
Q 1275 4134 1275 3809 
L 1275 3500 
L 2222 3500 
L 2222 3053 
L 1275 3053 
L 1275 0 
L 697 0 
L 697 3053 
L 147 3053 
L 147 3500 
L 697 3500 
L 697 3744 
Q 697 4328 969 4595 
Q 1241 4863 1831 4863 
L 2375 4863 
z
" transform="scale(0.015625)"/>
       <path id="DejaVuSans-6c" d="M 603 4863 
L 1178 4863 
L 1178 0 
L 603 0 
L 603 4863 
z
" transform="scale(0.015625)"/>
       <path id="DejaVuSans-6f" d="M 1959 3097 
Q 1497 3097 1228 2736 
Q 959 2375 959 1747 
Q 959 1119 1226 758 
Q 1494 397 1959 397 
Q 2419 397 2687 759 
Q 2956 1122 2956 1747 
Q 2956 2369 2687 2733 
Q 2419 3097 1959 3097 
z
M 1959 3584 
Q 2709 3584 3137 3096 
Q 3566 2609 3566 1747 
Q 3566 888 3137 398 
Q 2709 -91 1959 -91 
Q 1206 -91 779 398 
Q 353 888 353 1747 
Q 353 2609 779 3096 
Q 1206 3584 1959 3584 
z
" transform="scale(0.015625)"/>
       <path id="DejaVuSans-64" d="M 2906 2969 
L 2906 4863 
L 3481 4863 
L 3481 0 
L 2906 0 
L 2906 525 
Q 2725 213 2448 61 
Q 2172 -91 1784 -91 
Q 1150 -91 751 415 
Q 353 922 353 1747 
Q 353 2572 751 3078 
Q 1150 3584 1784 3584 
Q 2172 3584 2448 3432 
Q 2725 3281 2906 2969 
z
M 947 1747 
Q 947 1113 1208 752 
Q 1469 391 1925 391 
Q 2381 391 2643 752 
Q 2906 1113 2906 1747 
Q 2906 2381 2643 2742 
Q 2381 3103 1925 3103 
Q 1469 3103 1208 2742 
Q 947 2381 947 1747 
z
" transform="scale(0.015625)"/>
      </defs>
      <use xlink:href="#DejaVuSans-41"/>
      <use xlink:href="#DejaVuSans-67" transform="translate(68.408203 0)"/>
      <use xlink:href="#DejaVuSans-67" transform="translate(131.884766 0)"/>
      <use xlink:href="#DejaVuSans-72" transform="translate(195.361328 0)"/>
      <use xlink:href="#DejaVuSans-65" transform="translate(234.224609 0)"/>
      <use xlink:href="#DejaVuSans-67" transform="translate(295.748047 0)"/>
      <use xlink:href="#DejaVuSans-61" transform="translate(359.224609 0)"/>
      <use xlink:href="#DejaVuSans-74" transform="translate(420.503906 0)"/>
      <use xlink:href="#DejaVuSans-65" transform="translate(459.712891 0)"/>
      <use xlink:href="#DejaVuSans-20" transform="translate(521.236328 0)"/>
      <use xlink:href="#DejaVuSans-72" transform="translate(553.023438 0)"/>
      <use xlink:href="#DejaVuSans-65" transform="translate(591.886719 0)"/>
      <use xlink:href="#DejaVuSans-65" transform="translate(653.410156 0)"/>
      <use xlink:href="#DejaVuSans-66" transform="translate(714.933594 0)"/>
      <use xlink:href="#DejaVuSans-65" transform="translate(750.138672 0)"/>
      <use xlink:href="#DejaVuSans-72" transform="translate(811.662109 0)"/>
      <use xlink:href="#DejaVuSans-20" transform="translate(852.775391 0)"/>
      <use xlink:href="#DejaVuSans-6c" transform="translate(884.5625 0)"/>
      <use xlink:href="#DejaVuSans-6f" transform="translate(912.345703 0)"/>
      <use xlink:href="#DejaVuSans-61" transform="translate(973.527344 0)"/>
      <use xlink:href="#DejaVuSans-64" transform="translate(1034.806641 0)"/>
     </g>
    </g>
   </g>
   <g id="line2d_25">
    <path d="M 118.356967 177.19449 
L 121.715365 189.669061 
L 125.073763 190.032421 
L 128.432161 184.602414 
L 131.790558 181.642489 
L 135.148956 181.619735 
L 138.507354 185.246187 
L 141.865752 172.449607 
L 145.22415 171.992441 
L 148.582548 174.702052 
L 151.940946 179.43016 
L 155.299344 173.32004 
L 158.657742 183.38779 
L 162.01614 183.115449 
L 165.374538 183.938495 
L 168.732935 188.818882 
L 172.091333 186.289656 
L 175.449731 179.181036 
L 182.166527 190.375008 
L 185.524925 182.186434 
L 188.883323 180.394931 
L 192.241721 193.509032 
L 195.600119 186.741861 
L 198.958517 199.657696 
L 202.316915 193.818038 
L 205.675313 186.337019 
L 209.03371 187.878685 
L 212.392108 193.696607 
L 215.750506 208.100262 
L 219.108904 227.221886 
L 222.467302 239.69956 
L 225.8257 216.872318 
L 229.184098 237.135387 
L 232.542496 248.762446 
L 235.900894 265.715556 
L 239.259292 293.598505 
L 242.61769 276.899163 
L 245.976087 293.115983 
L 249.334485 295.046223 
L 252.692883 307.053359 
L 256.051281 240.491596 
L 259.409679 261.059706 
L 262.768077 257.399502 
L 266.126475 254.741945 
L 269.484873 259.383225 
L 272.843271 281.620776 
L 276.201669 287.188543 
L 279.560067 289.264568 
L 282.918464 273.793401 
L 286.276862 270.906384 
L 289.63526 271.916759 
L 292.993658 273.407023 
L 296.352056 270.415228 
L 299.710454 263.463255 
L 303.068852 276.472135 
L 306.42725 274.901353 
L 309.785648 284.248842 
L 313.144046 267.933642 
L 316.502444 255.939403 
L 319.860842 247.691462 
L 323.219239 251.513427 
L 326.577637 259.043298 
L 329.936035 261.794852 
L 333.294433 268.34081 
L 336.652831 276.808932 
L 340.011229 281.343886 
L 343.369627 285.53459 
L 346.728025 273.047307 
L 350.086423 285.469676 
L 353.444821 301.050393 
L 360.161616 300.725827 
L 363.520014 316.101767 
L 366.878412 320.526152 
L 370.23681 301.905487 
L 373.595208 297.808538 
L 376.953606 302.588628 
L 380.312004 303.133048 
L 383.670402 295.710353 
L 387.0288 292.843147 
L 390.387198 298.982463 
L 393.745596 293.755937 
L 397.103993 304.419096 
L 400.462391 310.270984 
L 403.820789 286.077705 
L 407.179187 288.158395 
L 410.537585 297.347845 
L 413.895983 292.381716 
L 417.254381 301.083393 
L 420.612779 302.680385 
L 423.971177 299.746114 
L 427.329575 287.019757 
L 430.687973 287.439224 
L 434.046371 290.20629 
L 437.404768 295.863908 
L 440.763166 298.763888 
L 444.121564 292.617816 
L 447.479962 288.433363 
L 450.83836 299.799696 
L 454.196758 295.938441 
L 457.555156 309.234138 
L 460.913554 316.536387 
L 464.271952 313.225111 
L 467.63035 305.563653 
L 470.988748 310.990813 
L 474.347145 305.356437 
L 477.705543 303.758436 
L 481.063941 296.866697 
L 484.422339 298.178 
L 487.780737 295.855464 
L 491.139135 318.255401 
L 494.497533 320.538844 
L 497.855931 318.299596 
L 501.214329 319.41713 
L 504.572727 298.89643 
L 507.931125 293.852193 
L 511.289522 306.662727 
L 514.64792 274.890827 
L 518.006318 230.930823 
L 521.364716 293.336739 
L 524.723114 273.680269 
L 528.081512 272.587026 
L 531.43991 288.894823 
L 534.798308 267.135088 
L 538.156706 268.686147 
L 541.515104 292.760729 
L 544.873502 314.858843 
L 548.231899 306.979985 
L 551.590297 290.483813 
L 554.948695 291.192154 
L 558.307093 270.518746 
L 561.665491 254.77136 
L 565.023889 229.366855 
L 568.382287 267.609417 
L 571.740685 309.975523 
L 575.099083 300.903738 
L 578.457481 321.546411 
L 581.815879 312.980189 
L 585.174277 281.914408 
L 588.532674 255.437022 
L 591.891072 280.310419 
L 595.24947 280.304015 
L 598.607868 295.247535 
L 601.966266 248.55553 
L 605.324664 249.264673 
L 608.683062 246.79683 
L 612.04146 271.878401 
L 615.399858 249.841883 
L 618.758256 276.65046 
L 622.116654 291.020768 
L 625.475051 277.160179 
L 628.833449 285.399275 
L 632.191847 301.041621 
L 635.550245 269.866955 
L 638.908643 282.356473 
L 642.267041 273.516903 
L 645.625439 266.811498 
L 648.983837 268.810689 
L 652.342235 281.23417 
L 655.700633 257.655155 
L 659.059031 245.538802 
L 662.417428 245.65905 
L 665.775826 218.248105 
L 669.134224 224.32147 
L 672.492622 204.31778 
L 675.85102 236.965362 
L 679.209418 214.394631 
L 682.567816 222.489304 
L 685.926214 251.497621 
L 689.284612 254.280363 
L 692.64301 263.723456 
L 696.001408 270.311868 
L 699.359806 262.666137 
L 702.718203 274.375202 
L 709.434999 289.720097 
L 712.793397 253.597365 
L 716.151795 257.236742 
L 719.510193 299.485573 
L 722.868591 260.947021 
L 726.226989 249.104933 
L 729.585387 267.35525 
L 732.943785 259.190022 
L 736.302183 223.418037 
L 739.66058 252.957972 
L 743.018978 258.531484 
L 746.377376 215.969827 
L 749.735774 157.063832 
L 753.094172 171.6355 
L 756.45257 144.949257 
L 759.810968 164.538258 
L 763.169366 128.835499 
L 766.527764 132.734386 
L 769.886162 167.002532 
L 773.24456 169.280563 
L 776.602957 183.690331 
L 779.961355 174.376109 
L 783.319753 185.675178 
L 786.678151 171.719624 
L 790.036549 174.056447 
L 793.394947 149.818888 
L 796.753345 127.456746 
L 800.111743 125.010159 
L 803.470141 143.877666 
L 806.828539 149.72014 
L 810.186937 132.203118 
L 813.545335 148.090488 
L 816.903732 151.227792 
L 820.26213 139.275744 
L 823.620528 142.749868 
L 830.337324 111.464258 
L 833.695722 104.493572 
L 837.05412 103.747439 
L 840.412518 167.092833 
L 843.770916 157.228821 
L 847.129314 117.933737 
L 850.487712 144.53422 
L 853.846109 121.040683 
L 857.204507 98.962298 
L 860.562905 99.602987 
L 863.921303 101.372942 
L 863.921303 101.372942 
" clip-path="url(#pd21a2b45af)" style="fill: none; stroke: #10243f; stroke-width: 2.6; stroke-linecap: square"/>
   </g>
   <g id="line2d_26">
    <path d="M 118.356967 244.503563 
L 121.715365 253.040708 
L 125.073763 252.568265 
L 128.432161 265.786881 
L 131.790558 256.725483 
L 135.148956 249.165547 
L 138.507354 292.012783 
L 141.865752 264.210457 
L 145.22415 220.703079 
L 148.582548 212.524884 
L 151.940946 163.976597 
L 155.299344 152.334082 
L 158.657742 127.758666 
L 162.01614 115.061701 
L 165.374538 92.310842 
L 168.732935 128.267942 
L 172.091333 102.719256 
L 175.449731 116.563644 
L 178.808129 102.164042 
L 182.166527 109.577491 
L 185.524925 101.451701 
L 188.883323 113.961245 
L 192.241721 122.211235 
L 195.600119 137.678601 
L 198.958517 97.533656 
L 202.316915 112.109472 
L 205.675313 123.193575 
L 209.03371 131.786388 
L 212.392108 131.395932 
L 215.750506 130.643617 
L 219.108904 135.598031 
L 222.467302 111.736741 
L 225.8257 107.597119 
L 229.184098 107.622642 
L 232.542496 111.397403 
L 235.900894 98.564237 
L 239.259292 87.974444 
L 242.61769 83.947126 
L 245.976087 73.965186 
L 249.334485 95.481877 
L 252.692883 84.784158 
L 256.051281 85.310191 
L 259.409679 78.818207 
L 262.768077 79.652047 
L 266.126475 72.944751 
L 269.484873 76.847671 
L 272.843271 95.315621 
L 276.201669 100.013173 
L 279.560067 116.699864 
L 282.918464 105.209902 
L 286.276862 105.163153 
L 289.63526 116.503256 
L 292.993658 121.361474 
L 296.352056 133.116527 
L 299.710454 146.938721 
L 303.068852 146.321189 
L 306.42725 116.829257 
L 309.785648 142.748029 
L 313.144046 157.302959 
L 316.502444 174.431476 
L 319.860842 186.557895 
L 323.219239 164.612978 
L 326.577637 181.059543 
L 329.936035 200.028538 
L 333.294433 209.846757 
L 336.652831 148.714009 
L 340.011229 163.513779 
L 343.369627 150.460359 
L 346.728025 147.709517 
L 350.086423 154.028907 
L 353.444821 177.604458 
L 356.803219 187.448889 
L 360.161616 315.870371 
L 363.520014 293.203245 
L 366.878412 295.97767 
L 370.23681 305.626193 
L 373.595208 306.165906 
L 376.953606 301.15918 
L 380.312004 291.684326 
L 383.670402 297.423286 
L 387.0288 297.382992 
L 390.387198 310.816735 
L 393.745596 302.78589 
L 397.103993 293.232457 
L 400.462391 268.756585 
L 403.820789 276.764573 
L 407.179187 278.31988 
L 410.537585 299.833082 
L 413.895983 301.622024 
L 417.254381 318.286741 
L 420.612779 308.455829 
L 423.971177 305.138008 
L 427.329575 291.220693 
L 430.687973 303.202184 
L 434.046371 316.252139 
L 437.404768 320.758761 
L 444.121564 336.386494 
L 447.479962 346.301726 
L 450.83836 336.454965 
L 454.196758 331.254021 
L 457.555156 333.918853 
L 460.913554 331.858904 
L 464.271952 317.132965 
L 467.63035 315.961668 
L 470.988748 326.137119 
L 474.347145 329.44612 
L 477.705543 342.355396 
L 481.063941 331.998229 
L 484.422339 312.460498 
L 487.780737 308.627802 
L 491.139135 336.528783 
L 494.497533 327.103477 
L 497.855931 343.868527 
L 501.214329 331.185996 
L 504.572727 320.79377 
L 507.931125 306.636232 
L 511.289522 306.318616 
L 514.64792 306.34024 
L 518.006318 316.478633 
L 521.364716 356.95925 
L 524.723114 346.180111 
L 528.081512 350.17816 
L 531.43991 370.327297 
L 534.798308 368.752999 
L 538.156706 380.423927 
L 541.515104 384.470117 
L 544.873502 375.464971 
L 548.231899 371.425963 
L 551.590297 378.8602 
L 554.948695 379.728028 
L 558.307093 378.162005 
L 561.665491 353.201411 
L 565.023889 354.308649 
L 568.382287 343.389505 
L 571.740685 380.438837 
L 575.099083 376.126815 
L 578.457481 382.013446 
L 581.815879 368.20779 
L 585.174277 344.3854 
L 588.532674 338.606922 
L 591.891072 348.816197 
L 598.607868 287.78216 
L 601.966266 337.245857 
L 605.324664 313.570512 
L 608.683062 323.320193 
L 612.04146 350.655882 
L 615.399858 333.273664 
L 618.758256 338.988978 
L 622.116654 358.623912 
L 625.475051 369.401203 
L 628.833449 364.772862 
L 632.191847 353.359559 
L 635.550245 360.815323 
L 638.908643 341.094518 
L 642.267041 308.123104 
L 645.625439 286.25376 
L 648.983837 311.29333 
L 652.342235 360.028802 
L 655.700633 341.311259 
L 659.059031 366.539441 
L 662.417428 342.514756 
L 665.775826 307.426573 
L 669.134224 287.890429 
L 672.492622 313.591829 
L 675.85102 309.774663 
L 679.209418 327.366787 
L 682.567816 251.465651 
L 685.926214 256.39168 
L 689.284612 265.588323 
L 692.64301 304.575435 
L 696.001408 283.282173 
L 699.359806 310.899282 
L 702.718203 322.49993 
L 706.076601 302.698295 
L 709.434999 310.882597 
L 712.793397 321.821596 
L 716.151795 290.914728 
L 719.510193 298.329422 
L 722.868591 263.091952 
L 726.226989 252.088592 
L 729.585387 244.891194 
L 732.943785 273.988283 
L 736.302183 240.455169 
L 739.66058 239.432664 
L 743.018978 226.815746 
L 746.377376 190.758172 
L 749.735774 200.144263 
L 753.094172 186.819924 
L 756.45257 225.54862 
L 759.810968 213.506168 
L 763.169366 181.467761 
L 766.527764 210.69039 
L 769.886162 221.68581 
L 773.24456 246.30302 
L 776.602957 252.781465 
L 779.961355 244.689538 
L 783.319753 255.930948 
L 786.678151 252.200811 
L 790.036549 257.47953 
L 793.394947 217.435196 
L 796.753345 225.812915 
L 800.111743 267.475779 
L 803.470141 197.121081 
L 806.828539 187.2364 
L 810.186937 198.553134 
L 813.545335 204.127697 
L 816.903732 158.860947 
L 820.26213 201.242953 
L 823.620528 190.174797 
L 826.978926 138.78868 
L 830.337324 84.183421 
L 833.695722 104.208707 
L 837.05412 80.099227 
L 840.412518 110.707584 
L 843.770916 76.642612 
L 847.129314 78.360937 
L 850.487712 119.419666 
L 853.846109 126.043537 
L 857.204507 139.698576 
L 860.562905 123.412608 
L 863.921303 132.793006 
L 863.921303 132.793006 
" clip-path="url(#pd21a2b45af)" style="fill: none; stroke: #eb6a3e; stroke-width: 1.7; stroke-linecap: square"/>
   </g>
   <g id="line2d_27">
    <path d="M 118.356967 244.503563 
L 121.715365 253.040708 
L 125.073763 252.568265 
L 128.432161 265.786881 
L 131.790558 245.524858 
L 135.148956 233.111571 
L 138.507354 292.012783 
L 145.22415 210.517176 
L 148.582548 199.89865 
L 151.940946 154.001658 
L 155.299344 145.222858 
L 158.657742 139.389092 
L 162.01614 132.026402 
L 165.374538 117.144313 
L 168.732935 144.371158 
L 172.091333 127.808854 
L 175.449731 137.119695 
L 178.808129 130.185101 
L 182.166527 140.667756 
L 185.524925 133.592631 
L 188.883323 141.049983 
L 192.241721 146.439889 
L 195.600119 155.190191 
L 198.958517 139.355594 
L 202.316915 152.828255 
L 205.675313 158.283969 
L 209.03371 159.514801 
L 212.392108 157.775374 
L 215.750506 157.406079 
L 219.108904 161.663313 
L 222.467302 143.610996 
L 225.8257 141.404663 
L 229.184098 142.839333 
L 232.542496 147.1146 
L 235.900894 137.811034 
L 239.259292 138.066451 
L 242.61769 136.010496 
L 245.976087 131.701173 
L 249.334485 144.483805 
L 252.692883 138.074544 
L 256.051281 134.592385 
L 259.409679 134.481271 
L 262.768077 137.781602 
L 266.126475 130.296634 
L 269.484873 131.209982 
L 272.843271 146.867161 
L 276.201669 145.545734 
L 279.560067 160.252725 
L 282.918464 151.729174 
L 286.276862 147.779432 
L 289.63526 153.975356 
L 292.993658 159.337418 
L 296.352056 172.482988 
L 299.710454 189.087382 
L 303.068852 195.344833 
L 306.42725 169.351864 
L 309.785648 192.301392 
L 313.144046 157.302959 
L 316.502444 174.431476 
L 319.860842 256.134292 
L 323.219239 164.612978 
L 326.577637 253.896229 
L 329.936035 261.790033 
L 333.294433 273.031048 
L 336.652831 196.897242 
L 340.011229 163.513779 
L 343.369627 150.460359 
L 346.728025 147.709517 
L 350.086423 154.028907 
L 353.444821 177.604458 
L 356.803219 252.279664 
L 360.161616 298.576599 
L 363.520014 293.203245 
L 366.878412 295.97767 
L 370.23681 305.626193 
L 373.595208 306.165906 
L 376.953606 301.15918 
L 380.312004 291.684326 
L 383.670402 297.423286 
L 387.0288 297.382992 
L 390.387198 293.547604 
L 393.745596 302.78589 
L 397.103993 293.232457 
L 400.462391 268.756585 
L 403.820789 276.764573 
L 407.179187 278.31988 
L 410.537585 299.833082 
L 413.895983 301.622024 
L 417.254381 318.286741 
L 420.612779 308.455829 
L 423.971177 292.395786 
L 427.329575 291.220693 
L 430.687973 291.676054 
L 434.046371 306.371004 
L 437.404768 307.819708 
L 440.763166 310.4955 
L 444.121564 323.201422 
L 447.479962 329.547603 
L 450.83836 313.997804 
L 454.196758 309.514457 
L 457.555156 313.554207 
L 460.913554 313.187098 
L 464.271952 303.208267 
L 467.63035 300.934629 
L 470.988748 308.486592 
L 474.347145 306.247501 
L 477.705543 317.696801 
L 481.063941 317.87552 
L 484.422339 295.311683 
L 487.780737 295.322687 
L 491.139135 311.061174 
L 494.497533 304.534332 
L 497.855931 316.05819 
L 501.214329 312.657349 
L 504.572727 307.112794 
L 507.931125 293.885523 
L 511.289522 294.047011 
L 514.64792 295.853173 
L 518.006318 303.079061 
L 521.364716 319.132264 
L 524.723114 311.364619 
L 528.081512 310.044042 
L 531.43991 324.484356 
L 534.798308 321.423537 
L 538.156706 334.150564 
L 541.515104 340.313192 
L 544.873502 335.009062 
L 548.231899 328.615461 
L 551.590297 334.745098 
L 554.948695 331.386494 
L 558.307093 329.799685 
L 561.665491 316.583847 
L 565.023889 317.823727 
L 568.382287 312.492378 
L 571.740685 340.019604 
L 575.099083 339.994634 
L 578.457481 340.599444 
L 581.815879 336.493861 
L 585.174277 314.81757 
L 588.532674 309.516349 
L 591.891072 321.416441 
L 595.24947 318.382073 
L 598.607868 257.935208 
L 601.966266 308.70493 
L 605.324664 313.570512 
L 608.683062 323.320193 
L 612.04146 310.511194 
L 615.399858 333.273664 
L 618.758256 338.988978 
L 622.116654 315.812843 
L 625.475051 333.948669 
L 628.833449 327.207492 
L 632.191847 312.490324 
L 635.550245 315.560263 
L 638.908643 341.094518 
L 642.267041 308.123104 
L 645.625439 256.388135 
L 648.983837 311.29333 
L 652.342235 327.494171 
L 655.700633 315.046371 
L 659.059031 337.293971 
L 662.417428 323.317288 
L 665.775826 307.426573 
L 669.134224 287.890429 
L 672.492622 313.591829 
L 675.85102 309.774663 
L 679.209418 306.489273 
L 682.567816 251.465651 
L 685.926214 256.39168 
L 689.284612 265.588323 
L 692.64301 304.575435 
L 696.001408 283.282173 
L 699.359806 310.899282 
L 702.718203 302.038475 
L 706.076601 302.698295 
L 709.434999 294.318437 
L 712.793397 308.314613 
L 716.151795 290.914728 
L 719.510193 298.329422 
L 722.868591 263.091952 
L 726.226989 252.088592 
L 729.585387 244.891194 
L 732.943785 273.988283 
L 736.302183 240.455169 
L 739.66058 239.432664 
L 743.018978 226.815746 
L 746.377376 205.190387 
L 749.735774 212.837297 
L 753.094172 196.006298 
L 756.45257 231.54241 
L 759.810968 213.972611 
L 763.169366 203.004071 
L 766.527764 210.69039 
L 769.886162 221.68581 
L 773.24456 246.30302 
L 776.602957 252.781465 
L 779.961355 244.689538 
L 783.319753 255.930948 
L 786.678151 252.200811 
L 790.036549 278.435898 
L 793.394947 217.435196 
L 796.753345 225.812915 
L 800.111743 288.282145 
L 803.470141 197.121081 
L 806.828539 187.2364 
L 810.186937 198.553134 
L 813.545335 204.127697 
L 816.903732 192.753419 
L 820.26213 201.242953 
L 826.978926 179.308782 
L 830.337324 122.445636 
L 833.695722 139.607773 
L 837.05412 114.145493 
L 840.412518 138.968688 
L 843.770916 104.043877 
L 847.129314 106.906998 
L 850.487712 144.400671 
L 853.846109 148.742976 
L 857.204507 162.794247 
L 860.562905 150.168446 
L 863.921303 160.556146 
L 863.921303 160.556146 
" clip-path="url(#pd21a2b45af)" style="fill: none; stroke: #178c82; stroke-width: 2.2; stroke-linecap: square"/>
   </g>
   <g id="line2d_28">
    <path d="M 118.356967 259.833037 
L 121.715365 269.136513 
L 125.073763 257.812627 
L 128.432161 251.811769 
L 135.148956 218.586547 
L 138.507354 256.034041 
L 141.865752 239.257657 
L 145.22415 201.301359 
L 148.582548 188.474913 
L 151.940946 144.976712 
L 155.299344 138.788893 
L 158.657742 149.911858 
L 162.01614 147.375417 
L 165.374538 139.612692 
L 168.732935 158.940734 
L 172.091333 150.508965 
L 175.449731 155.718025 
L 178.808129 155.537487 
L 182.166527 168.797044 
L 185.524925 162.67252 
L 192.241721 168.361051 
L 195.600119 171.03401 
L 198.958517 177.19449 
L 202.316915 189.669061 
L 205.675313 190.032421 
L 209.03371 184.602414 
L 212.392108 181.642489 
L 215.750506 181.619735 
L 219.108904 185.246187 
L 222.467302 172.449607 
L 225.8257 171.992441 
L 229.184098 174.702052 
L 232.542496 179.43016 
L 235.900894 173.32004 
L 239.259292 183.38779 
L 242.61769 183.115449 
L 245.976087 183.938495 
L 249.334485 188.818882 
L 252.692883 186.289656 
L 256.051281 179.181036 
L 262.768077 190.375008 
L 266.126475 182.186434 
L 269.484873 180.394931 
L 272.843271 193.509032 
L 276.201669 186.741861 
L 279.560067 199.657696 
L 282.918464 193.818038 
L 286.276862 186.337019 
L 289.63526 187.878685 
L 292.993658 193.696607 
L 296.352056 208.100262 
L 299.710454 227.221886 
L 303.068852 239.69956 
L 306.42725 216.872318 
L 309.785648 237.135387 
L 313.144046 248.762446 
L 316.502444 265.715556 
L 319.860842 293.598505 
L 323.219239 276.899163 
L 326.577637 293.115983 
L 329.936035 295.046223 
L 333.294433 307.053359 
L 336.652831 240.491596 
L 340.011229 261.059706 
L 343.369627 257.399502 
L 346.728025 254.741945 
L 350.086423 259.383225 
L 353.444821 281.620776 
L 356.803219 287.188543 
L 360.161616 289.264568 
L 363.520014 273.793401 
L 366.878412 270.906384 
L 370.23681 271.916759 
L 373.595208 273.407023 
L 376.953606 270.415228 
L 380.312004 263.463255 
L 383.670402 276.472135 
L 387.0288 274.901353 
L 390.387198 284.248842 
L 393.745596 267.933642 
L 397.103993 255.939403 
L 400.462391 247.691462 
L 403.820789 251.513427 
L 407.179187 259.043298 
L 410.537585 261.794852 
L 413.895983 268.34081 
L 417.254381 276.808932 
L 420.612779 281.343886 
L 423.971177 285.53459 
L 427.329575 273.047307 
L 430.687973 285.469676 
L 434.046371 301.050393 
L 440.763166 300.725827 
L 444.121564 316.101767 
L 447.479962 320.526152 
L 450.83836 301.905487 
L 454.196758 297.808538 
L 457.555156 302.588628 
L 460.913554 303.133048 
L 464.271952 295.710353 
L 467.63035 292.843147 
L 470.988748 298.982463 
L 474.347145 293.755937 
L 477.705543 304.419096 
L 481.063941 310.270984 
L 484.422339 286.077705 
L 487.780737 288.158395 
L 491.139135 297.347845 
L 494.497533 292.381716 
L 497.855931 301.083393 
L 501.214329 302.680385 
L 504.572727 299.746114 
L 507.931125 287.019757 
L 511.289522 287.439224 
L 514.64792 290.20629 
L 518.006318 295.863908 
L 521.364716 298.763888 
L 524.723114 292.617816 
L 528.081512 288.433363 
L 531.43991 299.799696 
L 534.798308 295.938441 
L 538.156706 309.234138 
L 541.515104 316.536387 
L 544.873502 313.225111 
L 548.231899 305.563653 
L 551.590297 310.990813 
L 554.948695 305.356437 
L 558.307093 303.758436 
L 561.665491 296.866697 
L 565.023889 298.178 
L 568.382287 295.855464 
L 571.740685 318.255401 
L 575.099083 320.538844 
L 578.457481 318.299596 
L 581.815879 319.41713 
L 585.174277 298.89643 
L 588.532674 293.852193 
L 591.891072 306.662727 
L 595.24947 274.890827 
L 598.607868 230.930823 
L 601.966266 293.336739 
L 605.324664 273.680269 
L 608.683062 272.587026 
L 612.04146 288.894823 
L 615.399858 267.135088 
L 618.758256 268.686147 
L 622.116654 292.760729 
L 625.475051 314.858843 
L 628.833449 306.979985 
L 632.191847 290.483813 
L 635.550245 291.192154 
L 638.908643 270.518746 
L 642.267041 254.77136 
L 645.625439 229.366855 
L 648.983837 267.609417 
L 652.342235 309.975523 
L 655.700633 300.903738 
L 659.059031 321.546411 
L 662.417428 312.980189 
L 665.775826 281.914408 
L 669.134224 255.437022 
L 672.492622 280.310419 
L 675.85102 280.304015 
L 679.209418 295.247535 
L 682.567816 248.55553 
L 685.926214 249.264673 
L 689.284612 246.79683 
L 692.64301 271.878401 
L 696.001408 249.841883 
L 699.359806 276.65046 
L 702.718203 291.020768 
L 706.076601 277.160179 
L 709.434999 285.399275 
L 712.793397 301.041621 
L 716.151795 269.866955 
L 719.510193 282.356473 
L 722.868591 273.516903 
L 726.226989 266.811498 
L 729.585387 268.810689 
L 732.943785 281.23417 
L 736.302183 257.655155 
L 739.66058 245.538802 
L 743.018978 245.65905 
L 746.377376 218.248105 
L 749.735774 224.32147 
L 753.094172 204.31778 
L 756.45257 236.965362 
L 759.810968 214.394631 
L 763.169366 222.489304 
L 766.527764 251.497621 
L 769.886162 254.280363 
L 773.24456 263.723456 
L 776.602957 270.311868 
L 779.961355 262.666137 
L 783.319753 274.375202 
L 790.036549 289.720097 
L 793.394947 253.597365 
L 796.753345 257.236742 
L 800.111743 299.485573 
L 803.470141 260.947021 
L 806.828539 249.104933 
L 810.186937 267.35525 
L 813.545335 259.190022 
L 816.903732 223.418037 
L 820.26213 252.957972 
L 823.620528 258.531484 
L 826.978926 215.969827 
L 830.337324 157.063832 
L 833.695722 171.6355 
L 837.05412 144.949257 
L 840.412518 164.538258 
L 843.770916 128.835499 
L 847.129314 132.734386 
L 850.487712 167.002532 
L 853.846109 169.280563 
L 857.204507 183.690331 
L 860.562905 174.376109 
L 863.921303 185.675178 
L 863.921303 185.675178 
" clip-path="url(#pd21a2b45af)" style="fill: none; stroke-dasharray: 4.4,3.3; stroke-dashoffset: 0; stroke: #5f6f86; stroke-width: 1.1"/>
   </g>
   <g id="line2d_29">
    <path d="M 81.07875 152.395 
L 901.19952 152.395 
" clip-path="url(#pd21a2b45af)" style="fill: none; stroke-dasharray: 2.4,3.6; stroke-dashoffset: 0; stroke: #b7412e; stroke-width: 1.2"/>
   </g>
   <g id="patch_3">
    <path d="M 81.07875 401.153582 
L 81.07875 34.117344 
" style="fill: none; stroke: #d8deea; stroke-linejoin: miter; stroke-linecap: square"/>
   </g>
   <g id="patch_4">
    <path d="M 81.07875 401.153582 
L 901.19952 401.153582 
" style="fill: none; stroke: #d8deea; stroke-linejoin: miter; stroke-linecap: square"/>
   </g>
   <g id="text_19">
    <!-- January 2026 Public Window: Actual Load, Raw Model, Final Blend, And P90 Band -->
    <g style="fill: #10243f" transform="translate(81.07875 20.117344) scale(0.17 -0.17)">
     <defs>
      <path id="DejaVuSans-75" d="M 544 1381 
L 544 3500 
L 1119 3500 
L 1119 1403 
Q 1119 906 1312 657 
Q 1506 409 1894 409 
Q 2359 409 2629 706 
Q 2900 1003 2900 1516 
L 2900 3500 
L 3475 3500 
L 3475 0 
L 2900 0 
L 2900 538 
Q 2691 219 2414 64 
Q 2138 -91 1772 -91 
Q 1169 -91 856 284 
Q 544 659 544 1381 
z
M 1991 3584 
L 1991 3584 
z
" transform="scale(0.015625)"/>
      <path id="DejaVuSans-79" d="M 2059 -325 
Q 1816 -950 1584 -1140 
Q 1353 -1331 966 -1331 
L 506 -1331 
L 506 -850 
L 844 -850 
Q 1081 -850 1212 -737 
Q 1344 -625 1503 -206 
L 1606 56 
L 191 3500 
L 800 3500 
L 1894 763 
L 2988 3500 
L 3597 3500 
L 2059 -325 
z
" transform="scale(0.015625)"/>
      <path id="DejaVuSans-50" d="M 1259 4147 
L 1259 2394 
L 2053 2394 
Q 2494 2394 2734 2622 
Q 2975 2850 2975 3272 
Q 2975 3691 2734 3919 
Q 2494 4147 2053 4147 
L 1259 4147 
z
M 628 4666 
L 2053 4666 
Q 2838 4666 3239 4311 
Q 3641 3956 3641 3272 
Q 3641 2581 3239 2228 
Q 2838 1875 2053 1875 
L 1259 1875 
L 1259 0 
L 628 0 
L 628 4666 
z
" transform="scale(0.015625)"/>
      <path id="DejaVuSans-62" d="M 3116 1747 
Q 3116 2381 2855 2742 
Q 2594 3103 2138 3103 
Q 1681 3103 1420 2742 
Q 1159 2381 1159 1747 
Q 1159 1113 1420 752 
Q 1681 391 2138 391 
Q 2594 391 2855 752 
Q 3116 1113 3116 1747 
z
M 1159 2969 
Q 1341 3281 1617 3432 
Q 1894 3584 2278 3584 
Q 2916 3584 3314 3078 
Q 3713 2572 3713 1747 
Q 3713 922 3314 415 
Q 2916 -91 2278 -91 
Q 1894 -91 1617 61 
Q 1341 213 1159 525 
L 1159 0 
L 581 0 
L 581 4863 
L 1159 4863 
L 1159 2969 
z
" transform="scale(0.015625)"/>
      <path id="DejaVuSans-69" d="M 603 3500 
L 1178 3500 
L 1178 0 
L 603 0 
L 603 3500 
z
M 603 4863 
L 1178 4863 
L 1178 4134 
L 603 4134 
L 603 4863 
z
" transform="scale(0.015625)"/>
      <path id="DejaVuSans-63" d="M 3122 3366 
L 3122 2828 
Q 2878 2963 2633 3030 
Q 2388 3097 2138 3097 
Q 1578 3097 1268 2742 
Q 959 2388 959 1747 
Q 959 1106 1268 751 
Q 1578 397 2138 397 
Q 2388 397 2633 464 
Q 2878 531 3122 666 
L 3122 134 
Q 2881 22 2623 -34 
Q 2366 -91 2075 -91 
Q 1284 -91 818 406 
Q 353 903 353 1747 
Q 353 2603 823 3093 
Q 1294 3584 2113 3584 
Q 2378 3584 2631 3529 
Q 2884 3475 3122 3366 
z
" transform="scale(0.015625)"/>
      <path id="DejaVuSans-77" d="M 269 3500 
L 844 3500 
L 1563 769 
L 2278 3500 
L 2956 3500 
L 3675 769 
L 4391 3500 
L 4966 3500 
L 4050 0 
L 3372 0 
L 2619 2869 
L 1863 0 
L 1184 0 
L 269 3500 
z
" transform="scale(0.015625)"/>
      <path id="DejaVuSans-3a" d="M 750 794 
L 1409 794 
L 1409 0 
L 750 0 
L 750 794 
z
M 750 3309 
L 1409 3309 
L 1409 2516 
L 750 2516 
L 750 3309 
z
" transform="scale(0.015625)"/>
      <path id="DejaVuSans-4c" d="M 628 4666 
L 1259 4666 
L 1259 531 
L 3531 531 
L 3531 0 
L 628 0 
L 628 4666 
z
" transform="scale(0.015625)"/>
      <path id="DejaVuSans-52" d="M 2841 2188 
Q 3044 2119 3236 1894 
Q 3428 1669 3622 1275 
L 4263 0 
L 3584 0 
L 2988 1197 
Q 2756 1666 2539 1819 
Q 2322 1972 1947 1972 
L 1259 1972 
L 1259 0 
L 628 0 
L 628 4666 
L 2053 4666 
Q 2853 4666 3247 4331 
Q 3641 3997 3641 3322 
Q 3641 2881 3436 2590 
Q 3231 2300 2841 2188 
z
M 1259 4147 
L 1259 2491 
L 2053 2491 
Q 2509 2491 2742 2702 
Q 2975 2913 2975 3322 
Q 2975 3731 2742 3939 
Q 2509 4147 2053 4147 
L 1259 4147 
z
" transform="scale(0.015625)"/>
      <path id="DejaVuSans-4d" d="M 628 4666 
L 1569 4666 
L 2759 1491 
L 3956 4666 
L 4897 4666 
L 4897 0 
L 4281 0 
L 4281 4097 
L 3078 897 
L 2444 897 
L 1241 4097 
L 1241 0 
L 628 0 
L 628 4666 
z
" transform="scale(0.015625)"/>
      <path id="DejaVuSans-46" d="M 628 4666 
L 3309 4666 
L 3309 4134 
L 1259 4134 
L 1259 2759 
L 3109 2759 
L 3109 2228 
L 1259 2228 
L 1259 0 
L 628 0 
L 628 4666 
z
" transform="scale(0.015625)"/>
      <path id="DejaVuSans-42" d="M 1259 2228 
L 1259 519 
L 2272 519 
Q 2781 519 3026 730 
Q 3272 941 3272 1375 
Q 3272 1813 3026 2020 
Q 2781 2228 2272 2228 
L 1259 2228 
z
M 1259 4147 
L 1259 2741 
L 2194 2741 
Q 2656 2741 2882 2914 
Q 3109 3088 3109 3444 
Q 3109 3797 2882 3972 
Q 2656 4147 2194 4147 
L 1259 4147 
z
M 628 4666 
L 2241 4666 
Q 2963 4666 3353 4366 
Q 3744 4066 3744 3513 
Q 3744 3084 3544 2831 
Q 3344 2578 2956 2516 
Q 3422 2416 3680 2098 
Q 3938 1781 3938 1306 
Q 3938 681 3513 340 
Q 3088 0 2303 0 
L 628 0 
L 628 4666 
z
" transform="scale(0.015625)"/>
     </defs>
     <use xlink:href="#DejaVuSans-4a"/>
     <use xlink:href="#DejaVuSans-61" transform="translate(29.492188 0)"/>
     <use xlink:href="#DejaVuSans-6e" transform="translate(90.771484 0)"/>
     <use xlink:href="#DejaVuSans-75" transform="translate(154.150391 0)"/>
     <use xlink:href="#DejaVuSans-61" transform="translate(217.529297 0)"/>
     <use xlink:href="#DejaVuSans-72" transform="translate(278.808594 0)"/>
     <use xlink:href="#DejaVuSans-79" transform="translate(319.921875 0)"/>
     <use xlink:href="#DejaVuSans-20" transform="translate(379.101562 0)"/>
     <use xlink:href="#DejaVuSans-32" transform="translate(410.888672 0)"/>
     <use xlink:href="#DejaVuSans-30" transform="translate(474.511719 0)"/>
     <use xlink:href="#DejaVuSans-32" transform="translate(538.134766 0)"/>
     <use xlink:href="#DejaVuSans-36" transform="translate(601.757812 0)"/>
     <use xlink:href="#DejaVuSans-20" transform="translate(665.380859 0)"/>
     <use xlink:href="#DejaVuSans-50" transform="translate(697.167969 0)"/>
     <use xlink:href="#DejaVuSans-75" transform="translate(755.720703 0)"/>
     <use xlink:href="#DejaVuSans-62" transform="translate(819.099609 0)"/>
     <use xlink:href="#DejaVuSans-6c" transform="translate(882.576172 0)"/>
     <use xlink:href="#DejaVuSans-69" transform="translate(910.359375 0)"/>
     <use xlink:href="#DejaVuSans-63" transform="translate(938.142578 0)"/>
     <use xlink:href="#DejaVuSans-20" transform="translate(993.123047 0)"/>
     <use xlink:href="#DejaVuSans-57" transform="translate(1024.910156 0)"/>
     <use xlink:href="#DejaVuSans-69" transform="translate(1121.537109 0)"/>
     <use xlink:href="#DejaVuSans-6e" transform="translate(1149.320312 0)"/>
     <use xlink:href="#DejaVuSans-64" transform="translate(1212.699219 0)"/>
     <use xlink:href="#DejaVuSans-6f" transform="translate(1276.175781 0)"/>
     <use xlink:href="#DejaVuSans-77" transform="translate(1337.357422 0)"/>
     <use xlink:href="#DejaVuSans-3a" transform="translate(1413.644531 0)"/>
     <use xlink:href="#DejaVuSans-20" transform="translate(1447.335938 0)"/>
     <use xlink:href="#DejaVuSans-41" transform="translate(1479.123047 0)"/>
     <use xlink:href="#DejaVuSans-63" transform="translate(1545.78125 0)"/>
     <use xlink:href="#DejaVuSans-74" transform="translate(1600.761719 0)"/>
     <use xlink:href="#DejaVuSans-75" transform="translate(1639.970703 0)"/>
     <use xlink:href="#DejaVuSans-61" transform="translate(1703.349609 0)"/>
     <use xlink:href="#DejaVuSans-6c" transform="translate(1764.628906 0)"/>
     <use xlink:href="#DejaVuSans-20" transform="translate(1792.412109 0)"/>
     <use xlink:href="#DejaVuSans-4c" transform="translate(1824.199219 0)"/>
     <use xlink:href="#DejaVuSans-6f" transform="translate(1878.162109 0)"/>
     <use xlink:href="#DejaVuSans-61" transform="translate(1939.34375 0)"/>
     <use xlink:href="#DejaVuSans-64" transform="translate(2000.623047 0)"/>
     <use xlink:href="#DejaVuSans-2c" transform="translate(2064.099609 0)"/>
     <use xlink:href="#DejaVuSans-20" transform="translate(2095.886719 0)"/>
     <use xlink:href="#DejaVuSans-52" transform="translate(2127.673828 0)"/>
     <use xlink:href="#DejaVuSans-61" transform="translate(2194.90625 0)"/>
     <use xlink:href="#DejaVuSans-77" transform="translate(2256.185547 0)"/>
     <use xlink:href="#DejaVuSans-20" transform="translate(2337.972656 0)"/>
     <use xlink:href="#DejaVuSans-4d" transform="translate(2369.759766 0)"/>
     <use xlink:href="#DejaVuSans-6f" transform="translate(2456.039062 0)"/>
     <use xlink:href="#DejaVuSans-64" transform="translate(2517.220703 0)"/>
     <use xlink:href="#DejaVuSans-65" transform="translate(2580.697266 0)"/>
     <use xlink:href="#DejaVuSans-6c" transform="translate(2642.220703 0)"/>
     <use xlink:href="#DejaVuSans-2c" transform="translate(2670.003906 0)"/>
     <use xlink:href="#DejaVuSans-20" transform="translate(2701.791016 0)"/>
     <use xlink:href="#DejaVuSans-46" transform="translate(2733.578125 0)"/>
     <use xlink:href="#DejaVuSans-69" transform="translate(2783.847656 0)"/>
     <use xlink:href="#DejaVuSans-6e" transform="translate(2811.630859 0)"/>
     <use xlink:href="#DejaVuSans-61" transform="translate(2875.009766 0)"/>
     <use xlink:href="#DejaVuSans-6c" transform="translate(2936.289062 0)"/>
     <use xlink:href="#DejaVuSans-20" transform="translate(2964.072266 0)"/>
     <use xlink:href="#DejaVuSans-42" transform="translate(2995.859375 0)"/>
     <use xlink:href="#DejaVuSans-6c" transform="translate(3064.462891 0)"/>
     <use xlink:href="#DejaVuSans-65" transform="translate(3092.246094 0)"/>
     <use xlink:href="#DejaVuSans-6e" transform="translate(3153.769531 0)"/>
     <use xlink:href="#DejaVuSans-64" transform="translate(3217.148438 0)"/>
     <use xlink:href="#DejaVuSans-2c" transform="translate(3280.625 0)"/>
     <use xlink:href="#DejaVuSans-20" transform="translate(3312.412109 0)"/>
     <use xlink:href="#DejaVuSans-41" transform="translate(3344.199219 0)"/>
     <use xlink:href="#DejaVuSans-6e" transform="translate(3412.607422 0)"/>
     <use xlink:href="#DejaVuSans-64" transform="translate(3475.986328 0)"/>
     <use xlink:href="#DejaVuSans-20" transform="translate(3539.462891 0)"/>
     <use xlink:href="#DejaVuSans-50" transform="translate(3571.25 0)"/>
     <use xlink:href="#DejaVuSans-39" transform="translate(3631.552734 0)"/>
     <use xlink:href="#DejaVuSans-30" transform="translate(3695.175781 0)"/>
     <use xlink:href="#DejaVuSans-20" transform="translate(3758.798828 0)"/>
     <use xlink:href="#DejaVuSans-42" transform="translate(3790.585938 0)"/>
     <use xlink:href="#DejaVuSans-61" transform="translate(3859.189453 0)"/>
     <use xlink:href="#DejaVuSans-6e" transform="translate(3920.46875 0)"/>
     <use xlink:href="#DejaVuSans-64" transform="translate(3983.847656 0)"/>
    </g>
   </g>
   <g id="legend_1">
    <g id="patch_5">
     <path d="M 567.414832 52.375625 
L 589.414832 52.375625 
L 589.414832 44.675625 
L 567.414832 44.675625 
z
" style="fill: #f2d8a7; fill-opacity: 0.55; stroke: #f2d8a7; stroke-opacity: 0.55; stroke-linejoin: miter"/>
    </g>
    <g id="text_20">
     <!-- Winning blend P90 band -->
     <g style="fill: #10243f" transform="translate(598.214832 52.375625) scale(0.11 -0.11)">
      <use xlink:href="#DejaVuSans-57"/>
      <use xlink:href="#DejaVuSans-69" transform="translate(96.626953 0)"/>
      <use xlink:href="#DejaVuSans-6e" transform="translate(124.410156 0)"/>
      <use xlink:href="#DejaVuSans-6e" transform="translate(187.789062 0)"/>
      <use xlink:href="#DejaVuSans-69" transform="translate(251.167969 0)"/>
      <use xlink:href="#DejaVuSans-6e" transform="translate(278.951172 0)"/>
      <use xlink:href="#DejaVuSans-67" transform="translate(342.330078 0)"/>
      <use xlink:href="#DejaVuSans-20" transform="translate(405.806641 0)"/>
      <use xlink:href="#DejaVuSans-62" transform="translate(437.59375 0)"/>
      <use xlink:href="#DejaVuSans-6c" transform="translate(501.070312 0)"/>
      <use xlink:href="#DejaVuSans-65" transform="translate(528.853516 0)"/>
      <use xlink:href="#DejaVuSans-6e" transform="translate(590.376953 0)"/>
      <use xlink:href="#DejaVuSans-64" transform="translate(653.755859 0)"/>
      <use xlink:href="#DejaVuSans-20" transform="translate(717.232422 0)"/>
      <use xlink:href="#DejaVuSans-50" transform="translate(749.019531 0)"/>
      <use xlink:href="#DejaVuSans-39" transform="translate(809.322266 0)"/>
      <use xlink:href="#DejaVuSans-30" transform="translate(872.945312 0)"/>
      <use xlink:href="#DejaVuSans-20" transform="translate(936.568359 0)"/>
      <use xlink:href="#DejaVuSans-62" transform="translate(968.355469 0)"/>
      <use xlink:href="#DejaVuSans-61" transform="translate(1031.832031 0)"/>
      <use xlink:href="#DejaVuSans-6e" transform="translate(1093.111328 0)"/>
      <use xlink:href="#DejaVuSans-64" transform="translate(1156.490234 0)"/>
     </g>
    </g>
    <g id="line2d_30">
     <path d="M 567.414832 64.671562 
L 578.414832 64.671562 
L 589.414832 64.671562 
" style="fill: none; stroke: #10243f; stroke-width: 2.6; stroke-linecap: square"/>
    </g>
    <g id="text_21">
     <!-- Observed load -->
     <g style="fill: #10243f" transform="translate(598.214832 68.521562) scale(0.11 -0.11)">
      <defs>
       <path id="DejaVuSans-4f" d="M 2522 4238 
Q 1834 4238 1429 3725 
Q 1025 3213 1025 2328 
Q 1025 1447 1429 934 
Q 1834 422 2522 422 
Q 3209 422 3611 934 
Q 4013 1447 4013 2328 
Q 4013 3213 3611 3725 
Q 3209 4238 2522 4238 
z
M 2522 4750 
Q 3503 4750 4090 4092 
Q 4678 3434 4678 2328 
Q 4678 1225 4090 567 
Q 3503 -91 2522 -91 
Q 1538 -91 948 565 
Q 359 1222 359 2328 
Q 359 3434 948 4092 
Q 1538 4750 2522 4750 
z
" transform="scale(0.015625)"/>
       <path id="DejaVuSans-73" d="M 2834 3397 
L 2834 2853 
Q 2591 2978 2328 3040 
Q 2066 3103 1784 3103 
Q 1356 3103 1142 2972 
Q 928 2841 928 2578 
Q 928 2378 1081 2264 
Q 1234 2150 1697 2047 
L 1894 2003 
Q 2506 1872 2764 1633 
Q 3022 1394 3022 966 
Q 3022 478 2636 193 
Q 2250 -91 1575 -91 
Q 1294 -91 989 -36 
Q 684 19 347 128 
L 347 722 
Q 666 556 975 473 
Q 1284 391 1588 391 
Q 1994 391 2212 530 
Q 2431 669 2431 922 
Q 2431 1156 2273 1281 
Q 2116 1406 1581 1522 
L 1381 1569 
Q 847 1681 609 1914 
Q 372 2147 372 2553 
Q 372 3047 722 3315 
Q 1072 3584 1716 3584 
Q 2034 3584 2315 3537 
Q 2597 3491 2834 3397 
z
" transform="scale(0.015625)"/>
       <path id="DejaVuSans-76" d="M 191 3500 
L 800 3500 
L 1894 563 
L 2988 3500 
L 3597 3500 
L 2284 0 
L 1503 0 
L 191 3500 
z
" transform="scale(0.015625)"/>
      </defs>
      <use xlink:href="#DejaVuSans-4f"/>
      <use xlink:href="#DejaVuSans-62" transform="translate(78.710938 0)"/>
      <use xlink:href="#DejaVuSans-73" transform="translate(142.1875 0)"/>
      <use xlink:href="#DejaVuSans-65" transform="translate(194.287109 0)"/>
      <use xlink:href="#DejaVuSans-72" transform="translate(255.810547 0)"/>
      <use xlink:href="#DejaVuSans-76" transform="translate(296.923828 0)"/>
      <use xlink:href="#DejaVuSans-65" transform="translate(356.103516 0)"/>
      <use xlink:href="#DejaVuSans-64" transform="translate(417.626953 0)"/>
      <use xlink:href="#DejaVuSans-20" transform="translate(481.103516 0)"/>
      <use xlink:href="#DejaVuSans-6c" transform="translate(512.890625 0)"/>
      <use xlink:href="#DejaVuSans-6f" transform="translate(540.673828 0)"/>
      <use xlink:href="#DejaVuSans-61" transform="translate(601.855469 0)"/>
      <use xlink:href="#DejaVuSans-64" transform="translate(663.134766 0)"/>
     </g>
    </g>
    <g id="line2d_31">
     <path d="M 567.414832 80.8175 
L 578.414832 80.8175 
L 589.414832 80.8175 
" style="fill: none; stroke: #eb6a3e; stroke-width: 1.7; stroke-linecap: square"/>
    </g>
    <g id="text_22">
     <!-- Residual tabular MLP -->
     <g style="fill: #10243f" transform="translate(598.214832 84.6675) scale(0.11 -0.11)">
      <use xlink:href="#DejaVuSans-52"/>
      <use xlink:href="#DejaVuSans-65" transform="translate(64.982422 0)"/>
      <use xlink:href="#DejaVuSans-73" transform="translate(126.505859 0)"/>
      <use xlink:href="#DejaVuSans-69" transform="translate(178.605469 0)"/>
      <use xlink:href="#DejaVuSans-64" transform="translate(206.388672 0)"/>
      <use xlink:href="#DejaVuSans-75" transform="translate(269.865234 0)"/>
      <use xlink:href="#DejaVuSans-61" transform="translate(333.244141 0)"/>
      <use xlink:href="#DejaVuSans-6c" transform="translate(394.523438 0)"/>
      <use xlink:href="#DejaVuSans-20" transform="translate(422.306641 0)"/>
      <use xlink:href="#DejaVuSans-74" transform="translate(454.09375 0)"/>
      <use xlink:href="#DejaVuSans-61" transform="translate(493.302734 0)"/>
      <use xlink:href="#DejaVuSans-62" transform="translate(554.582031 0)"/>
      <use xlink:href="#DejaVuSans-75" transform="translate(618.058594 0)"/>
      <use xlink:href="#DejaVuSans-6c" transform="translate(681.4375 0)"/>
      <use xlink:href="#DejaVuSans-61" transform="translate(709.220703 0)"/>
      <use xlink:href="#DejaVuSans-72" transform="translate(770.5 0)"/>
      <use xlink:href="#DejaVuSans-20" transform="translate(811.613281 0)"/>
      <use xlink:href="#DejaVuSans-4d" transform="translate(843.400391 0)"/>
      <use xlink:href="#DejaVuSans-4c" transform="translate(929.679688 0)"/>
      <use xlink:href="#DejaVuSans-50" transform="translate(985.392578 0)"/>
     </g>
    </g>
    <g id="line2d_32">
     <path d="M 754.411395 48.525625 
L 765.411395 48.525625 
L 776.411395 48.525625 
" style="fill: none; stroke: #178c82; stroke-width: 2.2; stroke-linecap: square"/>
    </g>
    <g id="text_23">
     <!-- Winning final blend -->
     <g style="fill: #10243f" transform="translate(785.211395 52.375625) scale(0.11 -0.11)">
      <use xlink:href="#DejaVuSans-57"/>
      <use xlink:href="#DejaVuSans-69" transform="translate(96.626953 0)"/>
      <use xlink:href="#DejaVuSans-6e" transform="translate(124.410156 0)"/>
      <use xlink:href="#DejaVuSans-6e" transform="translate(187.789062 0)"/>
      <use xlink:href="#DejaVuSans-69" transform="translate(251.167969 0)"/>
      <use xlink:href="#DejaVuSans-6e" transform="translate(278.951172 0)"/>
      <use xlink:href="#DejaVuSans-67" transform="translate(342.330078 0)"/>
      <use xlink:href="#DejaVuSans-20" transform="translate(405.806641 0)"/>
      <use xlink:href="#DejaVuSans-66" transform="translate(437.59375 0)"/>
      <use xlink:href="#DejaVuSans-69" transform="translate(472.798828 0)"/>
      <use xlink:href="#DejaVuSans-6e" transform="translate(500.582031 0)"/>
      <use xlink:href="#DejaVuSans-61" transform="translate(563.960938 0)"/>
      <use xlink:href="#DejaVuSans-6c" transform="translate(625.240234 0)"/>
      <use xlink:href="#DejaVuSans-20" transform="translate(653.023438 0)"/>
      <use xlink:href="#DejaVuSans-62" transform="translate(684.810547 0)"/>
      <use xlink:href="#DejaVuSans-6c" transform="translate(748.287109 0)"/>
      <use xlink:href="#DejaVuSans-65" transform="translate(776.070312 0)"/>
      <use xlink:href="#DejaVuSans-6e" transform="translate(837.59375 0)"/>
      <use xlink:href="#DejaVuSans-64" transform="translate(900.972656 0)"/>
     </g>
    </g>
    <g id="line2d_33">
     <path d="M 754.411395 64.671562 
L 765.411395 64.671562 
L 776.411395 64.671562 
" style="fill: none; stroke-dasharray: 4.4,3.3; stroke-dashoffset: 0; stroke: #5f6f86; stroke-width: 1.1"/>
    </g>
    <g id="text_24">
     <!-- Lag-24 reference -->
     <g style="fill: #10243f" transform="translate(785.211395 68.521562) scale(0.11 -0.11)">
      <defs>
       <path id="DejaVuSans-2d" d="M 313 2009 
L 1997 2009 
L 1997 1497 
L 313 1497 
L 313 2009 
z
" transform="scale(0.015625)"/>
      </defs>
      <use xlink:href="#DejaVuSans-4c"/>
      <use xlink:href="#DejaVuSans-61" transform="translate(55.712891 0)"/>
      <use xlink:href="#DejaVuSans-67" transform="translate(116.992188 0)"/>
      <use xlink:href="#DejaVuSans-2d" transform="translate(180.46875 0)"/>
      <use xlink:href="#DejaVuSans-32" transform="translate(216.552734 0)"/>
      <use xlink:href="#DejaVuSans-34" transform="translate(280.175781 0)"/>
      <use xlink:href="#DejaVuSans-20" transform="translate(343.798828 0)"/>
      <use xlink:href="#DejaVuSans-72" transform="translate(375.585938 0)"/>
      <use xlink:href="#DejaVuSans-65" transform="translate(414.449219 0)"/>
      <use xlink:href="#DejaVuSans-66" transform="translate(475.972656 0)"/>
      <use xlink:href="#DejaVuSans-65" transform="translate(511.177734 0)"/>
      <use xlink:href="#DejaVuSans-72" transform="translate(572.701172 0)"/>
      <use xlink:href="#DejaVuSans-65" transform="translate(611.564453 0)"/>
      <use xlink:href="#DejaVuSans-6e" transform="translate(673.087891 0)"/>
      <use xlink:href="#DejaVuSans-63" transform="translate(736.466797 0)"/>
      <use xlink:href="#DejaVuSans-65" transform="translate(791.447266 0)"/>
     </g>
    </g>
    <g id="line2d_34">
     <path d="M 754.411395 80.8175 
L 765.411395 80.8175 
L 776.411395 80.8175 
" style="fill: none; stroke-dasharray: 2.4,3.6; stroke-dashoffset: 0; stroke: #b7412e; stroke-width: 1.2"/>
    </g>
    <g id="text_25">
     <!-- Peak-hour cutoff -->
     <g style="fill: #10243f" transform="translate(785.211395 84.6675) scale(0.11 -0.11)">
      <defs>
       <path id="DejaVuSans-68" d="M 3513 2113 
L 3513 0 
L 2938 0 
L 2938 2094 
Q 2938 2591 2744 2837 
Q 2550 3084 2163 3084 
Q 1697 3084 1428 2787 
Q 1159 2491 1159 1978 
L 1159 0 
L 581 0 
L 581 4863 
L 1159 4863 
L 1159 2956 
Q 1366 3272 1645 3428 
Q 1925 3584 2291 3584 
Q 2894 3584 3203 3211 
Q 3513 2838 3513 2113 
z
" transform="scale(0.015625)"/>
      </defs>
      <use xlink:href="#DejaVuSans-50"/>
      <use xlink:href="#DejaVuSans-65" transform="translate(56.677734 0)"/>
      <use xlink:href="#DejaVuSans-61" transform="translate(118.201172 0)"/>
      <use xlink:href="#DejaVuSans-6b" transform="translate(179.480469 0)"/>
      <use xlink:href="#DejaVuSans-2d" transform="translate(237.390625 0)"/>
      <use xlink:href="#DejaVuSans-68" transform="translate(273.474609 0)"/>
      <use xlink:href="#DejaVuSans-6f" transform="translate(336.853516 0)"/>
      <use xlink:href="#DejaVuSans-75" transform="translate(398.035156 0)"/>
      <use xlink:href="#DejaVuSans-72" transform="translate(461.414062 0)"/>
      <use xlink:href="#DejaVuSans-20" transform="translate(502.527344 0)"/>
      <use xlink:href="#DejaVuSans-63" transform="translate(534.314453 0)"/>
      <use xlink:href="#DejaVuSans-75" transform="translate(589.294922 0)"/>
      <use xlink:href="#DejaVuSans-74" transform="translate(652.673828 0)"/>
      <use xlink:href="#DejaVuSans-6f" transform="translate(691.882812 0)"/>
      <use xlink:href="#DejaVuSans-66" transform="translate(753.064453 0)"/>
      <use xlink:href="#DejaVuSans-66" transform="translate(788.269531 0)"/>
     </g>
    </g>
   </g>
  </g>
 </g>
 <defs>
  <clipPath id="pd21a2b45af">
   <rect x="81.07875" y="34.117344" width="820.12077" height="367.036239"/>
  </clipPath>
 </defs>
</svg>
