<?xml version="1.0" encoding="utf-8" standalone="no"?>
<!DOCTYPE svg PUBLIC "-//W3C//DTD SVG 1.1//EN"
  "http://www.w3.org/Graphics/SVG/1.1/DTD/svg11.dtd">
<svg xmlns:xlink="http://www.w3.org/1999/xlink" width="908.39952pt" height="425.99952pt" viewBox="0 0 908.39952 425.99952" xmlns="http://www.w3.org/2000/svg" version="1.1">
 <metadata>
  <rdf:RDF xmlns:dc="http://purl.org/dc/elements/1.1/" xmlns:cc="http://creativecommons.org/ns#" xmlns:rdf="http://www.w3.org/1999/02/22-rdf-syntax-ns#">
   <cc:Work>
    <dc:type rdf:resource="http://purl.org/dc/dcmitype/StillImage"/>
    <dc:date>2026-04-10T11:13:32.810635</dc:date>
    <dc:format>image/svg+xml</dc:format>
    <dc:creator>
     <cc:Agent>
      <dc:title>Matplotlib v3.10.7, https://matplotlib.org/</dc:title>
     </cc:Agent>
    </dc:creator>
   </cc:Work>
  </rdf:RDF>
 </metadata>
 <defs>
  <style type="text/css">*{stroke-linejoin: round; stroke-linecap: butt}</style>
 </defs>
 <g id="figure_1">
  <g id="patch_1">
   <path d="M 0 425.99952 
L 908.39952 425.99952 
L 908.39952 0 
L 0 0 
L 0 425.99952 
z
" style="fill: none"/>
  </g>
  <g id="axes_1">
   <g id="patch_2">
    <path d="M 81.07875 401.153582 
L 901.19952 401.153582 
L 901.19952 34.117344 
L 81.07875 34.117344 
L 81.07875 401.153582 
z
" style="fill: none"/>
   </g>
   <g id="FillBetweenPolyCollection_1">
    <defs>
     <path id="mefb934a20f" d="M 118.356967 -249.78409 
L 118.356967 -163.486701 
L 121.715365 -156.965158 
L 125.073763 -162.055676 
L 128.432161 -166.704117 
L 131.790558 -173.868296 
L 135.148956 -183.267464 
L 138.507354 -168.025467 
L 141.865752 -180.738005 
L 145.22415 -196.15262 
L 148.582548 -196.203514 
L 151.940946 -218.189832 
L 155.299344 -219.012446 
L 158.657742 -215.338458 
L 162.01614 -215.925163 
L 165.374538 -220.481136 
L 168.732935 -211.181537 
L 172.091333 -216.292514 
L 175.449731 -217.236078 
L 178.808129 -216.747206 
L 182.166527 -211.955599 
L 185.524925 -211.172621 
L 188.883323 -210.384463 
L 192.241721 -206.442269 
L 195.600119 -202.958739 
L 198.958517 -189.366266 
L 202.316915 -184.919562 
L 205.675313 -180.474039 
L 209.03371 -183.991779 
L 212.392108 -182.214911 
L 215.750506 -171.558037 
L 219.108904 -179.476129 
L 222.467302 -179.48334 
L 225.8257 -172.136498 
L 229.184098 -182.103541 
L 232.542496 -166.90783 
L 235.900894 -168.003467 
L 239.259292 -160.695924 
L 242.61769 -160.537009 
L 245.976087 -158.066824 
L 249.334485 -156.528859 
L 252.692883 -156.826402 
L 256.051281 -164.335515 
L 259.409679 -161.918726 
L 262.768077 -159.846901 
L 266.126475 -163.604466 
L 269.484873 -166.037551 
L 272.843271 -164.399448 
L 276.201669 -174.900158 
L 279.560067 -164.929713 
L 282.918464 -169.691688 
L 286.276862 -174.533325 
L 289.63526 -174.619553 
L 292.993658 -170.737922 
L 296.352056 -168.521239 
L 299.710454 -163.15452 
L 303.068852 -163.547049 
L 306.42725 -176.751945 
L 309.785648 -175.381281 
L 313.144046 -177.553552 
L 316.502444 -173.117708 
L 319.860842 -153.815368 
L 323.219239 -162.7934 
L 326.577637 -158.499361 
L 329.936035 -154.195021 
L 333.294433 -145.18055 
L 336.652831 -166.619359 
L 340.011229 -153.998515 
L 343.369627 -160.674617 
L 346.728025 -166.063914 
L 350.086423 -160.851618 
L 353.444821 -146.660812 
L 356.803219 -144.596946 
L 360.161616 -135.336958 
L 363.520014 -137.241914 
L 366.878412 -144.150402 
L 370.23681 -145.31424 
L 373.595208 -138.10426 
L 376.953606 -137.554123 
L 380.312004 -133.907177 
L 383.670402 -129.292264 
L 387.0288 -130.509522 
L 390.387198 -124.653403 
L 393.745596 -134.491916 
L 397.103993 -123.823016 
L 400.462391 -139.647241 
L 403.820789 -133.639909 
L 407.179187 -127.74412 
L 410.537585 -121.749389 
L 413.895983 -121.429361 
L 417.254381 -109.441501 
L 420.612779 -108.73432 
L 423.971177 -106.891028 
L 427.329575 -107.960487 
L 430.687973 -104.136469 
L 434.046371 -100.038895 
L 437.404768 -102.74105 
L 440.763166 -106.73583 
L 444.121564 -96.876831 
L 447.479962 -96.034238 
L 450.83836 -107.89778 
L 454.196758 -115.009508 
L 457.555156 -112.778958 
L 460.913554 -103.590217 
L 464.271952 -111.396331 
L 467.63035 -123.185841 
L 470.988748 -117.966742 
L 474.347145 -124.254674 
L 477.705543 -121.469439 
L 481.063941 -128.80591 
L 484.422339 -132.288831 
L 487.780737 -128.284993 
L 491.139135 -124.930651 
L 494.497533 -129.57381 
L 497.855931 -118.414473 
L 501.214329 -107.446423 
L 504.572727 -114.530538 
L 507.931125 -112.233816 
L 511.289522 -109.491387 
L 514.64792 -98.766903 
L 518.006318 -76.821108 
L 521.364716 -73.897243 
L 524.723114 -76.081709 
L 528.081512 -78.536566 
L 531.43991 -69.947668 
L 534.798308 -68.385021 
L 538.156706 -63.599773 
L 541.515104 -52.598828 
L 544.873502 -46.277846 
L 548.231899 -61.303544 
L 551.590297 -62.182269 
L 554.948695 -68.220715 
L 558.307093 -78.223009 
L 561.665491 -87.795435 
L 565.023889 -88.897464 
L 568.382287 -91.234702 
L 571.740685 -75.458715 
L 575.099083 -80.221758 
L 578.457481 -79.661301 
L 581.815879 -78.063164 
L 585.174277 -89.228651 
L 588.532674 -97.221589 
L 591.891072 -87.220299 
L 595.24947 -107.449034 
L 598.607868 -133.745833 
L 601.966266 -101.774318 
L 605.324664 -109.314438 
L 608.683062 -112.271076 
L 612.04146 -106.602768 
L 615.399858 -121.443866 
L 618.758256 -125.781605 
L 622.116654 -103.402949 
L 625.475051 -93.091757 
L 628.833449 -105.070563 
L 632.191847 -115.934811 
L 635.550245 -127.772512 
L 638.908643 -139.538078 
L 642.267041 -146.293123 
L 645.625439 -165.594004 
L 648.983837 -147.63368 
L 652.342235 -122.299636 
L 655.700633 -131.25727 
L 659.059031 -121.211833 
L 662.417428 -126.39515 
L 665.775826 -145.567298 
L 669.134224 -160.364099 
L 672.492622 -148.542418 
L 675.85102 -144.814624 
L 679.209418 -137.982176 
L 682.567816 -154.470902 
L 685.926214 -144.394705 
L 689.284612 -145.675413 
L 692.64301 -134.647809 
L 696.001408 -143.988745 
L 699.359806 -130.741859 
L 702.718203 -126.997171 
L 706.076601 -136.051539 
L 709.434999 -131.866929 
L 712.793397 -126.000481 
L 716.151795 -140.644547 
L 719.510193 -133.683321 
L 722.868591 -135.906805 
L 726.226989 -141.487037 
L 729.585387 -140.038689 
L 732.943785 -135.986602 
L 736.302183 -156.458927 
L 739.66058 -165.997282 
L 743.018978 -173.282655 
L 746.377376 -204.174039 
L 749.735774 -221.013881 
L 753.094172 -234.713504 
L 756.45257 -218.875955 
L 759.810968 -206.49435 
L 763.169366 -238.910595 
L 766.527764 -215.751925 
L 769.886162 -218.031301 
L 773.24456 -212.599544 
L 776.602957 -206.435951 
L 779.961355 -196.197057 
L 783.319753 -198.175921 
L 786.678151 -193.123079 
L 790.036549 -193.846967 
L 793.394947 -214.320223 
L 796.753345 -213.202687 
L 800.111743 -192.995089 
L 803.470141 -201.659767 
L 806.828539 -210.875108 
L 810.186937 -200.072847 
L 813.545335 -206.757375 
L 816.903732 -217.452425 
L 820.26213 -220.983494 
L 823.620528 -213.477109 
L 826.978926 -283.86752 
L 830.337324 -349.753469 
L 833.695722 -327.167851 
L 837.05412 -353.962107 
L 840.412518 -317.904364 
L 843.770916 -357.298494 
L 847.129314 -356.723006 
L 850.487712 -310.097824 
L 853.846109 -304.941599 
L 857.204507 -289.421158 
L 860.562905 -307.37492 
L 863.921303 -295.941846 
L 863.921303 -357.71962 
L 863.921303 -357.71962 
L 860.562905 -365.656761 
L 857.204507 -360.320253 
L 853.846109 -366.857178 
L 850.487712 -357.324136 
L 847.129314 -375.198711 
L 843.770916 -370.076189 
L 840.412518 -353.537509 
L 837.05412 -365.558119 
L 833.695722 -358.896937 
L 830.337324 -367.341138 
L 826.978926 -328.234763 
L 823.620528 -301.714555 
L 820.26213 -309.894076 
L 816.903732 -306.097462 
L 813.545335 -294.225659 
L 810.186937 -287.248534 
L 806.828539 -299.126913 
L 803.470141 -289.071002 
L 800.111743 -279.473537 
L 796.753345 -301.735295 
L 793.394947 -303.243783 
L 790.036549 -281.752827 
L 786.678151 -280.841431 
L 783.319753 -286.471394 
L 779.961355 -285.364809 
L 776.602957 -295.605765 
L 773.24456 -302.166531 
L 769.886162 -308.003287 
L 766.527764 -305.675716 
L 763.169366 -328.032368 
L 759.810968 -330.374547 
L 756.45257 -309.336673 
L 753.094172 -330.404353 
L 749.735774 -312.168603 
L 746.377376 -295.378565 
L 743.018978 -263.489044 
L 739.66058 -256.30078 
L 736.302183 -246.092516 
L 732.943785 -224.608819 
L 729.585387 -229.247417 
L 726.226989 -230.793595 
L 722.868591 -224.957899 
L 719.510193 -222.60983 
L 716.151795 -229.940287 
L 712.793397 -214.15021 
L 709.434999 -220.701779 
L 706.076601 -225.194151 
L 702.718203 -215.294567 
L 699.359806 -219.688145 
L 696.001408 -234.003493 
L 692.64301 -223.714869 
L 689.284612 -235.613816 
L 685.926214 -234.231269 
L 682.567816 -244.595018 
L 679.209418 -226.364089 
L 675.85102 -233.877369 
L 672.492622 -237.668093 
L 669.134224 -250.528896 
L 665.775826 -234.529792 
L 662.417428 -214.402853 
L 659.059031 -208.872298 
L 655.700633 -219.852442 
L 652.342235 -210.342667 
L 648.983837 -237.775535 
L 645.625439 -257.07458 
L 642.267041 -236.678081 
L 638.908643 -229.519335 
L 635.550245 -216.783079 
L 632.191847 -204.024262 
L 628.833449 -192.217176 
L 625.475051 -179.103164 
L 622.116654 -189.929614 
L 618.758256 -214.065961 
L 615.399858 -209.407295 
L 612.04146 -193.332529 
L 608.683062 -199.513902 
L 605.324664 -196.261206 
L 601.966266 -188.133059 
L 598.607868 -222.761036 
L 595.24947 -194.379138 
L 591.891072 -172.847072 
L 588.532674 -183.806041 
L 585.174277 -175.104935 
L 581.815879 -162.945662 
L 578.457481 -164.825564 
L 575.099083 -165.477337 
L 571.740685 -160.194251 
L 568.382287 -177.401893 
L 565.023889 -174.832883 
L 561.665491 -173.63256 
L 558.307093 -163.165526 
L 554.948695 -152.212398 
L 551.590297 -145.582243 
L 548.231899 -144.653707 
L 544.873502 -128.139022 
L 541.515104 -135.082937 
L 538.156706 -147.145557 
L 534.798308 -152.404497 
L 531.43991 -154.124132 
L 528.081512 -163.386129 
L 524.723114 -160.798748 
L 521.364716 -158.475569 
L 518.006318 -161.530887 
L 514.64792 -185.686069 
L 511.289522 -197.587984 
L 507.931125 -200.635204 
L 504.572727 -203.178626 
L 501.214329 -195.435908 
L 497.855931 -207.520595 
L 494.497533 -219.768458 
L 491.139135 -214.680545 
L 487.780737 -218.273399 
L 484.422339 -222.750905 
L 481.063941 -218.95857 
L 477.705543 -210.883511 
L 474.347145 -213.958517 
L 470.988748 -207.034641 
L 467.63035 -212.798748 
L 464.271952 -199.836641 
L 460.913554 -191.291884 
L 457.555156 -201.374885 
L 454.196758 -203.802755 
L 450.83836 -195.994441 
L 447.479962 -182.976448 
L 444.121564 -183.9033 
L 440.763166 -194.574356 
L 437.404768 -190.202822 
L 434.046371 -187.224614 
L 430.687973 -191.787083 
L 427.329575 -195.966966 
L 423.971177 -194.86616 
L 420.612779 -196.8955 
L 417.254381 -197.695897 
L 413.895983 -210.454479 
L 410.537585 -210.968763 
L 407.179187 -217.561352 
L 403.820789 -224.09702 
L 400.462391 -229.951154 
L 397.103993 -213.392324 
L 393.745596 -225.190736 
L 390.387198 -214.450146 
L 387.0288 -220.907768 
L 383.670402 -219.553849 
L 380.312004 -224.616618 
L 376.953606 -228.67151 
L 373.595208 -229.303244 
L 370.23681 -237.240659 
L 366.878412 -235.965427 
L 363.520014 -228.366179 
L 360.161616 -226.237929 
L 356.803219 -236.295658 
L 353.444821 -238.586633 
L 350.086423 -254.137736 
L 346.728025 -259.864039 
L 343.369627 -253.972645 
L 340.011229 -246.620509 
L 336.652831 -260.481775 
L 333.294433 -236.515116 
L 329.936035 -246.226571 
L 326.577637 -251.07168 
L 323.219239 -255.906265 
L 319.860842 -245.919226 
L 316.502444 -266.173414 
L 313.144046 -271.070221 
L 309.785648 -268.808815 
L 306.42725 -270.348374 
L 303.068852 -255.827849 
L 299.710454 -255.220177 
L 296.352056 -261.198958 
L 292.993658 -263.666756 
L 289.63526 -267.855864 
L 286.276862 -267.760533 
L 282.918464 -262.48296 
L 279.560067 -257.328257 
L 276.201669 -268.185667 
L 272.843271 -256.674069 
L 269.484873 -258.150721 
L 266.126475 -255.507961 
L 262.768077 -251.49858 
L 259.409679 -253.834257 
L 256.051281 -256.290698 
L 252.692883 -248.540651 
L 249.334485 -248.179593 
L 245.976087 -249.839957 
L 242.61769 -252.272403 
L 239.259292 -252.613129 
L 235.900894 -260.203613 
L 232.542496 -258.433908 
L 229.184098 -274.51062 
L 225.8257 -263.005589 
L 222.467302 -270.323394 
L 219.108904 -269.978881 
L 215.750506 -261.828309 
L 212.392108 -272.852424 
L 209.03371 -274.363646 
L 205.675313 -270.40065 
L 202.316915 -275.020534 
L 198.958517 -279.849366 
L 195.600119 -293.657904 
L 192.241721 -297.478779 
L 188.883323 -301.667348 
L 185.524925 -302.535533 
L 182.166527 -303.394778 
L 178.808129 -308.556391 
L 175.449731 -309.079187 
L 172.091333 -308.122354 
L 168.732935 -302.386019 
L 165.374538 -312.660162 
L 162.01614 -307.634006 
L 158.657742 -306.893212 
L 155.299344 -310.839776 
L 151.940946 -309.890012 
L 148.582548 -285.696221 
L 145.22415 -284.942855 
L 141.865752 -268.082751 
L 138.507354 -254.698938 
L 135.148956 -271.275397 
L 131.790558 -261.011459 
L 128.432161 -253.315667 
L 125.073763 -248.366116 
L 121.715365 -242.850781 
L 118.356967 -249.78409 
z
" style="stroke: #f2d8a7; stroke-opacity: 0.55"/>
    </defs>
    <g clip-path="url(#pee0b436e40)">
     <use xlink:href="#mefb934a20f" x="0" y="425.99952" style="fill: #f2d8a7; fill-opacity: 0.55; stroke: #f2d8a7; stroke-opacity: 0.55"/>
    </g>
   </g>
   <g id="matplotlib.axis_1">
    <g id="xtick_1">
     <g id="line2d_1">
      <defs>
       <path id="mbbc18f08ac" d="M 0 0 
L 0 3.5 
" style="stroke: #5f6f86; stroke-width: 0.8"/>
      </defs>
      <g>
       <use xlink:href="#mbbc18f08ac" x="118.356967" y="401.153582" style="fill: #5f6f86; stroke: #5f6f86; stroke-width: 0.8"/>
      </g>
     </g>
     <g id="text_1">
      <!-- Jan 01 -->
      <g style="fill: #5f6f86" transform="translate(101.131654 416.511864) scale(0.11 -0.11)">
       <defs>
        <path id="DejaVuSans-4a" d="M 628 4666 
L 1259 4666 
L 1259 325 
Q 1259 -519 939 -900 
Q 619 -1281 -91 -1281 
L -331 -1281 
L -331 -750 
L -134 -750 
Q 284 -750 456 -515 
Q 628 -281 628 325 
L 628 4666 
z
" transform="scale(0.015625)"/>
        <path id="DejaVuSans-61" d="M 2194 1759 
Q 1497 1759 1228 1600 
Q 959 1441 959 1056 
Q 959 750 1161 570 
Q 1363 391 1709 391 
Q 2188 391 2477 730 
Q 2766 1069 2766 1631 
L 2766 1759 
L 2194 1759 
z
M 3341 1997 
L 3341 0 
L 2766 0 
L 2766 531 
Q 2569 213 2275 61 
Q 1981 -91 1556 -91 
Q 1019 -91 701 211 
Q 384 513 384 1019 
Q 384 1609 779 1909 
Q 1175 2209 1959 2209 
L 2766 2209 
L 2766 2266 
Q 2766 2663 2505 2880 
Q 2244 3097 1772 3097 
Q 1472 3097 1187 3025 
Q 903 2953 641 2809 
L 641 3341 
Q 956 3463 1253 3523 
Q 1550 3584 1831 3584 
Q 2591 3584 2966 3190 
Q 3341 2797 3341 1997 
z
" transform="scale(0.015625)"/>
        <path id="DejaVuSans-6e" d="M 3513 2113 
L 3513 0 
L 2938 0 
L 2938 2094 
Q 2938 2591 2744 2837 
Q 2550 3084 2163 3084 
Q 1697 3084 1428 2787 
Q 1159 2491 1159 1978 
L 1159 0 
L 581 0 
L 581 3500 
L 1159 3500 
L 1159 2956 
Q 1366 3272 1645 3428 
Q 1925 3584 2291 3584 
Q 2894 3584 3203 3211 
Q 3513 2838 3513 2113 
z
" transform="scale(0.015625)"/>
        <path id="DejaVuSans-20" transform="scale(0.015625)"/>
        <path id="DejaVuSans-30" d="M 2034 4250 
Q 1547 4250 1301 3770 
Q 1056 3291 1056 2328 
Q 1056 1369 1301 889 
Q 1547 409 2034 409 
Q 2525 409 2770 889 
Q 3016 1369 3016 2328 
Q 3016 3291 2770 3770 
Q 2525 4250 2034 4250 
z
M 2034 4750 
Q 2819 4750 3233 4129 
Q 3647 3509 3647 2328 
Q 3647 1150 3233 529 
Q 2819 -91 2034 -91 
Q 1250 -91 836 529 
Q 422 1150 422 2328 
Q 422 3509 836 4129 
Q 1250 4750 2034 4750 
z
" transform="scale(0.015625)"/>
        <path id="DejaVuSans-31" d="M 794 531 
L 1825 531 
L 1825 4091 
L 703 3866 
L 703 4441 
L 1819 4666 
L 2450 4666 
L 2450 531 
L 3481 531 
L 3481 0 
L 794 0 
L 794 531 
z
" transform="scale(0.015625)"/>
       </defs>
       <use xlink:href="#DejaVuSans-4a"/>
       <use xlink:href="#DejaVuSans-61" transform="translate(29.492188 0)"/>
       <use xlink:href="#DejaVuSans-6e" transform="translate(90.771484 0)"/>
       <use xlink:href="#DejaVuSans-20" transform="translate(154.150391 0)"/>
       <use xlink:href="#DejaVuSans-30" transform="translate(185.9375 0)"/>
       <use xlink:href="#DejaVuSans-31" transform="translate(249.560547 0)"/>
      </g>
     </g>
    </g>
    <g id="xtick_2">
     <g id="line2d_2">
      <g>
       <use xlink:href="#mbbc18f08ac" x="198.958517" y="401.153582" style="fill: #5f6f86; stroke: #5f6f86; stroke-width: 0.8"/>
      </g>
     </g>
     <g id="text_2">
      <!-- Jan 02 -->
      <g style="fill: #5f6f86" transform="translate(181.733204 416.511864) scale(0.11 -0.11)">
       <defs>
        <path id="DejaVuSans-32" d="M 1228 531 
L 3431 531 
L 3431 0 
L 469 0 
L 469 531 
Q 828 903 1448 1529 
Q 2069 2156 2228 2338 
Q 2531 2678 2651 2914 
Q 2772 3150 2772 3378 
Q 2772 3750 2511 3984 
Q 2250 4219 1831 4219 
Q 1534 4219 1204 4116 
Q 875 4013 500 3803 
L 500 4441 
Q 881 4594 1212 4672 
Q 1544 4750 1819 4750 
Q 2544 4750 2975 4387 
Q 3406 4025 3406 3419 
Q 3406 3131 3298 2873 
Q 3191 2616 2906 2266 
Q 2828 2175 2409 1742 
Q 1991 1309 1228 531 
z
" transform="scale(0.015625)"/>
       </defs>
       <use xlink:href="#DejaVuSans-4a"/>
       <use xlink:href="#DejaVuSans-61" transform="translate(29.492188 0)"/>
       <use xlink:href="#DejaVuSans-6e" transform="translate(90.771484 0)"/>
       <use xlink:href="#DejaVuSans-20" transform="translate(154.150391 0)"/>
       <use xlink:href="#DejaVuSans-30" transform="translate(185.9375 0)"/>
       <use xlink:href="#DejaVuSans-32" transform="translate(249.560547 0)"/>
      </g>
     </g>
    </g>
    <g id="xtick_3">
     <g id="line2d_3">
      <g>
       <use xlink:href="#mbbc18f08ac" x="279.560067" y="401.153582" style="fill: #5f6f86; stroke: #5f6f86; stroke-width: 0.8"/>
      </g>
     </g>
     <g id="text_3">
      <!-- Jan 03 -->
      <g style="fill: #5f6f86" transform="translate(262.334754 416.511864) scale(0.11 -0.11)">
       <defs>
        <path id="DejaVuSans-33" d="M 2597 2516 
Q 3050 2419 3304 2112 
Q 3559 1806 3559 1356 
Q 3559 666 3084 287 
Q 2609 -91 1734 -91 
Q 1441 -91 1130 -33 
Q 819 25 488 141 
L 488 750 
Q 750 597 1062 519 
Q 1375 441 1716 441 
Q 2309 441 2620 675 
Q 2931 909 2931 1356 
Q 2931 1769 2642 2001 
Q 2353 2234 1838 2234 
L 1294 2234 
L 1294 2753 
L 1863 2753 
Q 2328 2753 2575 2939 
Q 2822 3125 2822 3475 
Q 2822 3834 2567 4026 
Q 2313 4219 1838 4219 
Q 1578 4219 1281 4162 
Q 984 4106 628 3988 
L 628 4550 
Q 988 4650 1302 4700 
Q 1616 4750 1894 4750 
Q 2613 4750 3031 4423 
Q 3450 4097 3450 3541 
Q 3450 3153 3228 2886 
Q 3006 2619 2597 2516 
z
" transform="scale(0.015625)"/>
       </defs>
       <use xlink:href="#DejaVuSans-4a"/>
       <use xlink:href="#DejaVuSans-61" transform="translate(29.492188 0)"/>
       <use xlink:href="#DejaVuSans-6e" transform="translate(90.771484 0)"/>
       <use xlink:href="#DejaVuSans-20" transform="translate(154.150391 0)"/>
       <use xlink:href="#DejaVuSans-30" transform="translate(185.9375 0)"/>
       <use xlink:href="#DejaVuSans-33" transform="translate(249.560547 0)"/>
      </g>
     </g>
    </g>
    <g id="xtick_4">
     <g id="line2d_4">
      <g>
       <use xlink:href="#mbbc18f08ac" x="360.161616" y="401.153582" style="fill: #5f6f86; stroke: #5f6f86; stroke-width: 0.8"/>
      </g>
     </g>
     <g id="text_4">
      <!-- Jan 04 -->
      <g style="fill: #5f6f86" transform="translate(342.936304 416.511864) scale(0.11 -0.11)">
       <defs>
        <path id="DejaVuSans-34" d="M 2419 4116 
L 825 1625 
L 2419 1625 
L 2419 4116 
z
M 2253 4666 
L 3047 4666 
L 3047 1625 
L 3713 1625 
L 3713 1100 
L 3047 1100 
L 3047 0 
L 2419 0 
L 2419 1100 
L 313 1100 
L 313 1709 
L 2253 4666 
z
" transform="scale(0.015625)"/>
       </defs>
       <use xlink:href="#DejaVuSans-4a"/>
       <use xlink:href="#DejaVuSans-61" transform="translate(29.492188 0)"/>
       <use xlink:href="#DejaVuSans-6e" transform="translate(90.771484 0)"/>
       <use xlink:href="#DejaVuSans-20" transform="translate(154.150391 0)"/>
       <use xlink:href="#DejaVuSans-30" transform="translate(185.9375 0)"/>
       <use xlink:href="#DejaVuSans-34" transform="translate(249.560547 0)"/>
      </g>
     </g>
    </g>
    <g id="xtick_5">
     <g id="line2d_5">
      <g>
       <use xlink:href="#mbbc18f08ac" x="440.763166" y="401.153582" style="fill: #5f6f86; stroke: #5f6f86; stroke-width: 0.8"/>
      </g>
     </g>
     <g id="text_5">
      <!-- Jan 05 -->
      <g style="fill: #5f6f86" transform="translate(423.537854 416.511864) scale(0.11 -0.11)">
       <defs>
        <path id="DejaVuSans-35" d="M 691 4666 
L 3169 4666 
L 3169 4134 
L 1269 4134 
L 1269 2991 
Q 1406 3038 1543 3061 
Q 1681 3084 1819 3084 
Q 2600 3084 3056 2656 
Q 3513 2228 3513 1497 
Q 3513 744 3044 326 
Q 2575 -91 1722 -91 
Q 1428 -91 1123 -41 
Q 819 9 494 109 
L 494 744 
Q 775 591 1075 516 
Q 1375 441 1709 441 
Q 2250 441 2565 725 
Q 2881 1009 2881 1497 
Q 2881 1984 2565 2268 
Q 2250 2553 1709 2553 
Q 1456 2553 1204 2497 
Q 953 2441 691 2322 
L 691 4666 
z
" transform="scale(0.015625)"/>
       </defs>
       <use xlink:href="#DejaVuSans-4a"/>
       <use xlink:href="#DejaVuSans-61" transform="translate(29.492188 0)"/>
       <use xlink:href="#DejaVuSans-6e" transform="translate(90.771484 0)"/>
       <use xlink:href="#DejaVuSans-20" transform="translate(154.150391 0)"/>
       <use xlink:href="#DejaVuSans-30" transform="translate(185.9375 0)"/>
       <use xlink:href="#DejaVuSans-35" transform="translate(249.560547 0)"/>
      </g>
     </g>
    </g>
    <g id="xtick_6">
     <g id="line2d_6">
      <g>
       <use xlink:href="#mbbc18f08ac" x="521.364716" y="401.153582" style="fill: #5f6f86; stroke: #5f6f86; stroke-width: 0.8"/>
      </g>
     </g>
     <g id="text_6">
      <!-- Jan 06 -->
      <g style="fill: #5f6f86" transform="translate(504.139404 416.511864) scale(0.11 -0.11)">
       <defs>
        <path id="DejaVuSans-36" d="M 2113 2584 
Q 1688 2584 1439 2293 
Q 1191 2003 1191 1497 
Q 1191 994 1439 701 
Q 1688 409 2113 409 
Q 2538 409 2786 701 
Q 3034 994 3034 1497 
Q 3034 2003 2786 2293 
Q 2538 2584 2113 2584 
z
M 3366 4563 
L 3366 3988 
Q 3128 4100 2886 4159 
Q 2644 4219 2406 4219 
Q 1781 4219 1451 3797 
Q 1122 3375 1075 2522 
Q 1259 2794 1537 2939 
Q 1816 3084 2150 3084 
Q 2853 3084 3261 2657 
Q 3669 2231 3669 1497 
Q 3669 778 3244 343 
Q 2819 -91 2113 -91 
Q 1303 -91 875 529 
Q 447 1150 447 2328 
Q 447 3434 972 4092 
Q 1497 4750 2381 4750 
Q 2619 4750 2861 4703 
Q 3103 4656 3366 4563 
z
" transform="scale(0.015625)"/>
       </defs>
       <use xlink:href="#DejaVuSans-4a"/>
       <use xlink:href="#DejaVuSans-61" transform="translate(29.492188 0)"/>
       <use xlink:href="#DejaVuSans-6e" transform="translate(90.771484 0)"/>
       <use xlink:href="#DejaVuSans-20" transform="translate(154.150391 0)"/>
       <use xlink:href="#DejaVuSans-30" transform="translate(185.9375 0)"/>
       <use xlink:href="#DejaVuSans-36" transform="translate(249.560547 0)"/>
      </g>
     </g>
    </g>
    <g id="xtick_7">
     <g id="line2d_7">
      <g>
       <use xlink:href="#mbbc18f08ac" x="601.966266" y="401.153582" style="fill: #5f6f86; stroke: #5f6f86; stroke-width: 0.8"/>
      </g>
     </g>
     <g id="text_7">
      <!-- Jan 07 -->
      <g style="fill: #5f6f86" transform="translate(584.740954 416.511864) scale(0.11 -0.11)">
       <defs>
        <path id="DejaVuSans-37" d="M 525 4666 
L 3525 4666 
L 3525 4397 
L 1831 0 
L 1172 0 
L 2766 4134 
L 525 4134 
L 525 4666 
z
" transform="scale(0.015625)"/>
       </defs>
       <use xlink:href="#DejaVuSans-4a"/>
       <use xlink:href="#DejaVuSans-61" transform="translate(29.492188 0)"/>
       <use xlink:href="#DejaVuSans-6e" transform="translate(90.771484 0)"/>
       <use xlink:href="#DejaVuSans-20" transform="translate(154.150391 0)"/>
       <use xlink:href="#DejaVuSans-30" transform="translate(185.9375 0)"/>
       <use xlink:href="#DejaVuSans-37" transform="translate(249.560547 0)"/>
      </g>
     </g>
    </g>
    <g id="xtick_8">
     <g id="line2d_8">
      <g>
       <use xlink:href="#mbbc18f08ac" x="682.567816" y="401.153582" style="fill: #5f6f86; stroke: #5f6f86; stroke-width: 0.8"/>
      </g>
     </g>
     <g id="text_8">
      <!-- Jan 08 -->
      <g style="fill: #5f6f86" transform="translate(665.342503 416.511864) scale(0.11 -0.11)">
       <defs>
        <path id="DejaVuSans-38" d="M 2034 2216 
Q 1584 2216 1326 1975 
Q 1069 1734 1069 1313 
Q 1069 891 1326 650 
Q 1584 409 2034 409 
Q 2484 409 2743 651 
Q 3003 894 3003 1313 
Q 3003 1734 2745 1975 
Q 2488 2216 2034 2216 
z
M 1403 2484 
Q 997 2584 770 2862 
Q 544 3141 544 3541 
Q 544 4100 942 4425 
Q 1341 4750 2034 4750 
Q 2731 4750 3128 4425 
Q 3525 4100 3525 3541 
Q 3525 3141 3298 2862 
Q 3072 2584 2669 2484 
Q 3125 2378 3379 2068 
Q 3634 1759 3634 1313 
Q 3634 634 3220 271 
Q 2806 -91 2034 -91 
Q 1263 -91 848 271 
Q 434 634 434 1313 
Q 434 1759 690 2068 
Q 947 2378 1403 2484 
z
M 1172 3481 
Q 1172 3119 1398 2916 
Q 1625 2713 2034 2713 
Q 2441 2713 2670 2916 
Q 2900 3119 2900 3481 
Q 2900 3844 2670 4047 
Q 2441 4250 2034 4250 
Q 1625 4250 1398 4047 
Q 1172 3844 1172 3481 
z
" transform="scale(0.015625)"/>
       </defs>
       <use xlink:href="#DejaVuSans-4a"/>
       <use xlink:href="#DejaVuSans-61" transform="translate(29.492188 0)"/>
       <use xlink:href="#DejaVuSans-6e" transform="translate(90.771484 0)"/>
       <use xlink:href="#DejaVuSans-20" transform="translate(154.150391 0)"/>
       <use xlink:href="#DejaVuSans-30" transform="translate(185.9375 0)"/>
       <use xlink:href="#DejaVuSans-38" transform="translate(249.560547 0)"/>
      </g>
     </g>
    </g>
    <g id="xtick_9">
     <g id="line2d_9">
      <g>
       <use xlink:href="#mbbc18f08ac" x="763.169366" y="401.153582" style="fill: #5f6f86; stroke: #5f6f86; stroke-width: 0.8"/>
      </g>
     </g>
     <g id="text_9">
      <!-- Jan 09 -->
      <g style="fill: #5f6f86" transform="translate(745.944053 416.511864) scale(0.11 -0.11)">
       <defs>
        <path id="DejaVuSans-39" d="M 703 97 
L 703 672 
Q 941 559 1184 500 
Q 1428 441 1663 441 
Q 2288 441 2617 861 
Q 2947 1281 2994 2138 
Q 2813 1869 2534 1725 
Q 2256 1581 1919 1581 
Q 1219 1581 811 2004 
Q 403 2428 403 3163 
Q 403 3881 828 4315 
Q 1253 4750 1959 4750 
Q 2769 4750 3195 4129 
Q 3622 3509 3622 2328 
Q 3622 1225 3098 567 
Q 2575 -91 1691 -91 
Q 1453 -91 1209 -44 
Q 966 3 703 97 
z
M 1959 2075 
Q 2384 2075 2632 2365 
Q 2881 2656 2881 3163 
Q 2881 3666 2632 3958 
Q 2384 4250 1959 4250 
Q 1534 4250 1286 3958 
Q 1038 3666 1038 3163 
Q 1038 2656 1286 2365 
Q 1534 2075 1959 2075 
z
" transform="scale(0.015625)"/>
       </defs>
       <use xlink:href="#DejaVuSans-4a"/>
       <use xlink:href="#DejaVuSans-61" transform="translate(29.492188 0)"/>
       <use xlink:href="#DejaVuSans-6e" transform="translate(90.771484 0)"/>
       <use xlink:href="#DejaVuSans-20" transform="translate(154.150391 0)"/>
       <use xlink:href="#DejaVuSans-30" transform="translate(185.9375 0)"/>
       <use xlink:href="#DejaVuSans-39" transform="translate(249.560547 0)"/>
      </g>
     </g>
    </g>
    <g id="xtick_10">
     <g id="line2d_10">
      <g>
       <use xlink:href="#mbbc18f08ac" x="843.770916" y="401.153582" style="fill: #5f6f86; stroke: #5f6f86; stroke-width: 0.8"/>
      </g>
     </g>
     <g id="text_10">
      <!-- Jan 10 -->
      <g style="fill: #5f6f86" transform="translate(826.545603 416.511864) scale(0.11 -0.11)">
       <use xlink:href="#DejaVuSans-4a"/>
       <use xlink:href="#DejaVuSans-61" transform="translate(29.492188 0)"/>
       <use xlink:href="#DejaVuSans-6e" transform="translate(90.771484 0)"/>
       <use xlink:href="#DejaVuSans-20" transform="translate(154.150391 0)"/>
       <use xlink:href="#DejaVuSans-31" transform="translate(185.9375 0)"/>
       <use xlink:href="#DejaVuSans-30" transform="translate(249.560547 0)"/>
      </g>
     </g>
    </g>
   </g>
   <g id="matplotlib.axis_2">
    <g id="ytick_1">
     <g id="line2d_11">
      <path d="M 81.07875 366.956053 
L 901.19952 366.956053 
" clip-path="url(#pee0b436e40)" style="fill: none; stroke: #d8deea; stroke-opacity: 0.7; stroke-width: 0.8; stroke-linecap: square"/>
     </g>
     <g id="line2d_12">
      <defs>
       <path id="m541c3da26a" d="M 0 0 
L -3.5 0 
" style="stroke: #5f6f86; stroke-width: 0.8"/>
      </defs>
      <g>
       <use xlink:href="#m541c3da26a" x="81.07875" y="366.956053" style="fill: #5f6f86; stroke: #5f6f86; stroke-width: 0.8"/>
      </g>
     </g>
     <g id="text_11">
      <!-- 800 kW -->
      <g style="fill: #5f6f86" transform="translate(32.340625 371.135193) scale(0.11 -0.11)">
       <defs>
        <path id="DejaVuSans-6b" d="M 581 4863 
L 1159 4863 
L 1159 1991 
L 2875 3500 
L 3609 3500 
L 1753 1863 
L 3688 0 
L 2938 0 
L 1159 1709 
L 1159 0 
L 581 0 
L 581 4863 
z
" transform="scale(0.015625)"/>
        <path id="DejaVuSans-57" d="M 213 4666 
L 850 4666 
L 1831 722 
L 2809 4666 
L 3519 4666 
L 4500 722 
L 5478 4666 
L 6119 4666 
L 4947 0 
L 4153 0 
L 3169 4050 
L 2175 0 
L 1381 0 
L 213 4666 
z
" transform="scale(0.015625)"/>
       </defs>
       <use xlink:href="#DejaVuSans-38"/>
       <use xlink:href="#DejaVuSans-30" transform="translate(63.623047 0)"/>
       <use xlink:href="#DejaVuSans-30" transform="translate(127.246094 0)"/>
       <use xlink:href="#DejaVuSans-20" transform="translate(190.869141 0)"/>
       <use xlink:href="#DejaVuSans-6b" transform="translate(222.65625 0)"/>
       <use xlink:href="#DejaVuSans-57" transform="translate(280.566406 0)"/>
      </g>
     </g>
    </g>
    <g id="ytick_2">
     <g id="line2d_13">
      <path d="M 81.07875 300.878933 
L 901.19952 300.878933 
" clip-path="url(#pee0b436e40)" style="fill: none; stroke: #d8deea; stroke-opacity: 0.7; stroke-width: 0.8; stroke-linecap: square"/>
     </g>
     <g id="line2d_14">
      <g>
       <use xlink:href="#m541c3da26a" x="81.07875" y="300.878933" style="fill: #5f6f86; stroke: #5f6f86; stroke-width: 0.8"/>
      </g>
     </g>
     <g id="text_12">
      <!-- 850 kW -->
      <g style="fill: #5f6f86" transform="translate(32.340625 305.058074) scale(0.11 -0.11)">
       <use xlink:href="#DejaVuSans-38"/>
       <use xlink:href="#DejaVuSans-35" transform="translate(63.623047 0)"/>
       <use xlink:href="#DejaVuSans-30" transform="translate(127.246094 0)"/>
       <use xlink:href="#DejaVuSans-20" transform="translate(190.869141 0)"/>
       <use xlink:href="#DejaVuSans-6b" transform="translate(222.65625 0)"/>
       <use xlink:href="#DejaVuSans-57" transform="translate(280.566406 0)"/>
      </g>
     </g>
    </g>
    <g id="ytick_3">
     <g id="line2d_15">
      <path d="M 81.07875 234.801813 
L 901.19952 234.801813 
" clip-path="url(#pee0b436e40)" style="fill: none; stroke: #d8deea; stroke-opacity: 0.7; stroke-width: 0.8; stroke-linecap: square"/>
     </g>
     <g id="line2d_16">
      <g>
       <use xlink:href="#m541c3da26a" x="81.07875" y="234.801813" style="fill: #5f6f86; stroke: #5f6f86; stroke-width: 0.8"/>
      </g>
     </g>
     <g id="text_13">
      <!-- 900 kW -->
      <g style="fill: #5f6f86" transform="translate(32.340625 238.980954) scale(0.11 -0.11)">
       <use xlink:href="#DejaVuSans-39"/>
       <use xlink:href="#DejaVuSans-30" transform="translate(63.623047 0)"/>
       <use xlink:href="#DejaVuSans-30" transform="translate(127.246094 0)"/>
       <use xlink:href="#DejaVuSans-20" transform="translate(190.869141 0)"/>
       <use xlink:href="#DejaVuSans-6b" transform="translate(222.65625 0)"/>
       <use xlink:href="#DejaVuSans-57" transform="translate(280.566406 0)"/>
      </g>
     </g>
    </g>
    <g id="ytick_4">
     <g id="line2d_17">
      <path d="M 81.07875 168.724693 
L 901.19952 168.724693 
" clip-path="url(#pee0b436e40)" style="fill: none; stroke: #d8deea; stroke-opacity: 0.7; stroke-width: 0.8; stroke-linecap: square"/>
     </g>
     <g id="line2d_18">
      <g>
       <use xlink:href="#m541c3da26a" x="81.07875" y="168.724693" style="fill: #5f6f86; stroke: #5f6f86; stroke-width: 0.8"/>
      </g>
     </g>
     <g id="text_14">
      <!-- 950 kW -->
      <g style="fill: #5f6f86" transform="translate(32.340625 172.903834) scale(0.11 -0.11)">
       <use xlink:href="#DejaVuSans-39"/>
       <use xlink:href="#DejaVuSans-35" transform="translate(63.623047 0)"/>
       <use xlink:href="#DejaVuSans-30" transform="translate(127.246094 0)"/>
       <use xlink:href="#DejaVuSans-20" transform="translate(190.869141 0)"/>
       <use xlink:href="#DejaVuSans-6b" transform="translate(222.65625 0)"/>
       <use xlink:href="#DejaVuSans-57" transform="translate(280.566406 0)"/>
      </g>
     </g>
    </g>
    <g id="ytick_5">
     <g id="line2d_19">
      <path d="M 81.07875 102.647574 
L 901.19952 102.647574 
" clip-path="url(#pee0b436e40)" style="fill: none; stroke: #d8deea; stroke-opacity: 0.7; stroke-width: 0.8; stroke-linecap: square"/>
     </g>
     <g id="line2d_20">
      <g>
       <use xlink:href="#m541c3da26a" x="81.07875" y="102.647574" style="fill: #5f6f86; stroke: #5f6f86; stroke-width: 0.8"/>
      </g>
     </g>
     <g id="text_15">
      <!-- 1,000 kW -->
      <g style="fill: #5f6f86" transform="translate(21.845937 106.826714) scale(0.11 -0.11)">
       <defs>
        <path id="DejaVuSans-2c" d="M 750 794 
L 1409 794 
L 1409 256 
L 897 -744 
L 494 -744 
L 750 256 
L 750 794 
z
" transform="scale(0.015625)"/>
       </defs>
       <use xlink:href="#DejaVuSans-31"/>
       <use xlink:href="#DejaVuSans-2c" transform="translate(63.623047 0)"/>
       <use xlink:href="#DejaVuSans-30" transform="translate(95.410156 0)"/>
       <use xlink:href="#DejaVuSans-30" transform="translate(159.033203 0)"/>
       <use xlink:href="#DejaVuSans-30" transform="translate(222.65625 0)"/>
       <use xlink:href="#DejaVuSans-20" transform="translate(286.279297 0)"/>
       <use xlink:href="#DejaVuSans-6b" transform="translate(318.066406 0)"/>
       <use xlink:href="#DejaVuSans-57" transform="translate(375.976562 0)"/>
      </g>
     </g>
    </g>
    <g id="ytick_6">
     <g id="line2d_21">
      <path d="M 81.07875 36.570454 
L 901.19952 36.570454 
" clip-path="url(#pee0b436e40)" style="fill: none; stroke: #d8deea; stroke-opacity: 0.7; stroke-width: 0.8; stroke-linecap: square"/>
     </g>
     <g id="line2d_22">
      <g>
       <use xlink:href="#m541c3da26a" x="81.07875" y="36.570454" style="fill: #5f6f86; stroke: #5f6f86; stroke-width: 0.8"/>
      </g>
     </g>
     <g id="text_16">
      <!-- 1,050 kW -->
      <g style="fill: #5f6f86" transform="translate(21.845937 40.749594) scale(0.11 -0.11)">
       <use xlink:href="#DejaVuSans-31"/>
       <use xlink:href="#DejaVuSans-2c" transform="translate(63.623047 0)"/>
       <use xlink:href="#DejaVuSans-30" transform="translate(95.410156 0)"/>
       <use xlink:href="#DejaVuSans-35" transform="translate(159.033203 0)"/>
       <use xlink:href="#DejaVuSans-30" transform="translate(222.65625 0)"/>
       <use xlink:href="#DejaVuSans-20" transform="translate(286.279297 0)"/>
       <use xlink:href="#DejaVuSans-6b" transform="translate(318.066406 0)"/>
       <use xlink:href="#DejaVuSans-57" transform="translate(375.976562 0)"/>
      </g>
     </g>
    </g>
    <g id="text_17">
     <!-- Aggregate reefer load -->
     <g style="fill: #10243f" transform="translate(15.558281 278.04351) rotate(-90) scale(0.11 -0.11)">
      <defs>
       <path id="DejaVuSans-41" d="M 2188 4044 
L 1331 1722 
L 3047 1722 
L 2188 4044 
z
M 1831 4666 
L 2547 4666 
L 4325 0 
L 3669 0 
L 3244 1197 
L 1141 1197 
L 716 0 
L 50 0 
L 1831 4666 
z
" transform="scale(0.015625)"/>
       <path id="DejaVuSans-67" d="M 2906 1791 
Q 2906 2416 2648 2759 
Q 2391 3103 1925 3103 
Q 1463 3103 1205 2759 
Q 947 2416 947 1791 
Q 947 1169 1205 825 
Q 1463 481 1925 481 
Q 2391 481 2648 825 
Q 2906 1169 2906 1791 
z
M 3481 434 
Q 3481 -459 3084 -895 
Q 2688 -1331 1869 -1331 
Q 1566 -1331 1297 -1286 
Q 1028 -1241 775 -1147 
L 775 -588 
Q 1028 -725 1275 -790 
Q 1522 -856 1778 -856 
Q 2344 -856 2625 -561 
Q 2906 -266 2906 331 
L 2906 616 
Q 2728 306 2450 153 
Q 2172 0 1784 0 
Q 1141 0 747 490 
Q 353 981 353 1791 
Q 353 2603 747 3093 
Q 1141 3584 1784 3584 
Q 2172 3584 2450 3431 
Q 2728 3278 2906 2969 
L 2906 3500 
L 3481 3500 
L 3481 434 
z
" transform="scale(0.015625)"/>
       <path id="DejaVuSans-72" d="M 2631 2963 
Q 2534 3019 2420 3045 
Q 2306 3072 2169 3072 
Q 1681 3072 1420 2755 
Q 1159 2438 1159 1844 
L 1159 0 
L 581 0 
L 581 3500 
L 1159 3500 
L 1159 2956 
Q 1341 3275 1631 3429 
Q 1922 3584 2338 3584 
Q 2397 3584 2469 3576 
Q 2541 3569 2628 3553 
L 2631 2963 
z
" transform="scale(0.015625)"/>
       <path id="DejaVuSans-65" d="M 3597 1894 
L 3597 1613 
L 953 1613 
Q 991 1019 1311 708 
Q 1631 397 2203 397 
Q 2534 397 2845 478 
Q 3156 559 3463 722 
L 3463 178 
Q 3153 47 2828 -22 
Q 2503 -91 2169 -91 
Q 1331 -91 842 396 
Q 353 884 353 1716 
Q 353 2575 817 3079 
Q 1281 3584 2069 3584 
Q 2775 3584 3186 3129 
Q 3597 2675 3597 1894 
z
M 3022 2063 
Q 3016 2534 2758 2815 
Q 2500 3097 2075 3097 
Q 1594 3097 1305 2825 
Q 1016 2553 972 2059 
L 3022 2063 
z
" transform="scale(0.015625)"/>
       <path id="DejaVuSans-74" d="M 1172 4494 
L 1172 3500 
L 2356 3500 
L 2356 3053 
L 1172 3053 
L 1172 1153 
Q 1172 725 1289 603 
Q 1406 481 1766 481 
L 2356 481 
L 2356 0 
L 1766 0 
Q 1100 0 847 248 
Q 594 497 594 1153 
L 594 3053 
L 172 3053 
L 172 3500 
L 594 3500 
L 594 4494 
L 1172 4494 
z
" transform="scale(0.015625)"/>
       <path id="DejaVuSans-66" d="M 2375 4863 
L 2375 4384 
L 1825 4384 
Q 1516 4384 1395 4259 
Q 1275 4134 1275 3809 
L 1275 3500 
L 2222 3500 
L 2222 3053 
L 1275 3053 
L 1275 0 
L 697 0 
L 697 3053 
L 147 3053 
L 147 3500 
L 697 3500 
L 697 3744 
Q 697 4328 969 4595 
Q 1241 4863 1831 4863 
L 2375 4863 
z
" transform="scale(0.015625)"/>
       <path id="DejaVuSans-6c" d="M 603 4863 
L 1178 4863 
L 1178 0 
L 603 0 
L 603 4863 
z
" transform="scale(0.015625)"/>
       <path id="DejaVuSans-6f" d="M 1959 3097 
Q 1497 3097 1228 2736 
Q 959 2375 959 1747 
Q 959 1119 1226 758 
Q 1494 397 1959 397 
Q 2419 397 2687 759 
Q 2956 1122 2956 1747 
Q 2956 2369 2687 2733 
Q 2419 3097 1959 3097 
z
M 1959 3584 
Q 2709 3584 3137 3096 
Q 3566 2609 3566 1747 
Q 3566 888 3137 398 
Q 2709 -91 1959 -91 
Q 1206 -91 779 398 
Q 353 888 353 1747 
Q 353 2609 779 3096 
Q 1206 3584 1959 3584 
z
" transform="scale(0.015625)"/>
       <path id="DejaVuSans-64" d="M 2906 2969 
L 2906 4863 
L 3481 4863 
L 3481 0 
L 2906 0 
L 2906 525 
Q 2725 213 2448 61 
Q 2172 -91 1784 -91 
Q 1150 -91 751 415 
Q 353 922 353 1747 
Q 353 2572 751 3078 
Q 1150 3584 1784 3584 
Q 2172 3584 2448 3432 
Q 2725 3281 2906 2969 
z
M 947 1747 
Q 947 1113 1208 752 
Q 1469 391 1925 391 
Q 2381 391 2643 752 
Q 2906 1113 2906 1747 
Q 2906 2381 2643 2742 
Q 2381 3103 1925 3103 
Q 1469 3103 1208 2742 
Q 947 2381 947 1747 
z
" transform="scale(0.015625)"/>
      </defs>
      <use xlink:href="#DejaVuSans-41"/>
      <use xlink:href="#DejaVuSans-67" transform="translate(68.408203 0)"/>
      <use xlink:href="#DejaVuSans-67" transform="translate(131.884766 0)"/>
      <use xlink:href="#DejaVuSans-72" transform="translate(195.361328 0)"/>
      <use xlink:href="#DejaVuSans-65" transform="translate(234.224609 0)"/>
      <use xlink:href="#DejaVuSans-67" transform="translate(295.748047 0)"/>
      <use xlink:href="#DejaVuSans-61" transform="translate(359.224609 0)"/>
      <use xlink:href="#DejaVuSans-74" transform="translate(420.503906 0)"/>
      <use xlink:href="#DejaVuSans-65" transform="translate(459.712891 0)"/>
      <use xlink:href="#DejaVuSans-20" transform="translate(521.236328 0)"/>
      <use xlink:href="#DejaVuSans-72" transform="translate(553.023438 0)"/>
      <use xlink:href="#DejaVuSans-65" transform="translate(591.886719 0)"/>
      <use xlink:href="#DejaVuSans-65" transform="translate(653.410156 0)"/>
      <use xlink:href="#DejaVuSans-66" transform="translate(714.933594 0)"/>
      <use xlink:href="#DejaVuSans-65" transform="translate(750.138672 0)"/>
      <use xlink:href="#DejaVuSans-72" transform="translate(811.662109 0)"/>
      <use xlink:href="#DejaVuSans-20" transform="translate(852.775391 0)"/>
      <use xlink:href="#DejaVuSans-6c" transform="translate(884.5625 0)"/>
      <use xlink:href="#DejaVuSans-6f" transform="translate(912.345703 0)"/>
      <use xlink:href="#DejaVuSans-61" transform="translate(973.527344 0)"/>
      <use xlink:href="#DejaVuSans-64" transform="translate(1034.806641 0)"/>
     </g>
    </g>
   </g>
   <g id="line2d_23">
    <path d="M 118.356967 177.553807 
L 121.715365 195.435052 
L 125.073763 195.955898 
L 128.432161 188.172441 
L 131.790558 183.929638 
L 135.148956 183.897023 
L 138.507354 189.095236 
L 141.865752 170.752417 
L 145.22415 170.097108 
L 148.582548 173.981108 
L 151.940946 180.758451 
L 155.299344 172.00011 
L 158.657742 186.431381 
L 162.01614 186.041003 
L 165.374538 187.220769 
L 168.732935 194.216393 
L 172.091333 190.590961 
L 175.449731 180.401354 
L 182.166527 196.446968 
L 185.524925 184.709338 
L 188.883323 182.141369 
L 192.241721 200.939328 
L 195.600119 191.239159 
L 198.958517 209.752919 
L 202.316915 201.382262 
L 205.675313 190.658851 
L 209.03371 192.868699 
L 212.392108 201.208201 
L 215.750506 221.854625 
L 219.108904 249.263861 
L 222.467302 267.149556 
L 225.8257 234.428629 
L 229.184098 263.47403 
L 232.542496 280.140439 
L 235.900894 304.441292 
L 239.259292 344.40915 
L 242.61769 320.472052 
L 245.976087 343.717495 
L 249.334485 346.484331 
L 252.692883 363.695549 
L 256.051281 268.284873 
L 259.409679 297.767525 
L 262.768077 292.520931 
L 266.126475 288.711547 
L 269.484873 295.36443 
L 272.843271 327.240086 
L 276.201669 335.22101 
L 279.560067 338.196817 
L 282.918464 316.020204 
L 286.276862 311.881908 
L 289.63526 313.330195 
L 292.993658 315.466363 
L 296.352056 311.177876 
L 299.710454 301.212809 
L 303.068852 319.859942 
L 306.42725 317.608359 
L 309.785648 331.007196 
L 313.144046 307.620732 
L 316.502444 290.428002 
L 319.860842 278.605273 
L 323.219239 284.083738 
L 326.577637 294.877174 
L 329.936035 298.821295 
L 333.294433 308.204374 
L 336.652831 320.342712 
L 340.011229 326.843187 
L 343.369627 332.850207 
L 346.728025 314.95074 
L 350.086423 332.757159 
L 353.444821 355.090803 
L 360.161616 354.625566 
L 363.520014 376.66568 
L 366.878412 383.007663 
L 370.23681 356.316508 
L 373.595208 350.443878 
L 376.953606 357.295733 
L 380.312004 358.076113 
L 383.670402 347.436306 
L 387.0288 343.326407 
L 390.387198 352.1266 
L 393.745596 344.634815 
L 397.103993 359.919555 
L 400.462391 368.307743 
L 403.820789 333.628717 
L 407.179187 336.611211 
L 410.537585 349.783513 
L 413.895983 342.664985 
L 417.254381 355.138106 
L 420.612779 357.427259 
L 423.971177 353.22123 
L 427.329575 334.97907 
L 430.687973 335.58034 
L 434.046371 339.546695 
L 437.404768 347.656414 
L 440.763166 351.813291 
L 444.121564 343.003415 
L 447.479962 337.005354 
L 450.83836 353.298035 
L 454.196758 347.763251 
L 457.555156 366.821512 
L 460.913554 377.28867 
L 464.271952 372.542236 
L 467.63035 361.56018 
L 470.988748 369.339558 
L 474.347145 361.263155 
L 477.705543 358.972555 
L 481.063941 349.093827 
L 484.422339 350.973471 
L 487.780737 347.64431 
L 491.139135 379.752733 
L 494.497533 383.025856 
L 497.855931 379.816082 
L 501.214329 381.417973 
L 504.572727 352.00328 
L 507.931125 344.772791 
L 511.289522 363.135611 
L 514.64792 317.59327 
L 518.006318 254.58031 
L 521.364716 344.033931 
L 524.723114 315.858038 
L 528.081512 314.290966 
L 531.43991 337.666819 
L 534.798308 306.476073 
L 538.156706 308.699385 
L 541.515104 343.208268 
L 544.873502 374.884052 
L 548.231899 363.590374 
L 551.590297 339.944501 
L 554.948695 340.959849 
L 558.307093 311.326261 
L 561.665491 288.753711 
L 565.023889 252.338494 
L 568.382287 307.155984 
L 571.740685 367.884225 
L 575.099083 354.880585 
L 578.457481 384.470117 
L 581.815879 372.191161 
L 585.174277 327.660983 
L 588.532674 289.707881 
L 591.891072 325.3618 
L 595.24947 325.352619 
L 598.607868 346.772895 
L 601.966266 279.843842 
L 605.324664 280.860339 
L 608.683062 277.322894 
L 612.04146 313.275212 
L 615.399858 281.687721 
L 618.758256 320.115556 
L 622.116654 340.714182 
L 625.475051 320.846195 
L 628.833449 332.656245 
L 632.191847 355.07823 
L 635.550245 310.391974 
L 638.908643 328.294644 
L 642.267041 315.623866 
L 645.625439 306.012234 
L 648.983837 308.877906 
L 652.342235 326.685918 
L 655.700633 292.887388 
L 659.059031 275.519617 
L 662.417428 275.691982 
L 665.775826 236.400704 
L 669.134224 245.10636 
L 672.492622 216.432757 
L 675.85102 263.230314 
L 679.209418 230.877073 
L 682.567816 242.480104 
L 685.926214 284.061081 
L 689.284612 288.049908 
L 692.64301 301.585785 
L 696.001408 311.029718 
L 699.359806 300.070209 
L 702.718203 316.854165 
L 709.434999 338.84978 
L 712.793397 287.070888 
L 716.151795 292.287627 
L 719.510193 352.847766 
L 722.868591 297.606 
L 726.226989 280.631366 
L 729.585387 306.791656 
L 732.943785 295.08749 
L 736.302183 243.811364 
L 739.66058 286.154372 
L 743.018978 294.143531 
L 746.377376 233.134983 
L 749.735774 148.698205 
L 753.094172 169.585463 
L 756.45257 131.332984 
L 759.810968 159.412165 
L 763.169366 108.235269 
L 766.527764 113.823996 
L 769.886162 162.944495 
L 773.24456 166.209859 
L 776.602957 186.865047 
L 779.961355 173.513895 
L 783.319753 189.710158 
L 786.678151 169.706048 
L 790.036549 173.055687 
L 793.394947 138.313189 
L 796.753345 106.258944 
L 800.111743 102.751967 
L 803.470141 129.796948 
L 806.828539 138.171642 
L 810.186937 113.062468 
L 813.545335 135.835674 
L 816.903732 140.332734 
L 820.26213 123.20048 
L 823.620528 128.180345 
L 830.337324 83.33506 
L 833.695722 73.343169 
L 837.05412 72.273651 
L 840.412518 163.073933 
L 843.770916 148.934703 
L 847.129314 92.608513 
L 850.487712 130.738063 
L 853.846109 97.062059 
L 857.204507 65.414554 
L 860.562905 66.332928 
L 863.921303 68.870009 
L 863.921303 68.870009 
" clip-path="url(#pee0b436e40)" style="fill: none; stroke: #10243f; stroke-width: 2.6; stroke-linecap: square"/>
   </g>
   <g id="line2d_24">
    <path d="M 118.356967 262.512819 
L 121.715365 269.034362 
L 125.073763 263.943844 
L 128.432161 259.295403 
L 131.790558 252.131224 
L 135.148956 242.732056 
L 138.507354 257.974053 
L 141.865752 245.261515 
L 145.22415 229.8469 
L 148.582548 229.796006 
L 151.940946 207.809688 
L 155.299344 206.987074 
L 158.657742 210.661062 
L 162.01614 210.074357 
L 165.374538 205.518384 
L 168.732935 214.817983 
L 172.091333 209.707006 
L 175.449731 208.763442 
L 178.808129 209.252314 
L 182.166527 214.043921 
L 188.883323 215.615057 
L 192.241721 219.557251 
L 195.600119 223.040781 
L 198.958517 236.633254 
L 205.675313 245.525481 
L 209.03371 242.007741 
L 212.392108 243.784609 
L 215.750506 254.441483 
L 219.108904 246.523391 
L 222.467302 246.51618 
L 225.8257 253.863022 
L 229.184098 243.895979 
L 232.542496 259.09169 
L 235.900894 257.996053 
L 239.259292 265.303596 
L 242.61769 265.462511 
L 245.976087 267.932696 
L 249.334485 269.470661 
L 252.692883 269.173118 
L 256.051281 261.664005 
L 259.409679 264.080794 
L 262.768077 266.152619 
L 266.126475 262.395054 
L 269.484873 259.961969 
L 272.843271 261.600072 
L 276.201669 251.099362 
L 279.560067 261.069807 
L 286.276862 251.466195 
L 289.63526 251.379967 
L 292.993658 255.261598 
L 296.352056 257.478281 
L 299.710454 262.845 
L 303.068852 262.452471 
L 306.42725 249.247575 
L 309.785648 250.618239 
L 313.144046 248.445968 
L 316.502444 252.881812 
L 319.860842 272.184152 
L 323.219239 263.20612 
L 329.936035 271.804499 
L 333.294433 280.81897 
L 336.652831 259.380161 
L 340.011229 272.001005 
L 343.369627 265.324903 
L 346.728025 259.935606 
L 350.086423 265.147902 
L 353.444821 279.338708 
L 356.803219 281.402574 
L 360.161616 290.662562 
L 363.520014 288.757606 
L 366.878412 281.849118 
L 370.23681 280.68528 
L 373.595208 287.89526 
L 376.953606 288.445397 
L 380.312004 292.092343 
L 383.670402 296.707256 
L 387.0288 295.489998 
L 390.387198 301.346117 
L 393.745596 291.507604 
L 397.103993 302.176504 
L 400.462391 286.352279 
L 410.537585 304.250131 
L 413.895983 304.570159 
L 417.254381 316.558019 
L 420.612779 317.2652 
L 423.971177 319.108492 
L 427.329575 318.039033 
L 430.687973 321.863051 
L 434.046371 325.960625 
L 437.404768 323.25847 
L 440.763166 319.26369 
L 444.121564 329.122689 
L 447.479962 329.965282 
L 450.83836 318.10174 
L 454.196758 310.990012 
L 457.555156 313.220562 
L 460.913554 322.409303 
L 464.271952 314.603189 
L 467.63035 302.813679 
L 470.988748 308.032778 
L 474.347145 301.744846 
L 477.705543 304.530081 
L 481.063941 297.19361 
L 484.422339 293.710689 
L 487.780737 297.714527 
L 491.139135 301.068869 
L 494.497533 296.42571 
L 501.214329 318.553097 
L 504.572727 311.468982 
L 507.931125 313.765704 
L 511.289522 316.508133 
L 514.64792 327.232617 
L 518.006318 349.178412 
L 521.364716 352.102277 
L 524.723114 349.917811 
L 528.081512 347.462954 
L 531.43991 356.051852 
L 534.798308 357.614499 
L 538.156706 362.399747 
L 541.515104 373.400692 
L 544.873502 379.721674 
L 548.231899 364.695976 
L 551.590297 363.817251 
L 554.948695 357.778805 
L 558.307093 347.776511 
L 561.665491 338.204085 
L 565.023889 337.102056 
L 568.382287 334.764818 
L 571.740685 350.540805 
L 575.099083 345.777762 
L 578.457481 346.338219 
L 581.815879 347.936356 
L 585.174277 336.770869 
L 588.532674 328.777931 
L 591.891072 338.779221 
L 595.24947 318.550486 
L 598.607868 292.253687 
L 601.966266 324.225202 
L 605.324664 316.685082 
L 608.683062 313.728444 
L 612.04146 319.396752 
L 615.399858 304.555654 
L 618.758256 300.217915 
L 622.116654 322.596571 
L 625.475051 332.907763 
L 628.833449 320.928957 
L 632.191847 310.064709 
L 638.908643 286.461442 
L 642.267041 279.706397 
L 645.625439 260.405516 
L 648.983837 278.36584 
L 652.342235 303.699884 
L 655.700633 294.74225 
L 659.059031 304.787687 
L 662.417428 299.60437 
L 665.775826 280.432222 
L 669.134224 265.635421 
L 672.492622 277.457102 
L 675.85102 281.184896 
L 679.209418 288.017344 
L 682.567816 271.528618 
L 685.926214 281.604815 
L 689.284612 280.324107 
L 692.64301 291.351711 
L 696.001408 282.010775 
L 699.359806 295.257661 
L 702.718203 299.002349 
L 706.076601 289.947981 
L 709.434999 294.132591 
L 712.793397 299.999039 
L 716.151795 285.354973 
L 719.510193 292.316199 
L 722.868591 290.092715 
L 726.226989 284.512483 
L 729.585387 285.960831 
L 732.943785 290.012918 
L 736.302183 269.540593 
L 739.66058 260.002238 
L 743.018978 252.716865 
L 746.377376 221.825481 
L 749.735774 204.985639 
L 753.094172 191.11455 
L 756.45257 207.123565 
L 759.810968 192.882206 
L 763.169366 196.078248 
L 766.527764 210.247595 
L 769.886162 207.968219 
L 773.24456 213.399976 
L 776.602957 219.563569 
L 779.961355 229.802463 
L 783.319753 227.823599 
L 786.678151 232.876441 
L 790.036549 232.152553 
L 793.394947 211.679297 
L 796.753345 212.796833 
L 800.111743 233.004431 
L 803.470141 224.339753 
L 806.828539 215.124412 
L 810.186937 225.926673 
L 813.545335 219.242145 
L 816.903732 208.547095 
L 820.26213 205.016026 
L 823.620528 212.522411 
L 826.978926 193.882987 
L 830.337324 160.651265 
L 833.695722 167.105129 
L 837.05412 160.781314 
L 840.412518 176.231248 
L 843.770916 161.711567 
L 847.129314 157.31069 
L 850.487712 171.695665 
L 853.846109 165.413934 
L 857.204507 170.24944 
L 860.562905 166.507784 
L 863.921303 172.634029 
L 863.921303 172.634029 
" clip-path="url(#pee0b436e40)" style="fill: none; stroke-dasharray: 6.4,4.8; stroke-dashoffset: 0; stroke: #5f6f86; stroke-width: 1.6"/>
   </g>
   <g id="line2d_25">
    <path d="M 118.356967 262.512819 
L 121.715365 269.034362 
L 125.073763 263.943844 
L 128.432161 259.295403 
L 131.790558 252.131224 
L 135.148956 242.732056 
L 138.507354 257.974053 
L 141.865752 245.261515 
L 145.22415 229.8469 
L 148.582548 229.796006 
L 151.940946 207.809688 
L 155.299344 206.987074 
L 158.657742 210.661062 
L 162.01614 210.074357 
L 165.374538 205.518384 
L 168.732935 214.817983 
L 172.091333 209.707006 
L 175.449731 208.763442 
L 178.808129 209.252314 
L 182.166527 214.043921 
L 188.883323 215.615057 
L 192.241721 219.557251 
L 195.600119 223.040781 
L 198.958517 236.633254 
L 205.675313 245.525481 
L 209.03371 242.007741 
L 212.392108 243.784609 
L 215.750506 254.441483 
L 219.108904 246.523391 
L 222.467302 246.51618 
L 225.8257 253.863022 
L 229.184098 243.895979 
L 232.542496 259.09169 
L 235.900894 257.996053 
L 239.259292 265.303596 
L 242.61769 265.462511 
L 245.976087 267.932696 
L 249.334485 269.470661 
L 252.692883 269.173118 
L 256.051281 261.664005 
L 259.409679 264.080794 
L 262.768077 266.152619 
L 266.126475 262.395054 
L 269.484873 259.961969 
L 272.843271 261.600072 
L 276.201669 251.099362 
L 279.560067 261.069807 
L 286.276862 251.466195 
L 289.63526 251.379967 
L 292.993658 255.261598 
L 296.352056 257.478281 
L 299.710454 262.845 
L 303.068852 262.452471 
L 306.42725 249.247575 
L 309.785648 250.618239 
L 313.144046 248.445968 
L 316.502444 252.881812 
L 319.860842 272.184152 
L 323.219239 263.20612 
L 329.936035 271.804499 
L 333.294433 280.81897 
L 336.652831 259.380161 
L 340.011229 272.001005 
L 343.369627 265.324903 
L 346.728025 259.935606 
L 350.086423 265.147902 
L 353.444821 279.338708 
L 356.803219 281.402574 
L 360.161616 290.662562 
L 363.520014 288.757606 
L 366.878412 281.849118 
L 370.23681 280.68528 
L 373.595208 287.89526 
L 376.953606 288.445397 
L 380.312004 292.092343 
L 383.670402 296.707256 
L 387.0288 295.489998 
L 390.387198 301.346117 
L 393.745596 291.507604 
L 397.103993 302.176504 
L 400.462391 286.352279 
L 410.537585 304.250131 
L 413.895983 304.570159 
L 417.254381 316.558019 
L 420.612779 317.2652 
L 423.971177 319.108492 
L 427.329575 318.039033 
L 430.687973 321.863051 
L 434.046371 325.960625 
L 437.404768 323.25847 
L 440.763166 319.26369 
L 444.121564 329.122689 
L 447.479962 329.965282 
L 450.83836 318.10174 
L 454.196758 310.990012 
L 457.555156 313.220562 
L 460.913554 322.409303 
L 464.271952 314.603189 
L 467.63035 302.813679 
L 470.988748 308.032778 
L 474.347145 301.744846 
L 477.705543 304.530081 
L 481.063941 297.19361 
L 484.422339 293.710689 
L 487.780737 297.714527 
L 491.139135 301.068869 
L 494.497533 296.42571 
L 501.214329 318.553097 
L 504.572727 311.468982 
L 507.931125 313.765704 
L 511.289522 316.508133 
L 514.64792 327.232617 
L 518.006318 349.178412 
L 521.364716 352.102277 
L 524.723114 349.917811 
L 528.081512 347.462954 
L 531.43991 356.051852 
L 534.798308 357.614499 
L 538.156706 362.399747 
L 541.515104 373.400692 
L 544.873502 379.721674 
L 548.231899 364.695976 
L 551.590297 363.817251 
L 554.948695 357.778805 
L 558.307093 347.776511 
L 561.665491 338.204085 
L 565.023889 337.102056 
L 568.382287 334.764818 
L 571.740685 350.540805 
L 575.099083 345.777762 
L 578.457481 346.338219 
L 581.815879 347.936356 
L 585.174277 336.770869 
L 588.532674 328.777931 
L 591.891072 338.779221 
L 595.24947 318.550486 
L 598.607868 292.253687 
L 601.966266 324.225202 
L 605.324664 316.685082 
L 608.683062 313.728444 
L 612.04146 319.396752 
L 615.399858 304.555654 
L 618.758256 300.217915 
L 622.116654 322.596571 
L 625.475051 332.907763 
L 628.833449 320.928957 
L 632.191847 310.064709 
L 638.908643 286.461442 
L 642.267041 279.706397 
L 645.625439 260.405516 
L 648.983837 278.36584 
L 652.342235 303.699884 
L 655.700633 294.74225 
L 659.059031 304.787687 
L 662.417428 299.60437 
L 665.775826 280.432222 
L 669.134224 265.635421 
L 672.492622 277.457102 
L 675.85102 281.184896 
L 679.209418 288.017344 
L 682.567816 271.528618 
L 685.926214 281.604815 
L 689.284612 280.324107 
L 692.64301 291.351711 
L 696.001408 282.010775 
L 699.359806 295.257661 
L 702.718203 299.002349 
L 706.076601 289.947981 
L 709.434999 294.132591 
L 712.793397 299.999039 
L 716.151795 285.354973 
L 719.510193 292.316199 
L 722.868591 290.092715 
L 726.226989 284.512483 
L 729.585387 285.960831 
L 732.943785 290.012918 
L 736.302183 269.540593 
L 739.66058 260.002238 
L 743.018978 252.716865 
L 746.377376 221.825481 
L 749.735774 204.985639 
L 753.094172 191.286016 
L 756.45257 207.123565 
L 759.810968 219.50517 
L 763.169366 187.088925 
L 766.527764 210.247595 
L 769.886162 207.968219 
L 773.24456 213.399976 
L 776.602957 219.563569 
L 779.961355 229.802463 
L 783.319753 227.823599 
L 786.678151 232.876441 
L 790.036549 232.152553 
L 793.394947 211.679297 
L 796.753345 212.796833 
L 800.111743 233.004431 
L 803.470141 224.339753 
L 806.828539 215.124412 
L 810.186937 225.926673 
L 813.545335 219.242145 
L 816.903732 208.547095 
L 820.26213 205.016026 
L 823.620528 212.522411 
L 826.978926 142.132 
L 830.337324 76.246051 
L 833.695722 98.831669 
L 837.05412 72.037413 
L 840.412518 108.095156 
L 843.770916 68.701026 
L 847.129314 69.276514 
L 850.487712 115.901696 
L 853.846109 121.057921 
L 857.204507 136.578362 
L 860.562905 118.6246 
L 863.921303 130.057674 
L 863.921303 130.057674 
" clip-path="url(#pee0b436e40)" style="fill: none; stroke: #178c82; stroke-width: 2.4; stroke-linecap: square"/>
   </g>
   <g id="line2d_26">
    <path d="M 81.07875 142.005829 
L 901.19952 142.005829 
" clip-path="url(#pee0b436e40)" style="fill: none; stroke-dasharray: 2.4,3.6; stroke-dashoffset: 0; stroke: #b7412e; stroke-width: 1.2"/>
   </g>
   <g id="patch_3">
    <path d="M 81.07875 401.153582 
L 81.07875 34.117344 
" style="fill: none; stroke: #d8deea; stroke-linejoin: miter; stroke-linecap: square"/>
   </g>
   <g id="patch_4">
    <path d="M 81.07875 401.153582 
L 901.19952 401.153582 
" style="fill: none; stroke: #d8deea; stroke-linejoin: miter; stroke-linecap: square"/>
   </g>
   <g id="text_18">
    <!-- January 2026 Public Window: Anchor Forecast, Tail Handoff, And The Winning Hybrid -->
    <g style="fill: #10243f" transform="translate(81.07875 20.117344) scale(0.17 -0.17)">
     <defs>
      <path id="DejaVuSans-75" d="M 544 1381 
L 544 3500 
L 1119 3500 
L 1119 1403 
Q 1119 906 1312 657 
Q 1506 409 1894 409 
Q 2359 409 2629 706 
Q 2900 1003 2900 1516 
L 2900 3500 
L 3475 3500 
L 3475 0 
L 2900 0 
L 2900 538 
Q 2691 219 2414 64 
Q 2138 -91 1772 -91 
Q 1169 -91 856 284 
Q 544 659 544 1381 
z
M 1991 3584 
L 1991 3584 
z
" transform="scale(0.015625)"/>
      <path id="DejaVuSans-79" d="M 2059 -325 
Q 1816 -950 1584 -1140 
Q 1353 -1331 966 -1331 
L 506 -1331 
L 506 -850 
L 844 -850 
Q 1081 -850 1212 -737 
Q 1344 -625 1503 -206 
L 1606 56 
L 191 3500 
L 800 3500 
L 1894 763 
L 2988 3500 
L 3597 3500 
L 2059 -325 
z
" transform="scale(0.015625)"/>
      <path id="DejaVuSans-50" d="M 1259 4147 
L 1259 2394 
L 2053 2394 
Q 2494 2394 2734 2622 
Q 2975 2850 2975 3272 
Q 2975 3691 2734 3919 
Q 2494 4147 2053 4147 
L 1259 4147 
z
M 628 4666 
L 2053 4666 
Q 2838 4666 3239 4311 
Q 3641 3956 3641 3272 
Q 3641 2581 3239 2228 
Q 2838 1875 2053 1875 
L 1259 1875 
L 1259 0 
L 628 0 
L 628 4666 
z
" transform="scale(0.015625)"/>
      <path id="DejaVuSans-62" d="M 3116 1747 
Q 3116 2381 2855 2742 
Q 2594 3103 2138 3103 
Q 1681 3103 1420 2742 
Q 1159 2381 1159 1747 
Q 1159 1113 1420 752 
Q 1681 391 2138 391 
Q 2594 391 2855 752 
Q 3116 1113 3116 1747 
z
M 1159 2969 
Q 1341 3281 1617 3432 
Q 1894 3584 2278 3584 
Q 2916 3584 3314 3078 
Q 3713 2572 3713 1747 
Q 3713 922 3314 415 
Q 2916 -91 2278 -91 
Q 1894 -91 1617 61 
Q 1341 213 1159 525 
L 1159 0 
L 581 0 
L 581 4863 
L 1159 4863 
L 1159 2969 
z
" transform="scale(0.015625)"/>
      <path id="DejaVuSans-69" d="M 603 3500 
L 1178 3500 
L 1178 0 
L 603 0 
L 603 3500 
z
M 603 4863 
L 1178 4863 
L 1178 4134 
L 603 4134 
L 603 4863 
z
" transform="scale(0.015625)"/>
      <path id="DejaVuSans-63" d="M 3122 3366 
L 3122 2828 
Q 2878 2963 2633 3030 
Q 2388 3097 2138 3097 
Q 1578 3097 1268 2742 
Q 959 2388 959 1747 
Q 959 1106 1268 751 
Q 1578 397 2138 397 
Q 2388 397 2633 464 
Q 2878 531 3122 666 
L 3122 134 
Q 2881 22 2623 -34 
Q 2366 -91 2075 -91 
Q 1284 -91 818 406 
Q 353 903 353 1747 
Q 353 2603 823 3093 
Q 1294 3584 2113 3584 
Q 2378 3584 2631 3529 
Q 2884 3475 3122 3366 
z
" transform="scale(0.015625)"/>
      <path id="DejaVuSans-77" d="M 269 3500 
L 844 3500 
L 1563 769 
L 2278 3500 
L 2956 3500 
L 3675 769 
L 4391 3500 
L 4966 3500 
L 4050 0 
L 3372 0 
L 2619 2869 
L 1863 0 
L 1184 0 
L 269 3500 
z
" transform="scale(0.015625)"/>
      <path id="DejaVuSans-3a" d="M 750 794 
L 1409 794 
L 1409 0 
L 750 0 
L 750 794 
z
M 750 3309 
L 1409 3309 
L 1409 2516 
L 750 2516 
L 750 3309 
z
" transform="scale(0.015625)"/>
      <path id="DejaVuSans-68" d="M 3513 2113 
L 3513 0 
L 2938 0 
L 2938 2094 
Q 2938 2591 2744 2837 
Q 2550 3084 2163 3084 
Q 1697 3084 1428 2787 
Q 1159 2491 1159 1978 
L 1159 0 
L 581 0 
L 581 4863 
L 1159 4863 
L 1159 2956 
Q 1366 3272 1645 3428 
Q 1925 3584 2291 3584 
Q 2894 3584 3203 3211 
Q 3513 2838 3513 2113 
z
" transform="scale(0.015625)"/>
      <path id="DejaVuSans-46" d="M 628 4666 
L 3309 4666 
L 3309 4134 
L 1259 4134 
L 1259 2759 
L 3109 2759 
L 3109 2228 
L 1259 2228 
L 1259 0 
L 628 0 
L 628 4666 
z
" transform="scale(0.015625)"/>
      <path id="DejaVuSans-73" d="M 2834 3397 
L 2834 2853 
Q 2591 2978 2328 3040 
Q 2066 3103 1784 3103 
Q 1356 3103 1142 2972 
Q 928 2841 928 2578 
Q 928 2378 1081 2264 
Q 1234 2150 1697 2047 
L 1894 2003 
Q 2506 1872 2764 1633 
Q 3022 1394 3022 966 
Q 3022 478 2636 193 
Q 2250 -91 1575 -91 
Q 1294 -91 989 -36 
Q 684 19 347 128 
L 347 722 
Q 666 556 975 473 
Q 1284 391 1588 391 
Q 1994 391 2212 530 
Q 2431 669 2431 922 
Q 2431 1156 2273 1281 
Q 2116 1406 1581 1522 
L 1381 1569 
Q 847 1681 609 1914 
Q 372 2147 372 2553 
Q 372 3047 722 3315 
Q 1072 3584 1716 3584 
Q 2034 3584 2315 3537 
Q 2597 3491 2834 3397 
z
" transform="scale(0.015625)"/>
      <path id="DejaVuSans-54" d="M -19 4666 
L 3928 4666 
L 3928 4134 
L 2272 4134 
L 2272 0 
L 1638 0 
L 1638 4134 
L -19 4134 
L -19 4666 
z
" transform="scale(0.015625)"/>
      <path id="DejaVuSans-48" d="M 628 4666 
L 1259 4666 
L 1259 2753 
L 3553 2753 
L 3553 4666 
L 4184 4666 
L 4184 0 
L 3553 0 
L 3553 2222 
L 1259 2222 
L 1259 0 
L 628 0 
L 628 4666 
z
" transform="scale(0.015625)"/>
     </defs>
     <use xlink:href="#DejaVuSans-4a"/>
     <use xlink:href="#DejaVuSans-61" transform="translate(29.492188 0)"/>
     <use xlink:href="#DejaVuSans-6e" transform="translate(90.771484 0)"/>
     <use xlink:href="#DejaVuSans-75" transform="translate(154.150391 0)"/>
     <use xlink:href="#DejaVuSans-61" transform="translate(217.529297 0)"/>
     <use xlink:href="#DejaVuSans-72" transform="translate(278.808594 0)"/>
     <use xlink:href="#DejaVuSans-79" transform="translate(319.921875 0)"/>
     <use xlink:href="#DejaVuSans-20" transform="translate(379.101562 0)"/>
     <use xlink:href="#DejaVuSans-32" transform="translate(410.888672 0)"/>
     <use xlink:href="#DejaVuSans-30" transform="translate(474.511719 0)"/>
     <use xlink:href="#DejaVuSans-32" transform="translate(538.134766 0)"/>
     <use xlink:href="#DejaVuSans-36" transform="translate(601.757812 0)"/>
     <use xlink:href="#DejaVuSans-20" transform="translate(665.380859 0)"/>
     <use xlink:href="#DejaVuSans-50" transform="translate(697.167969 0)"/>
     <use xlink:href="#DejaVuSans-75" transform="translate(755.720703 0)"/>
     <use xlink:href="#DejaVuSans-62" transform="translate(819.099609 0)"/>
     <use xlink:href="#DejaVuSans-6c" transform="translate(882.576172 0)"/>
     <use xlink:href="#DejaVuSans-69" transform="translate(910.359375 0)"/>
     <use xlink:href="#DejaVuSans-63" transform="translate(938.142578 0)"/>
     <use xlink:href="#DejaVuSans-20" transform="translate(993.123047 0)"/>
     <use xlink:href="#DejaVuSans-57" transform="translate(1024.910156 0)"/>
     <use xlink:href="#DejaVuSans-69" transform="translate(1121.537109 0)"/>
     <use xlink:href="#DejaVuSans-6e" transform="translate(1149.320312 0)"/>
     <use xlink:href="#DejaVuSans-64" transform="translate(1212.699219 0)"/>
     <use xlink:href="#DejaVuSans-6f" transform="translate(1276.175781 0)"/>
     <use xlink:href="#DejaVuSans-77" transform="translate(1337.357422 0)"/>
     <use xlink:href="#DejaVuSans-3a" transform="translate(1413.644531 0)"/>
     <use xlink:href="#DejaVuSans-20" transform="translate(1447.335938 0)"/>
     <use xlink:href="#DejaVuSans-41" transform="translate(1479.123047 0)"/>
     <use xlink:href="#DejaVuSans-6e" transform="translate(1547.53125 0)"/>
     <use xlink:href="#DejaVuSans-63" transform="translate(1610.910156 0)"/>
     <use xlink:href="#DejaVuSans-68" transform="translate(1665.890625 0)"/>
     <use xlink:href="#DejaVuSans-6f" transform="translate(1729.269531 0)"/>
     <use xlink:href="#DejaVuSans-72" transform="translate(1790.451172 0)"/>
     <use xlink:href="#DejaVuSans-20" transform="translate(1831.564453 0)"/>
     <use xlink:href="#DejaVuSans-46" transform="translate(1863.351562 0)"/>
     <use xlink:href="#DejaVuSans-6f" transform="translate(1917.246094 0)"/>
     <use xlink:href="#DejaVuSans-72" transform="translate(1978.427734 0)"/>
     <use xlink:href="#DejaVuSans-65" transform="translate(2017.291016 0)"/>
     <use xlink:href="#DejaVuSans-63" transform="translate(2078.814453 0)"/>
     <use xlink:href="#DejaVuSans-61" transform="translate(2133.794922 0)"/>
     <use xlink:href="#DejaVuSans-73" transform="translate(2195.074219 0)"/>
     <use xlink:href="#DejaVuSans-74" transform="translate(2247.173828 0)"/>
     <use xlink:href="#DejaVuSans-2c" transform="translate(2286.382812 0)"/>
     <use xlink:href="#DejaVuSans-20" transform="translate(2318.169922 0)"/>
     <use xlink:href="#DejaVuSans-54" transform="translate(2349.957031 0)"/>
     <use xlink:href="#DejaVuSans-61" transform="translate(2394.541016 0)"/>
     <use xlink:href="#DejaVuSans-69" transform="translate(2455.820312 0)"/>
     <use xlink:href="#DejaVuSans-6c" transform="translate(2483.603516 0)"/>
     <use xlink:href="#DejaVuSans-20" transform="translate(2511.386719 0)"/>
     <use xlink:href="#DejaVuSans-48" transform="translate(2543.173828 0)"/>
     <use xlink:href="#DejaVuSans-61" transform="translate(2618.369141 0)"/>
     <use xlink:href="#DejaVuSans-6e" transform="translate(2679.648438 0)"/>
     <use xlink:href="#DejaVuSans-64" transform="translate(2743.027344 0)"/>
     <use xlink:href="#DejaVuSans-6f" transform="translate(2806.503906 0)"/>
     <use xlink:href="#DejaVuSans-66" transform="translate(2867.685547 0)"/>
     <use xlink:href="#DejaVuSans-66" transform="translate(2902.890625 0)"/>
     <use xlink:href="#DejaVuSans-2c" transform="translate(2938.095703 0)"/>
     <use xlink:href="#DejaVuSans-20" transform="translate(2969.882812 0)"/>
     <use xlink:href="#DejaVuSans-41" transform="translate(3001.669922 0)"/>
     <use xlink:href="#DejaVuSans-6e" transform="translate(3070.078125 0)"/>
     <use xlink:href="#DejaVuSans-64" transform="translate(3133.457031 0)"/>
     <use xlink:href="#DejaVuSans-20" transform="translate(3196.933594 0)"/>
     <use xlink:href="#DejaVuSans-54" transform="translate(3228.720703 0)"/>
     <use xlink:href="#DejaVuSans-68" transform="translate(3289.804688 0)"/>
     <use xlink:href="#DejaVuSans-65" transform="translate(3353.183594 0)"/>
     <use xlink:href="#DejaVuSans-20" transform="translate(3414.707031 0)"/>
     <use xlink:href="#DejaVuSans-57" transform="translate(3446.494141 0)"/>
     <use xlink:href="#DejaVuSans-69" transform="translate(3543.121094 0)"/>
     <use xlink:href="#DejaVuSans-6e" transform="translate(3570.904297 0)"/>
     <use xlink:href="#DejaVuSans-6e" transform="translate(3634.283203 0)"/>
     <use xlink:href="#DejaVuSans-69" transform="translate(3697.662109 0)"/>
     <use xlink:href="#DejaVuSans-6e" transform="translate(3725.445312 0)"/>
     <use xlink:href="#DejaVuSans-67" transform="translate(3788.824219 0)"/>
     <use xlink:href="#DejaVuSans-20" transform="translate(3852.300781 0)"/>
     <use xlink:href="#DejaVuSans-48" transform="translate(3884.087891 0)"/>
     <use xlink:href="#DejaVuSans-79" transform="translate(3959.283203 0)"/>
     <use xlink:href="#DejaVuSans-62" transform="translate(4018.462891 0)"/>
     <use xlink:href="#DejaVuSans-72" transform="translate(4081.939453 0)"/>
     <use xlink:href="#DejaVuSans-69" transform="translate(4123.052734 0)"/>
     <use xlink:href="#DejaVuSans-64" transform="translate(4150.835938 0)"/>
    </g>
   </g>
   <g id="PathCollection_1">
    <defs>
     <path id="m8413f40d8e" d="M 0 3.464102 
C 0.91869 3.464102 1.799877 3.099102 2.44949 2.44949 
C 3.099102 1.799877 3.464102 0.91869 3.464102 0 
C 3.464102 -0.91869 3.099102 -1.799877 2.44949 -2.44949 
C 1.799877 -3.099102 0.91869 -3.464102 0 -3.464102 
C -0.91869 -3.464102 -1.799877 -3.099102 -2.44949 -2.44949 
C -3.099102 -1.799877 -3.464102 -0.91869 -3.464102 0 
C -3.464102 0.91869 -3.099102 1.799877 -2.44949 2.44949 
C -1.799877 3.099102 -0.91869 3.464102 0 3.464102 
z
" style="stroke: #ffffff; stroke-width: 0.5"/>
    </defs>
    <g clip-path="url(#pee0b436e40)">
     <use xlink:href="#m8413f40d8e" x="753.094172" y="191.286016" style="fill: #eb6a3e; stroke: #ffffff; stroke-width: 0.5"/>
     <use xlink:href="#m8413f40d8e" x="759.810968" y="219.50517" style="fill: #eb6a3e; stroke: #ffffff; stroke-width: 0.5"/>
     <use xlink:href="#m8413f40d8e" x="763.169366" y="187.088925" style="fill: #eb6a3e; stroke: #ffffff; stroke-width: 0.5"/>
     <use xlink:href="#m8413f40d8e" x="826.978926" y="142.132" style="fill: #eb6a3e; stroke: #ffffff; stroke-width: 0.5"/>
     <use xlink:href="#m8413f40d8e" x="830.337324" y="76.246051" style="fill: #eb6a3e; stroke: #ffffff; stroke-width: 0.5"/>
     <use xlink:href="#m8413f40d8e" x="833.695722" y="98.831669" style="fill: #eb6a3e; stroke: #ffffff; stroke-width: 0.5"/>
     <use xlink:href="#m8413f40d8e" x="837.05412" y="72.037413" style="fill: #eb6a3e; stroke: #ffffff; stroke-width: 0.5"/>
     <use xlink:href="#m8413f40d8e" x="840.412518" y="108.095156" style="fill: #eb6a3e; stroke: #ffffff; stroke-width: 0.5"/>
     <use xlink:href="#m8413f40d8e" x="843.770916" y="68.701026" style="fill: #eb6a3e; stroke: #ffffff; stroke-width: 0.5"/>
     <use xlink:href="#m8413f40d8e" x="847.129314" y="69.276514" style="fill: #eb6a3e; stroke: #ffffff; stroke-width: 0.5"/>
     <use xlink:href="#m8413f40d8e" x="850.487712" y="115.901696" style="fill: #eb6a3e; stroke: #ffffff; stroke-width: 0.5"/>
     <use xlink:href="#m8413f40d8e" x="853.846109" y="121.057921" style="fill: #eb6a3e; stroke: #ffffff; stroke-width: 0.5"/>
     <use xlink:href="#m8413f40d8e" x="857.204507" y="136.578362" style="fill: #eb6a3e; stroke: #ffffff; stroke-width: 0.5"/>
     <use xlink:href="#m8413f40d8e" x="860.562905" y="118.6246" style="fill: #eb6a3e; stroke: #ffffff; stroke-width: 0.5"/>
     <use xlink:href="#m8413f40d8e" x="863.921303" y="130.057674" style="fill: #eb6a3e; stroke: #ffffff; stroke-width: 0.5"/>
    </g>
   </g>
   <g id="legend_1">
    <g id="patch_5">
     <path d="M 509.602957 52.375625 
L 531.602957 52.375625 
L 531.602957 44.675625 
L 509.602957 44.675625 
z
" style="fill: #f2d8a7; fill-opacity: 0.55; stroke: #f2d8a7; stroke-opacity: 0.55; stroke-linejoin: miter"/>
    </g>
    <g id="text_19">
     <!-- Anchor-tail hybrid P90 band -->
     <g style="fill: #10243f" transform="translate(540.402957 52.375625) scale(0.11 -0.11)">
      <defs>
       <path id="DejaVuSans-2d" d="M 313 2009 
L 1997 2009 
L 1997 1497 
L 313 1497 
L 313 2009 
z
" transform="scale(0.015625)"/>
      </defs>
      <use xlink:href="#DejaVuSans-41"/>
      <use xlink:href="#DejaVuSans-6e" transform="translate(68.408203 0)"/>
      <use xlink:href="#DejaVuSans-63" transform="translate(131.787109 0)"/>
      <use xlink:href="#DejaVuSans-68" transform="translate(186.767578 0)"/>
      <use xlink:href="#DejaVuSans-6f" transform="translate(250.146484 0)"/>
      <use xlink:href="#DejaVuSans-72" transform="translate(311.328125 0)"/>
      <use xlink:href="#DejaVuSans-2d" transform="translate(346.066406 0)"/>
      <use xlink:href="#DejaVuSans-74" transform="translate(382.150391 0)"/>
      <use xlink:href="#DejaVuSans-61" transform="translate(421.359375 0)"/>
      <use xlink:href="#DejaVuSans-69" transform="translate(482.638672 0)"/>
      <use xlink:href="#DejaVuSans-6c" transform="translate(510.421875 0)"/>
      <use xlink:href="#DejaVuSans-20" transform="translate(538.205078 0)"/>
      <use xlink:href="#DejaVuSans-68" transform="translate(569.992188 0)"/>
      <use xlink:href="#DejaVuSans-79" transform="translate(633.371094 0)"/>
      <use xlink:href="#DejaVuSans-62" transform="translate(692.550781 0)"/>
      <use xlink:href="#DejaVuSans-72" transform="translate(756.027344 0)"/>
      <use xlink:href="#DejaVuSans-69" transform="translate(797.140625 0)"/>
      <use xlink:href="#DejaVuSans-64" transform="translate(824.923828 0)"/>
      <use xlink:href="#DejaVuSans-20" transform="translate(888.400391 0)"/>
      <use xlink:href="#DejaVuSans-50" transform="translate(920.1875 0)"/>
      <use xlink:href="#DejaVuSans-39" transform="translate(980.490234 0)"/>
      <use xlink:href="#DejaVuSans-30" transform="translate(1044.113281 0)"/>
      <use xlink:href="#DejaVuSans-20" transform="translate(1107.736328 0)"/>
      <use xlink:href="#DejaVuSans-62" transform="translate(1139.523438 0)"/>
      <use xlink:href="#DejaVuSans-61" transform="translate(1203 0)"/>
      <use xlink:href="#DejaVuSans-6e" transform="translate(1264.279297 0)"/>
      <use xlink:href="#DejaVuSans-64" transform="translate(1327.658203 0)"/>
     </g>
    </g>
    <g id="line2d_27">
     <path d="M 509.602957 64.671562 
L 520.602957 64.671562 
L 531.602957 64.671562 
" style="fill: none; stroke: #10243f; stroke-width: 2.6; stroke-linecap: square"/>
    </g>
    <g id="text_20">
     <!-- Observed load -->
     <g style="fill: #10243f" transform="translate(540.402957 68.521562) scale(0.11 -0.11)">
      <defs>
       <path id="DejaVuSans-4f" d="M 2522 4238 
Q 1834 4238 1429 3725 
Q 1025 3213 1025 2328 
Q 1025 1447 1429 934 
Q 1834 422 2522 422 
Q 3209 422 3611 934 
Q 4013 1447 4013 2328 
Q 4013 3213 3611 3725 
Q 3209 4238 2522 4238 
z
M 2522 4750 
Q 3503 4750 4090 4092 
Q 4678 3434 4678 2328 
Q 4678 1225 4090 567 
Q 3503 -91 2522 -91 
Q 1538 -91 948 565 
Q 359 1222 359 2328 
Q 359 3434 948 4092 
Q 1538 4750 2522 4750 
z
" transform="scale(0.015625)"/>
       <path id="DejaVuSans-76" d="M 191 3500 
L 800 3500 
L 1894 563 
L 2988 3500 
L 3597 3500 
L 2284 0 
L 1503 0 
L 191 3500 
z
" transform="scale(0.015625)"/>
      </defs>
      <use xlink:href="#DejaVuSans-4f"/>
      <use xlink:href="#DejaVuSans-62" transform="translate(78.710938 0)"/>
      <use xlink:href="#DejaVuSans-73" transform="translate(142.1875 0)"/>
      <use xlink:href="#DejaVuSans-65" transform="translate(194.287109 0)"/>
      <use xlink:href="#DejaVuSans-72" transform="translate(255.810547 0)"/>
      <use xlink:href="#DejaVuSans-76" transform="translate(296.923828 0)"/>
      <use xlink:href="#DejaVuSans-65" transform="translate(356.103516 0)"/>
      <use xlink:href="#DejaVuSans-64" transform="translate(417.626953 0)"/>
      <use xlink:href="#DejaVuSans-20" transform="translate(481.103516 0)"/>
      <use xlink:href="#DejaVuSans-6c" transform="translate(512.890625 0)"/>
      <use xlink:href="#DejaVuSans-6f" transform="translate(540.673828 0)"/>
      <use xlink:href="#DejaVuSans-61" transform="translate(601.855469 0)"/>
      <use xlink:href="#DejaVuSans-64" transform="translate(663.134766 0)"/>
     </g>
    </g>
    <g id="line2d_28">
     <path d="M 509.602957 80.8175 
L 520.602957 80.8175 
L 531.602957 80.8175 
" style="fill: none; stroke-dasharray: 6.4,4.8; stroke-dashoffset: 0; stroke: #5f6f86; stroke-width: 1.6"/>
    </g>
    <g id="text_21">
     <!-- Strong anchor forecast -->
     <g style="fill: #10243f" transform="translate(540.402957 84.6675) scale(0.11 -0.11)">
      <defs>
       <path id="DejaVuSans-53" d="M 3425 4513 
L 3425 3897 
Q 3066 4069 2747 4153 
Q 2428 4238 2131 4238 
Q 1616 4238 1336 4038 
Q 1056 3838 1056 3469 
Q 1056 3159 1242 3001 
Q 1428 2844 1947 2747 
L 2328 2669 
Q 3034 2534 3370 2195 
Q 3706 1856 3706 1288 
Q 3706 609 3251 259 
Q 2797 -91 1919 -91 
Q 1588 -91 1214 -16 
Q 841 59 441 206 
L 441 856 
Q 825 641 1194 531 
Q 1563 422 1919 422 
Q 2459 422 2753 634 
Q 3047 847 3047 1241 
Q 3047 1584 2836 1778 
Q 2625 1972 2144 2069 
L 1759 2144 
Q 1053 2284 737 2584 
Q 422 2884 422 3419 
Q 422 4038 858 4394 
Q 1294 4750 2059 4750 
Q 2388 4750 2728 4690 
Q 3069 4631 3425 4513 
z
" transform="scale(0.015625)"/>
      </defs>
      <use xlink:href="#DejaVuSans-53"/>
      <use xlink:href="#DejaVuSans-74" transform="translate(63.476562 0)"/>
      <use xlink:href="#DejaVuSans-72" transform="translate(102.685547 0)"/>
      <use xlink:href="#DejaVuSans-6f" transform="translate(141.548828 0)"/>
      <use xlink:href="#DejaVuSans-6e" transform="translate(202.730469 0)"/>
      <use xlink:href="#DejaVuSans-67" transform="translate(266.109375 0)"/>
      <use xlink:href="#DejaVuSans-20" transform="translate(329.585938 0)"/>
      <use xlink:href="#DejaVuSans-61" transform="translate(361.373047 0)"/>
      <use xlink:href="#DejaVuSans-6e" transform="translate(422.652344 0)"/>
      <use xlink:href="#DejaVuSans-63" transform="translate(486.03125 0)"/>
      <use xlink:href="#DejaVuSans-68" transform="translate(541.011719 0)"/>
      <use xlink:href="#DejaVuSans-6f" transform="translate(604.390625 0)"/>
      <use xlink:href="#DejaVuSans-72" transform="translate(665.572266 0)"/>
      <use xlink:href="#DejaVuSans-20" transform="translate(706.685547 0)"/>
      <use xlink:href="#DejaVuSans-66" transform="translate(738.472656 0)"/>
      <use xlink:href="#DejaVuSans-6f" transform="translate(773.677734 0)"/>
      <use xlink:href="#DejaVuSans-72" transform="translate(834.859375 0)"/>
      <use xlink:href="#DejaVuSans-65" transform="translate(873.722656 0)"/>
      <use xlink:href="#DejaVuSans-63" transform="translate(935.246094 0)"/>
      <use xlink:href="#DejaVuSans-61" transform="translate(990.226562 0)"/>
      <use xlink:href="#DejaVuSans-73" transform="translate(1051.505859 0)"/>
      <use xlink:href="#DejaVuSans-74" transform="translate(1103.605469 0)"/>
     </g>
    </g>
    <g id="line2d_29">
     <path d="M 715.426707 48.525625 
L 726.426707 48.525625 
L 737.426707 48.525625 
" style="fill: none; stroke: #178c82; stroke-width: 2.4; stroke-linecap: square"/>
    </g>
    <g id="text_22">
     <!-- Winning anchor-tail hybrid -->
     <g style="fill: #10243f" transform="translate(746.226707 52.375625) scale(0.11 -0.11)">
      <use xlink:href="#DejaVuSans-57"/>
      <use xlink:href="#DejaVuSans-69" transform="translate(96.626953 0)"/>
      <use xlink:href="#DejaVuSans-6e" transform="translate(124.410156 0)"/>
      <use xlink:href="#DejaVuSans-6e" transform="translate(187.789062 0)"/>
      <use xlink:href="#DejaVuSans-69" transform="translate(251.167969 0)"/>
      <use xlink:href="#DejaVuSans-6e" transform="translate(278.951172 0)"/>
      <use xlink:href="#DejaVuSans-67" transform="translate(342.330078 0)"/>
      <use xlink:href="#DejaVuSans-20" transform="translate(405.806641 0)"/>
      <use xlink:href="#DejaVuSans-61" transform="translate(437.59375 0)"/>
      <use xlink:href="#DejaVuSans-6e" transform="translate(498.873047 0)"/>
      <use xlink:href="#DejaVuSans-63" transform="translate(562.251953 0)"/>
      <use xlink:href="#DejaVuSans-68" transform="translate(617.232422 0)"/>
      <use xlink:href="#DejaVuSans-6f" transform="translate(680.611328 0)"/>
      <use xlink:href="#DejaVuSans-72" transform="translate(741.792969 0)"/>
      <use xlink:href="#DejaVuSans-2d" transform="translate(776.53125 0)"/>
      <use xlink:href="#DejaVuSans-74" transform="translate(812.615234 0)"/>
      <use xlink:href="#DejaVuSans-61" transform="translate(851.824219 0)"/>
      <use xlink:href="#DejaVuSans-69" transform="translate(913.103516 0)"/>
      <use xlink:href="#DejaVuSans-6c" transform="translate(940.886719 0)"/>
      <use xlink:href="#DejaVuSans-20" transform="translate(968.669922 0)"/>
      <use xlink:href="#DejaVuSans-68" transform="translate(1000.457031 0)"/>
      <use xlink:href="#DejaVuSans-79" transform="translate(1063.835938 0)"/>
      <use xlink:href="#DejaVuSans-62" transform="translate(1123.015625 0)"/>
      <use xlink:href="#DejaVuSans-72" transform="translate(1186.492188 0)"/>
      <use xlink:href="#DejaVuSans-69" transform="translate(1227.605469 0)"/>
      <use xlink:href="#DejaVuSans-64" transform="translate(1255.388672 0)"/>
     </g>
    </g>
    <g id="PathCollection_2">
     <g>
      <use xlink:href="#m8413f40d8e" x="726.426707" y="65.634062" style="fill: #eb6a3e; stroke: #ffffff; stroke-width: 0.5"/>
     </g>
    </g>
    <g id="text_23">
     <!-- Tail-routed hours -->
     <g style="fill: #10243f" transform="translate(746.226707 68.521562) scale(0.11 -0.11)">
      <use xlink:href="#DejaVuSans-54"/>
      <use xlink:href="#DejaVuSans-61" transform="translate(44.583984 0)"/>
      <use xlink:href="#DejaVuSans-69" transform="translate(105.863281 0)"/>
      <use xlink:href="#DejaVuSans-6c" transform="translate(133.646484 0)"/>
      <use xlink:href="#DejaVuSans-2d" transform="translate(161.429688 0)"/>
      <use xlink:href="#DejaVuSans-72" transform="translate(197.513672 0)"/>
      <use xlink:href="#DejaVuSans-6f" transform="translate(236.376953 0)"/>
      <use xlink:href="#DejaVuSans-75" transform="translate(297.558594 0)"/>
      <use xlink:href="#DejaVuSans-74" transform="translate(360.9375 0)"/>
      <use xlink:href="#DejaVuSans-65" transform="translate(400.146484 0)"/>
      <use xlink:href="#DejaVuSans-64" transform="translate(461.669922 0)"/>
      <use xlink:href="#DejaVuSans-20" transform="translate(525.146484 0)"/>
      <use xlink:href="#DejaVuSans-68" transform="translate(556.933594 0)"/>
      <use xlink:href="#DejaVuSans-6f" transform="translate(620.3125 0)"/>
      <use xlink:href="#DejaVuSans-75" transform="translate(681.494141 0)"/>
      <use xlink:href="#DejaVuSans-72" transform="translate(744.873047 0)"/>
      <use xlink:href="#DejaVuSans-73" transform="translate(785.986328 0)"/>
     </g>
    </g>
    <g id="line2d_30">
     <path d="M 715.426707 80.8175 
L 726.426707 80.8175 
L 737.426707 80.8175 
" style="fill: none; stroke-dasharray: 2.4,3.6; stroke-dashoffset: 0; stroke: #b7412e; stroke-width: 1.2"/>
    </g>
    <g id="text_24">
     <!-- Peak-hour cutoff -->
     <g style="fill: #10243f" transform="translate(746.226707 84.6675) scale(0.11 -0.11)">
      <use xlink:href="#DejaVuSans-50"/>
      <use xlink:href="#DejaVuSans-65" transform="translate(56.677734 0)"/>
      <use xlink:href="#DejaVuSans-61" transform="translate(118.201172 0)"/>
      <use xlink:href="#DejaVuSans-6b" transform="translate(179.480469 0)"/>
      <use xlink:href="#DejaVuSans-2d" transform="translate(237.390625 0)"/>
      <use xlink:href="#DejaVuSans-68" transform="translate(273.474609 0)"/>
      <use xlink:href="#DejaVuSans-6f" transform="translate(336.853516 0)"/>
      <use xlink:href="#DejaVuSans-75" transform="translate(398.035156 0)"/>
      <use xlink:href="#DejaVuSans-72" transform="translate(461.414062 0)"/>
      <use xlink:href="#DejaVuSans-20" transform="translate(502.527344 0)"/>
      <use xlink:href="#DejaVuSans-63" transform="translate(534.314453 0)"/>
      <use xlink:href="#DejaVuSans-75" transform="translate(589.294922 0)"/>
      <use xlink:href="#DejaVuSans-74" transform="translate(652.673828 0)"/>
      <use xlink:href="#DejaVuSans-6f" transform="translate(691.882812 0)"/>
      <use xlink:href="#DejaVuSans-66" transform="translate(753.064453 0)"/>
      <use xlink:href="#DejaVuSans-66" transform="translate(788.269531 0)"/>
     </g>
    </g>
   </g>
  </g>
 </g>
 <defs>
  <clipPath id="pee0b436e40">
   <rect x="81.07875" y="34.117344" width="820.12077" height="367.036239"/>
  </clipPath>
 </defs>
</svg>
